<svg width="24" height="23" viewBox="0 0 24 23" fill="none" xmlns="http://www.w3.org/2000/svg">
    <path fill-rule="evenodd" clip-rule="evenodd" d="M7.83579 3.27559C9.14656 -0.758531 14.8538 -0.758531 16.1645 3.27559C16.5499 4.46167 17.6552 5.26471 18.9023 5.26471C23.144 5.26471 24.9077 10.6926 21.476 13.1858C20.4671 13.9188 20.0449 15.2182 20.4303 16.4043C21.7411 20.4384 17.1238 23.793 13.6922 21.2998C12.6833 20.5667 11.3171 20.5667 10.3081 21.2998C6.87649 23.793 2.25926 20.4384 3.57003 16.4043C3.95541 15.2182 3.53323 13.9188 2.52429 13.1858C-0.907344 10.6926 0.856281 5.26471 5.09801 5.26471C6.34513 5.26471 7.45041 4.46167 7.83579 3.27559ZM14.7105 6.64541C14.5776 6.25309 14.1518 6.04279 13.7595 6.17568C13.3672 6.30857 13.1569 6.73434 13.2898 7.12666C13.7209 8.39931 14.9435 9.23366 16.2926 9.23366C16.7068 9.23366 17.0426 8.89787 17.0426 8.48366C17.0426 8.06945 16.7068 7.73366 16.2926 7.73366C15.5531 7.73366 14.9248 7.27803 14.7105 6.64541Z" fill="currentColor" />
</svg>
    