<svg width="18" height="20" viewBox="0 0 18 20" fill="none" xmlns="http://www.w3.org/2000/svg">
    <path fill-rule="evenodd" clip-rule="evenodd" d="M18 11C18 14.7497 18 16.6246 17.0451 17.9389C16.7367 18.3634 16.3634 18.7367 15.9389 19.0451C14.6246 20 12.7497 20 9 20C5.25027 20 3.3754 20 2.06107 19.0451C1.6366 18.7367 1.26331 18.3634 0.954914 17.9389C0 16.6246 0 14.7497 0 11V9C0 8.16106 0 7.41596 0.0106945 6.75L0.0808201 6.75C0.932837 6.75007 1.45182 6.75011 1.8995 6.67921C4.35988 6.28952 6.28952 4.35988 6.67921 1.8995C6.75011 1.45182 6.75007 0.932837 6.75 0.0808201L6.75 0.0106945C7.41596 0 8.16106 0 9 0C12.7497 0 14.6246 0 15.9389 0.954914C16.3634 1.26331 16.7367 1.6366 17.0451 2.06107C18 3.3754 18 5.25027 18 9V11ZM10 5.25C9.58579 5.25 9.25 5.58579 9.25 6C9.25 6.41421 9.58579 6.75 10 6.75H13C13.4142 6.75 13.75 6.41421 13.75 6C13.75 5.58579 13.4142 5.25 13 5.25H10ZM5 9.25C4.58579 9.25 4.25 9.58579 4.25 10C4.25 10.4142 4.58579 10.75 5 10.75H13C13.4142 10.75 13.75 10.4142 13.75 10C13.75 9.58579 13.4142 9.25 13 9.25H5ZM10 13.25C9.58579 13.25 9.25 13.5858 9.25 14C9.25 14.4142 9.58579 14.75 10 14.75H13C13.4142 14.75 13.75 14.4142 13.75 14C13.75 13.5858 13.4142 13.25 13 13.25H10Z" fill="currentColor" />
    <path d="M1.66485 5.19768C1.35646 5.24652 0.975676 5.24987 0.0653362 5.25C0.159744 3.81037 0.390566 2.83783 0.954914 2.06107C1.26331 1.6366 1.6366 1.26331 2.06107 0.954914C2.83783 0.390566 3.81037 0.159744 5.25 0.0653362C5.24987 0.975676 5.24652 1.35645 5.19768 1.66485C4.90965 3.48339 3.48339 4.90965 1.66485 5.19768Z" fill="currentColor" />
</svg>
    