<svg width="1440" height="977" viewBox="0 0 1440 977" fill="none" xmlns="http://www.w3.org/2000/svg">
<g clip-path="url(#clip0_20_3962)">
<path opacity="0.27" d="M110.696 -159.667L560.073 244.901C591.509 273.203 594.048 321.627 565.742 353.06C537.437 384.492 489.006 387.03 457.569 358.728L8.19271 -45.8398C-23.244 -74.1418 -25.7823 -122.566 2.52329 -153.999C30.8289 -185.431 79.2596 -187.969 110.696 -159.667Z" fill="url(#paint0_linear_20_3962)"/>
<path opacity="0.27" d="M-353.71 -159.665L559.423 662.416C590.86 690.718 593.398 739.142 565.092 770.574C536.787 802.007 488.356 804.544 456.919 776.242L-456.213 -45.8383C-487.65 -74.1403 -490.188 -122.565 -461.883 -153.997C-433.577 -185.43 -385.146 -187.967 -353.71 -159.665Z" fill="url(#paint1_linear_20_3962)"/>
<path opacity="0.27" d="M-202.661 -191.518L290.908 252.836C310.141 270.151 311.694 299.778 294.376 319.008C277.058 338.239 247.428 339.792 228.195 322.476L-265.374 -121.877C-284.607 -139.193 -286.16 -168.819 -268.843 -188.05C-251.525 -207.281 -221.895 -208.833 -202.661 -191.518Z" fill="url(#paint2_linear_20_3962)"/>
<path opacity="0.27" d="M-199.414 254.962L372.193 769.572C391.055 786.553 392.578 815.608 375.594 834.467C358.611 853.327 329.553 854.849 310.691 837.868L-260.916 323.258C-279.778 306.277 -281.301 277.223 -264.318 258.363C-247.335 239.504 -218.276 237.981 -199.414 254.962Z" fill="url(#paint3_linear_20_3962)"/>
<path opacity="0.26" d="M1481.39 504.331L1930.77 908.899C1962.2 937.201 1964.74 985.625 1936.44 1017.06C1908.13 1048.49 1859.7 1051.03 1828.26 1022.73L1378.89 618.158C1347.45 589.856 1344.91 541.432 1373.22 509.999C1401.52 478.567 1449.95 476.029 1481.39 504.331Z" fill="url(#paint4_linear_20_3962)"/>
<path opacity="0.26" d="M1183.46 625.551L2096.59 1447.63C2128.03 1475.93 2130.57 1524.36 2102.26 1555.79C2073.95 1587.22 2025.52 1589.76 1994.09 1561.46L1080.95 739.378C1049.52 711.076 1046.98 662.651 1075.28 631.219C1103.59 599.787 1152.02 597.249 1183.46 625.551Z" fill="url(#paint5_linear_20_3962)"/>
<path opacity="0.26" d="M1439.46 699.54L1933.03 1143.89C1952.26 1161.21 1953.81 1190.84 1936.5 1210.07C1919.18 1229.3 1889.55 1230.85 1870.31 1213.53L1376.74 769.181C1357.51 751.865 1355.96 722.239 1373.28 703.008C1390.59 683.777 1420.22 682.225 1439.46 699.54Z" fill="url(#paint6_linear_20_3962)"/>
<path opacity="0.26" d="M1137.8 815.832L1709.41 1330.44C1728.27 1347.42 1729.8 1376.48 1712.81 1395.34C1695.83 1414.2 1666.77 1415.72 1647.91 1398.74L1076.3 884.128C1057.44 867.147 1055.92 838.093 1072.9 819.233C1089.88 800.374 1118.94 798.851 1137.8 815.832Z" fill="url(#paint7_linear_20_3962)"/>
<g opacity="0.58">
<path opacity="0.55" d="M1045.8 161.927C1041.3 161.927 1037.66 158.282 1037.66 153.785C1037.66 149.289 1041.3 145.643 1045.8 145.643C1050.3 145.643 1053.94 149.289 1053.94 153.785C1053.94 158.282 1050.3 161.927 1045.8 161.927Z" fill="white"/>
<path opacity="0.55" d="M1045.8 275.91C1041.3 275.91 1037.66 272.063 1037.66 267.316C1037.66 262.57 1041.3 258.722 1045.8 258.722C1050.3 258.722 1053.94 262.57 1053.94 267.316C1053.94 272.063 1050.3 275.91 1045.8 275.91Z" fill="white"/>
<path opacity="0.55" d="M1045.8 218.918C1041.3 218.918 1037.66 215.273 1037.66 210.777C1037.66 206.28 1041.3 202.635 1045.8 202.635C1050.3 202.635 1053.94 206.28 1053.94 210.777C1053.94 215.273 1050.3 218.918 1045.8 218.918Z" fill="white"/>
<path opacity="0.55" d="M1045.8 332.902C1041.3 332.902 1037.66 329.054 1037.66 324.308C1037.66 319.562 1041.3 315.714 1045.8 315.714C1050.3 315.714 1053.94 319.562 1053.94 324.308C1053.94 329.054 1050.3 332.902 1045.8 332.902Z" fill="white"/>
<path opacity="0.55" d="M1045.8 190.873C1041.3 190.873 1037.66 187.025 1037.66 182.279C1037.66 177.532 1041.3 173.685 1045.8 173.685C1050.3 173.685 1053.94 177.532 1053.94 182.279C1053.94 187.025 1050.3 190.873 1045.8 190.873Z" fill="white"/>
<path opacity="0.55" d="M1045.8 303.954C1041.3 303.954 1037.66 300.309 1037.66 295.812C1037.66 291.315 1041.3 287.67 1045.8 287.67C1050.3 287.67 1053.94 291.315 1053.94 295.812C1053.94 300.309 1050.3 303.954 1045.8 303.954Z" fill="white"/>
<path opacity="0.55" d="M1045.8 247.867C1041.3 247.867 1037.66 244.019 1037.66 239.273C1037.66 234.526 1041.3 230.679 1045.8 230.679C1050.3 230.679 1053.94 234.526 1053.94 239.273C1053.94 244.019 1050.3 247.867 1045.8 247.867Z" fill="white"/>
<path opacity="0.55" d="M1045.8 360.945C1041.3 360.945 1037.66 357.3 1037.66 352.804C1037.66 348.307 1041.3 344.662 1045.8 344.662C1050.3 344.662 1053.94 348.307 1053.94 352.804C1053.94 357.3 1050.3 360.945 1045.8 360.945Z" fill="white"/>
<path opacity="0.55" d="M989.707 161.927C985.21 161.927 981.564 158.282 981.564 153.785C981.564 149.289 985.21 145.643 989.707 145.643C994.204 145.643 997.849 149.289 997.849 153.785C997.849 158.282 994.204 161.927 989.707 161.927Z" fill="white"/>
<path opacity="0.55" d="M989.707 275.91C985.21 275.91 981.564 272.063 981.564 267.316C981.564 262.57 985.21 258.722 989.707 258.722C994.204 258.722 997.849 262.57 997.849 267.316C997.849 272.063 994.204 275.91 989.707 275.91Z" fill="white"/>
<path opacity="0.55" d="M989.707 218.918C985.21 218.918 981.564 215.273 981.564 210.777C981.564 206.28 985.21 202.635 989.707 202.635C994.204 202.635 997.849 206.28 997.849 210.777C997.849 215.273 994.204 218.918 989.707 218.918Z" fill="white"/>
<path opacity="0.55" d="M989.707 332.902C985.21 332.902 981.564 329.054 981.564 324.308C981.564 319.562 985.21 315.714 989.707 315.714C994.204 315.714 997.849 319.562 997.849 324.308C997.849 329.054 994.204 332.902 989.707 332.902Z" fill="white"/>
<path opacity="0.55" d="M989.707 190.873C985.21 190.873 981.564 187.025 981.564 182.279C981.564 177.532 985.21 173.685 989.707 173.685C994.204 173.685 997.849 177.532 997.849 182.279C997.849 187.025 994.204 190.873 989.707 190.873Z" fill="white"/>
<path opacity="0.55" d="M989.707 303.954C985.21 303.954 981.564 300.309 981.564 295.812C981.564 291.315 985.21 287.67 989.707 287.67C994.204 287.67 997.849 291.315 997.849 295.812C997.849 300.309 994.204 303.954 989.707 303.954Z" fill="white"/>
<path opacity="0.55" d="M989.707 247.867C985.21 247.867 981.564 244.019 981.564 239.273C981.564 234.526 985.21 230.679 989.707 230.679C994.204 230.679 997.849 234.526 997.849 239.273C997.849 244.019 994.204 247.867 989.707 247.867Z" fill="white"/>
<path opacity="0.55" d="M989.707 360.945C985.21 360.945 981.564 357.3 981.564 352.804C981.564 348.307 985.21 344.662 989.707 344.662C994.204 344.662 997.849 348.307 997.849 352.804C997.849 357.3 994.204 360.945 989.707 360.945Z" fill="white"/>
<path opacity="0.55" d="M1017.75 161.927C1013.26 161.927 1009.61 158.282 1009.61 153.785C1009.61 149.289 1013.26 145.643 1017.75 145.643C1022.25 145.643 1025.9 149.289 1025.9 153.785C1025.9 158.282 1022.25 161.927 1017.75 161.927Z" fill="white"/>
<path opacity="0.55" d="M1017.75 275.91C1013.26 275.91 1009.61 272.063 1009.61 267.316C1009.61 262.57 1013.26 258.722 1017.75 258.722C1022.25 258.722 1025.9 262.57 1025.9 267.316C1025.9 272.063 1022.25 275.91 1017.75 275.91Z" fill="white"/>
<path opacity="0.55" d="M1017.75 218.918C1013.26 218.918 1009.61 215.273 1009.61 210.777C1009.61 206.28 1013.26 202.635 1017.75 202.635C1022.25 202.635 1025.9 206.28 1025.9 210.777C1025.9 215.273 1022.25 218.918 1017.75 218.918Z" fill="white"/>
<path opacity="0.55" d="M1017.75 332.902C1013.26 332.902 1009.61 329.054 1009.61 324.308C1009.61 319.562 1013.26 315.714 1017.75 315.714C1022.25 315.714 1025.9 319.562 1025.9 324.308C1025.9 329.054 1022.25 332.902 1017.75 332.902Z" fill="white"/>
<path opacity="0.55" d="M1017.75 190.873C1013.26 190.873 1009.61 187.025 1009.61 182.279C1009.61 177.532 1013.26 173.685 1017.75 173.685C1022.25 173.685 1025.9 177.532 1025.9 182.279C1025.9 187.025 1022.25 190.873 1017.75 190.873Z" fill="white"/>
<path opacity="0.55" d="M1017.75 303.954C1013.26 303.954 1009.61 300.309 1009.61 295.812C1009.61 291.315 1013.26 287.67 1017.75 287.67C1022.25 287.67 1025.9 291.315 1025.9 295.812C1025.9 300.309 1022.25 303.954 1017.75 303.954Z" fill="white"/>
<path opacity="0.55" d="M1017.75 247.867C1013.26 247.867 1009.61 244.019 1009.61 239.273C1009.61 234.526 1013.26 230.679 1017.75 230.679C1022.25 230.679 1025.9 234.526 1025.9 239.273C1025.9 244.019 1022.25 247.867 1017.75 247.867Z" fill="white"/>
<path opacity="0.55" d="M1017.75 360.945C1013.26 360.945 1009.61 357.3 1009.61 352.804C1009.61 348.307 1013.26 344.662 1017.75 344.662C1022.25 344.662 1025.9 348.307 1025.9 352.804C1025.9 357.3 1022.25 360.945 1017.75 360.945Z" fill="white"/>
<path opacity="0.55" d="M961.66 161.927C957.162 161.927 953.517 158.282 953.517 153.785C953.517 149.289 957.162 145.643 961.66 145.643C966.157 145.643 969.802 149.289 969.802 153.785C969.802 158.282 966.157 161.927 961.66 161.927Z" fill="white"/>
<path opacity="0.55" d="M961.66 275.91C957.162 275.91 953.517 272.063 953.517 267.316C953.517 262.57 957.162 258.722 961.66 258.722C966.157 258.722 969.802 262.57 969.802 267.316C969.802 272.063 966.157 275.91 961.66 275.91Z" fill="white"/>
<path opacity="0.55" d="M961.66 218.918C957.162 218.918 953.517 215.273 953.517 210.777C953.517 206.28 957.162 202.635 961.66 202.635C966.157 202.635 969.802 206.28 969.802 210.777C969.802 215.273 966.157 218.918 961.66 218.918Z" fill="white"/>
<path opacity="0.55" d="M961.66 332.902C957.162 332.902 953.517 329.054 953.517 324.308C953.517 319.562 957.162 315.714 961.66 315.714C966.157 315.714 969.802 319.562 969.802 324.308C969.802 329.054 966.157 332.902 961.66 332.902Z" fill="white"/>
<path opacity="0.55" d="M961.66 190.873C957.162 190.873 953.517 187.025 953.517 182.279C953.517 177.532 957.162 173.685 961.66 173.685C966.157 173.685 969.802 177.532 969.802 182.279C969.802 187.025 966.157 190.873 961.66 190.873Z" fill="white"/>
<path opacity="0.55" d="M961.66 303.954C957.162 303.954 953.517 300.309 953.517 295.812C953.517 291.315 957.162 287.67 961.66 287.67C966.157 287.67 969.802 291.315 969.802 295.812C969.802 300.309 966.157 303.954 961.66 303.954Z" fill="white"/>
<path opacity="0.55" d="M961.66 247.867C957.162 247.867 953.517 244.019 953.517 239.273C953.517 234.526 957.162 230.679 961.66 230.679C966.157 230.679 969.802 234.526 969.802 239.273C969.802 244.019 966.157 247.867 961.66 247.867Z" fill="white"/>
<path opacity="0.55" d="M961.66 360.945C957.162 360.945 953.517 357.3 953.517 352.804C953.517 348.307 957.162 344.662 961.66 344.662C966.157 344.662 969.802 348.307 969.802 352.804C969.802 357.3 966.157 360.945 961.66 360.945Z" fill="white"/>
<path opacity="0.55" d="M933.612 161.927C929.115 161.927 925.469 158.282 925.469 153.785C925.469 149.289 929.115 145.643 933.612 145.643C938.109 145.643 941.755 149.289 941.755 153.785C941.755 158.282 938.109 161.927 933.612 161.927Z" fill="white"/>
<path opacity="0.55" d="M933.612 275.91C929.115 275.91 925.469 272.063 925.469 267.316C925.469 262.57 929.115 258.722 933.612 258.722C938.109 258.722 941.755 262.57 941.755 267.316C941.755 272.063 938.109 275.91 933.612 275.91Z" fill="white"/>
<path opacity="0.55" d="M933.612 218.918C929.115 218.918 925.469 215.273 925.469 210.777C925.469 206.28 929.115 202.635 933.612 202.635C938.109 202.635 941.755 206.28 941.755 210.777C941.755 215.273 938.109 218.918 933.612 218.918Z" fill="white"/>
<path opacity="0.55" d="M933.612 332.902C929.115 332.902 925.469 329.054 925.469 324.308C925.469 319.562 929.115 315.714 933.612 315.714C938.109 315.714 941.755 319.562 941.755 324.308C941.755 329.054 938.109 332.902 933.612 332.902Z" fill="white"/>
<path opacity="0.55" d="M933.612 190.873C929.115 190.873 925.469 187.025 925.469 182.279C925.469 177.532 929.115 173.685 933.612 173.685C938.109 173.685 941.755 177.532 941.755 182.279C941.755 187.025 938.109 190.873 933.612 190.873Z" fill="white"/>
<path opacity="0.55" d="M933.612 303.954C929.115 303.954 925.469 300.309 925.469 295.812C925.469 291.315 929.115 287.67 933.612 287.67C938.109 287.67 941.755 291.315 941.755 295.812C941.755 300.309 938.109 303.954 933.612 303.954Z" fill="white"/>
<path opacity="0.55" d="M933.612 247.867C929.115 247.867 925.469 244.019 925.469 239.273C925.469 234.526 929.115 230.679 933.612 230.679C938.109 230.679 941.755 234.526 941.755 239.273C941.755 244.019 938.109 247.867 933.612 247.867Z" fill="white"/>
<path opacity="0.55" d="M933.612 360.945C929.115 360.945 925.469 357.3 925.469 352.804C925.469 348.307 929.115 344.662 933.612 344.662C938.109 344.662 941.755 348.307 941.755 352.804C941.755 357.3 938.109 360.945 933.612 360.945Z" fill="white"/>
</g>
</g>
<defs>
<linearGradient id="paint0_linear_20_3962" x1="-94.9676" y1="-341.319" x2="700.503" y2="334.686" gradientUnits="userSpaceOnUse">
<stop stop-color="#5AE6F9"/>
<stop offset="1" stop-color="#58EAF9"/>
</linearGradient>
<linearGradient id="paint1_linear_20_3962" x1="-152.746" y1="33.42" x2="870.451" y2="294.717" gradientUnits="userSpaceOnUse">
<stop stop-color="#57EDF9"/>
<stop offset="0.140625" stop-color="#65BFFD"/>
</linearGradient>
<linearGradient id="paint2_linear_20_3962" x1="-385.552" y1="-354.028" x2="421.533" y2="306.936" gradientUnits="userSpaceOnUse">
<stop stop-color="#5AE6F9"/>
<stop offset="1" stop-color="#58EAF9"/>
</linearGradient>
<linearGradient id="paint3_linear_20_3962" x1="-333.575" y1="255.495" x2="-27.2907" y2="95.8732" gradientUnits="userSpaceOnUse">
<stop stop-color="#5BDEFA"/>
<stop offset="1" stop-color="#65BDFD"/>
</linearGradient>
<linearGradient id="paint4_linear_20_3962" x1="1275.73" y1="322.679" x2="2071.2" y2="998.684" gradientUnits="userSpaceOnUse">
<stop stop-color="#5AE6F9"/>
<stop offset="1" stop-color="#58EAF9"/>
</linearGradient>
<linearGradient id="paint5_linear_20_3962" x1="1384.42" y1="818.636" x2="2407.62" y2="1079.93" gradientUnits="userSpaceOnUse">
<stop stop-color="#57EDF9"/>
<stop offset="0.140625" stop-color="#65BFFD"/>
</linearGradient>
<linearGradient id="paint6_linear_20_3962" x1="1256.57" y1="537.029" x2="2063.65" y2="1197.99" gradientUnits="userSpaceOnUse">
<stop stop-color="#5AE6F9"/>
<stop offset="1" stop-color="#58EAF9"/>
</linearGradient>
<linearGradient id="paint7_linear_20_3962" x1="1003.64" y1="816.365" x2="1309.93" y2="656.744" gradientUnits="userSpaceOnUse">
<stop stop-color="#5BDEFA"/>
<stop offset="1" stop-color="#65BDFD"/>
</linearGradient>
<clipPath id="clip0_20_3962">
<rect width="1737.12" height="977" fill="white" transform="matrix(-1 0 0 1 1588.65 0)"/>
</clipPath>
</defs>
</svg>
