<svg width="10" height="18" viewBox="0 0 10 18" fill="none" xmlns="http://www.w3.org/2000/svg">
    <path d="M7.20806 0.700964C7.64936 0.263588 8.36166 0.266766 8.79904 0.708062C9.23641 1.14936 9.23323 1.86166 8.79194 2.29904L6.14748 4.92C5.07424 5.9837 4.33804 6.71577 3.83989 7.33606C3.35599 7.9386 3.18999 8.32563 3.14581 8.67224C3.11806 8.88989 3.11806 9.11011 3.14581 9.32776C3.18999 9.67437 3.35599 10.0614 3.83989 10.6639C4.33804 11.2842 5.07424 12.0163 6.14748 13.08L8.79194 15.701C9.23323 16.1383 9.23641 16.8506 8.79904 17.2919C8.36166 17.7332 7.64936 17.7364 7.20806 17.299L4.51596 14.6309C3.50201 13.6259 2.67329 12.8046 2.08558 12.0728C1.47444 11.3118 1.03204 10.5394 0.913863 9.61224C0.862045 9.2057 0.862045 8.7943 0.913863 8.38776C1.03204 7.46059 1.47444 6.68818 2.08558 5.92719C2.67329 5.19538 3.502 4.37406 4.51597 3.36914L7.20806 0.700964Z" fill="currentColor" />
</svg>