<svg width="10" height="18" viewBox="0 0 10 18" fill="none" xmlns="http://www.w3.org/2000/svg">
    <path d="M2.79194 0.700964C2.35064 0.263588 1.63834 0.266766 1.20096 0.708062C0.763588 1.14936 0.766766 1.86166 1.20806 2.29904L3.85252 4.92C4.92576 5.9837 5.66196 6.71577 6.16011 7.33606C6.64401 7.9386 6.81001 8.32563 6.85419 8.67224C6.88194 8.88989 6.88194 9.11011 6.85419 9.32776C6.81001 9.67437 6.64401 10.0614 6.16011 10.6639C5.66196 11.2842 4.92576 12.0163 3.85252 13.08L1.20806 15.701C0.766766 16.1383 0.763588 16.8506 1.20096 17.2919C1.63834 17.7332 2.35064 17.7364 2.79194 17.299L5.48404 14.6309C6.49799 13.6259 7.32671 12.8046 7.91442 12.0728C8.52556 11.3118 8.96796 10.5394 9.08614 9.61224C9.13795 9.2057 9.13795 8.7943 9.08614 8.38776C8.96796 7.46059 8.52556 6.68818 7.91442 5.92719C7.32671 5.19538 6.498 4.37406 5.48403 3.36914L2.79194 0.700964Z" fill="currentColor" />
</svg>