<svg width="12" height="11" viewBox="0 0 12 11" fill="none" xmlns="http://www.w3.org/2000/svg">
    <path d="M4.34055 3.20263L5.73463 0.937247C5.89954 0.669267 6.19167 0.506027 6.50633 0.506027C7.06167 0.506027 7.48634 1.00103 7.4019 1.54992L7.25 2.53728C7.08569 3.60532 7.91204 4.56853 8.99265 4.56853H9.42374C11.0094 4.56853 12.0407 6.2372 11.3316 7.65543L10.6137 9.09107C10.0844 10.1498 9.00231 10.8185 7.81864 10.8185H6C5.15757 10.8185 4.41246 10.4018 3.95953 9.76334C3.96563 9.69923 3.96875 9.63424 3.96875 9.56853V4.56853C3.96875 4.36165 3.93782 4.162 3.88034 3.97394C3.99111 3.77048 4.13858 3.53083 4.34055 3.20263Z" fill="currentColor" />
    <path d="M3.03125 9.56853C3.03125 10.1726 2.54156 10.6623 1.9375 10.6623C1.33344 10.6623 0.84375 10.1726 0.84375 9.56853V4.56853C0.84375 3.96447 1.33344 3.47478 1.9375 3.47478C2.54156 3.47478 3.03125 3.96447 3.03125 4.56853V9.56853Z" fill="currentColor" />
</svg>
    