<svg width="23" height="24" viewBox="0 0 23 24" fill="none" xmlns="http://www.w3.org/2000/svg">
    <path fill-rule="evenodd" clip-rule="evenodd" d="M3.5205 1.00335C3.52235 0.589137 3.18806 0.251856 2.77385 0.250008C2.35964 0.24816 2.02236 0.582445 2.02052 0.996654L2.01146 3.02568C2.00807 3.78057 2.00525 4.41015 2.06053 4.91635C2.11851 5.44728 2.2481 5.93661 2.57707 6.36169C2.64829 6.45372 2.72524 6.54101 2.80743 6.62306C2.88857 6.70408 2.97481 6.77998 3.06567 6.85029C3.49075 7.17926 3.98009 7.30886 4.51102 7.36684C5.0172 7.42211 5.64678 7.41929 6.40165 7.4159L8.43071 7.40685C8.84492 7.405 9.1792 7.06772 9.17735 6.65351C9.17551 6.2393 8.83823 5.90501 8.42402 5.90686L6.4383 5.91572C5.62888 5.91933 5.0852 5.92062 4.67386 5.8757C4.64292 5.87232 4.61332 5.86873 4.58498 5.86494C6.28058 3.9531 8.75331 2.75 11.5078 2.75C16.6164 2.75 20.7578 6.89137 20.7578 12C20.7578 12.4142 21.0936 12.75 21.5078 12.75C21.922 12.75 22.2578 12.4142 22.2578 12C22.2578 6.06294 17.4449 1.25 11.5078 1.25C8.35505 1.25 5.51875 2.60807 3.55336 4.76878L3.55166 4.75351C3.50674 4.34217 3.50803 3.79848 3.51164 2.98906L3.5205 1.00335Z" fill="currentColor" />
    <path d="M2.25781 12C2.25781 11.5858 1.92203 11.25 1.50781 11.25C1.0936 11.25 0.757812 11.5858 0.757812 12C0.757812 17.9371 5.57075 22.75 11.5078 22.75C14.6255 22.75 17.4338 21.4219 19.3964 19.303C19.4281 19.6969 19.4268 20.2078 19.4235 20.9305L19.4147 22.9162C19.4128 23.3305 19.7471 23.6677 20.1613 23.6696C20.5755 23.6714 20.9128 23.3371 20.9147 22.9229L20.9237 20.8939C20.9271 20.139 20.9299 19.5094 20.8747 19.0032C20.8167 18.4723 20.6871 17.983 20.3581 17.5579C20.2964 17.4781 20.2303 17.4019 20.1603 17.3295C20.0698 17.2361 19.9726 17.1491 19.8695 17.0693C19.4444 16.7403 18.9551 16.6107 18.4242 16.5528C17.918 16.4975 17.2884 16.5003 16.5336 16.5037L14.5045 16.5127C14.0903 16.5146 13.756 16.8519 13.7578 17.2661C13.7597 17.6803 14.097 18.0146 14.5112 18.0127L16.4969 18.0039C17.3063 18.0003 17.85 17.999 18.2613 18.0439C18.3444 18.053 18.4178 18.0636 18.483 18.0755C16.7862 20.0219 14.2908 21.25 11.5078 21.25C6.39918 21.25 2.25781 17.1086 2.25781 12Z" fill="currentColor" />
</svg>
    