<svg width="20" height="20" viewBox="0 0 20 20" fill="none" xmlns="http://www.w3.org/2000/svg">
    <path fill-rule="evenodd" clip-rule="evenodd" d="M20 10C20 4.47715 15.5228 6.78525e-07 10 4.37114e-07C4.47715 1.95703e-07 6.78525e-07 4.47715 4.37114e-07 10C1.95703e-07 15.5228 4.47715 20 10 20C15.5228 20 20 15.5228 20 10ZM8.52796 4.46731C8.23376 4.17573 7.75889 4.17784 7.46731 4.47204C7.17573 4.76624 7.17784 5.24111 7.47204 5.53269L9.23501 7.28C9.9505 7.98914 10.4413 8.47718 10.7734 8.89071C11.096 9.2924 11.2067 9.55042 11.2361 9.7815C11.2546 9.92659 11.2546 10.0734 11.2361 10.2185C11.2067 10.4496 11.096 10.7076 10.7734 11.1093C10.4413 11.5228 9.95051 12.0109 9.23501 12.72L7.47204 14.4673C7.17784 14.7589 7.17573 15.2338 7.46731 15.528C7.75889 15.8222 8.23376 15.8243 8.52796 15.5327L10.3227 13.7539C10.9987 13.084 11.5511 12.5364 11.9429 12.0485C12.3504 11.5412 12.6453 11.0263 12.7241 10.4082C12.7586 10.1371 12.7586 9.86287 12.7241 9.59184C12.6453 8.97372 12.3504 8.45878 11.9429 7.95146C11.5511 7.46359 10.9987 6.91605 10.3227 6.24611L8.52796 4.46731Z" fill="currentColor" />
</svg>
    