<svg width="21" height="20" viewBox="0 0 21 20" fill="none" xmlns="http://www.w3.org/2000/svg">
    <path fill-rule="evenodd" clip-rule="evenodd" d="M0.0961528 10C0.0961526 15.5228 4.7341 20 10.4553 20C16.1765 20 20.8145 15.5228 20.8145 10C20.8145 4.47715 16.1765 -1.95703e-07 10.4553 -4.37114e-07C4.7341 -6.78525e-07 0.0961531 4.47715 0.0961528 10ZM11.9802 15.5327C12.285 15.8243 12.7769 15.8222 13.079 15.528C13.381 15.2338 13.3788 14.7589 13.0741 14.4673L11.2478 12.72C10.5066 12.0109 9.99815 11.5228 9.65412 11.1093C9.31993 10.7076 9.20529 10.4496 9.17478 10.2185C9.15562 10.0734 9.15562 9.92659 9.17478 9.7815C9.20529 9.55042 9.31993 9.2924 9.65412 8.89071C9.99815 8.47718 10.5066 7.98914 11.2478 7.28L13.0741 5.53269C13.3788 5.24111 13.381 4.76624 13.079 4.47204C12.7769 4.17784 12.285 4.17573 11.9802 4.46731L10.121 6.2461C9.42076 6.91605 8.84845 7.46359 8.44258 7.95146C8.02052 8.45878 7.71499 8.97372 7.63337 9.59184C7.59759 9.86286 7.59759 10.1371 7.63337 10.4082C7.71499 11.0263 8.02052 11.5412 8.44258 12.0485C8.84845 12.5364 9.42077 13.084 10.121 13.7539L11.9802 15.5327Z" fill="currentColor" />
</svg>
    