<svg width="16" height="16" viewBox="0 0 16 16" fill="none" xmlns="http://www.w3.org/2000/svg">
    <circle cx="8" cy="7.50602" r="7.5" fill="currentColor" />
    <path d="M8.39062 3.89239L8.32848 8.46625H7.6076L7.54545 3.89239H8.39062ZM7.96804 10.3057C7.81475 10.3057 7.68321 10.2508 7.57342 10.1411C7.46363 10.0313 7.40874 9.89973 7.40874 9.74644C7.40874 9.59314 7.46363 9.4616 7.57342 9.35182C7.68321 9.24203 7.81475 9.18713 7.96804 9.18713C8.12133 9.18713 8.25287 9.24203 8.36266 9.35182C8.47245 9.4616 8.52734 9.59314 8.52734 9.74644C8.52734 9.84794 8.50145 9.94116 8.44966 10.0261C8.39995 10.111 8.33262 10.1794 8.24769 10.2312C8.16483 10.2809 8.07161 10.3057 7.96804 10.3057Z" fill="white" />
</svg>
    