<svg width="22" height="22" viewBox="0 0 22 22" fill="none" xmlns="http://www.w3.org/2000/svg">
<path d="M8.50775 11C8.50775 11.6382 8.76127 12.2502 9.21253 12.7015C9.66379 13.1527 10.2758 13.4062 10.914 13.4062C11.5522 13.4062 12.1642 13.1527 12.6155 12.7015C13.0667 12.2502 13.3203 11.6382 13.3203 11C13.3203 10.3618 13.0667 9.74978 12.6155 9.29852C12.1642 8.84727 11.5522 8.59375 10.914 8.59375C10.2758 8.59375 9.66379 8.84727 9.21253 9.29852C8.76127 9.74978 8.50775 10.3618 8.50775 11V11ZM20.2425 10.4457C18.2058 6.15527 15.1271 3.99609 10.9999 3.99609C6.87064 3.99609 3.79408 6.15527 1.75736 10.4479C1.67567 10.6208 1.6333 10.8098 1.6333 11.0011C1.6333 11.1924 1.67567 11.3813 1.75736 11.5543C3.79408 15.8447 6.87279 18.0039 10.9999 18.0039C15.1292 18.0039 18.2058 15.8447 20.2425 11.5521C20.4079 11.2041 20.4079 10.8002 20.2425 10.4457V10.4457ZM10.914 14.7812C8.82572 14.7812 7.13275 13.0883 7.13275 11C7.13275 8.91172 8.82572 7.21875 10.914 7.21875C13.0023 7.21875 14.6953 8.91172 14.6953 11C14.6953 13.0883 13.0023 14.7812 10.914 14.7812Z" fill="#7D7D7D"/>
</svg>
