<svg width="22" height="22" viewBox="0 0 22 22" fill="none" xmlns="http://www.w3.org/2000/svg">
<path d="M2.13871 5.87535C1.83325 7.012 1.83325 8.58008 1.83325 11C1.83325 14.4373 1.83325 16.1559 2.70859 17.3607C2.99129 17.7498 3.33347 18.092 3.72257 18.3747C4.92737 19.25 6.646 19.25 10.0833 19.25H11.9166C15.3538 19.25 17.0725 19.25 18.2773 18.3747C18.6664 18.092 19.0085 17.7498 19.2912 17.3607C20.1666 16.1559 20.1666 14.4373 20.1666 11C20.1666 8.57201 20.1666 7.00156 19.8581 5.864L17.9305 7.79154C16.4343 9.2878 15.2617 10.4604 14.2238 11.2523C13.1615 12.0628 12.1598 12.539 10.9998 12.539C9.8398 12.539 8.83812 12.0628 7.77577 11.2523C6.73786 10.4604 5.56529 9.28779 4.06904 7.79152L2.27679 5.99927L2.13871 5.87535Z" fill="currentColor"/>
<path d="M2.74992 4.58333L2.84969 4.6659L3.2228 5.00074L5.00412 6.78206C6.54564 8.32358 7.65391 9.42978 8.60982 10.1591C9.54986 10.8763 10.2613 11.164 10.9998 11.164C11.7383 11.164 12.4497 10.8763 13.3898 10.1591C14.3457 9.42978 15.4539 8.32358 16.9955 6.78206L19.111 4.66648L19.2262 4.55197C18.9435 4.16287 18.6664 3.90804 18.2773 3.62534C17.0725 2.75 15.3538 2.75 11.9166 2.75H10.0833C6.646 2.75 4.92737 2.75 3.72257 3.62534C3.33347 3.90804 3.03262 4.19423 2.74992 4.58333Z" fill="currentColor"/>
</svg>
