<svg width="18" height="18" viewBox="0 0 18 18" fill="none" xmlns="http://www.w3.org/2000/svg">
    <path d="M12.9015 0C15.9507 0 18 2.1402 18 5.3253V12.6756C18 15.8607 15.9507 18 12.9006 18H5.0994C2.0493 18 0 15.8607 0 12.6756V5.3253C0 2.1402 2.0493 0 5.0994 0H12.9015ZM6.1569 6.6591C4.8663 6.6591 3.816 7.7094 3.816 9C3.816 10.2915 4.8663 11.3418 6.1569 11.3418C7.2117 11.3418 8.0955 10.6362 8.3871 9.675H10.2879V10.6668C10.2879 11.0394 10.5903 11.3418 10.9629 11.3418C11.3355 11.3418 11.6379 11.0394 11.6379 10.6668V9.675H12.8349V10.6668C12.8349 11.0394 13.1373 11.3418 13.5099 11.3418C13.8825 11.3418 14.1849 11.0394 14.1849 10.6668V9C14.1849 8.6274 13.8825 8.325 13.5099 8.325H8.3871C8.0955 7.3647 7.2117 6.6591 6.1569 6.6591ZM6.15699 8.00901C6.70329 8.00901 7.14879 8.45361 7.14879 9.00081C7.14879 9.54711 6.70329 9.99171 6.15699 9.99171C5.61069 9.99171 5.16519 9.54711 5.16519 9.00081C5.16519 8.45361 5.61069 8.00901 6.15699 8.00901Z" fill="currentColor" />
</svg>