<svg width="18" height="18" viewBox="0 0 18 18" fill="none" xmlns="http://www.w3.org/2000/svg">
    <path fill-rule="evenodd" clip-rule="evenodd" d="M9.03771 0.875C10.5682 0.874993 11.7678 0.874988 12.7196 0.978107C13.6909 1.08334 14.4779 1.30194 15.1498 1.79013C15.5566 2.08567 15.9143 2.44341 16.2099 2.8502C16.6981 3.52213 16.9167 4.30912 17.0219 5.2804C17.125 6.23216 17.125 7.4318 17.125 8.96221V9.03773C17.125 10.5681 17.125 11.7678 17.0219 12.7196C16.9167 13.6909 16.6981 14.4779 16.2099 15.1498C15.9286 15.537 15.591 15.8797 15.2083 16.1667C15.2001 16.1728 15.1919 16.1789 15.1837 16.1851C15.1748 16.1916 15.166 16.1981 15.1572 16.2045L15.1498 16.2099C14.4779 16.6981 13.6909 16.9167 12.7196 17.0219C11.7678 17.125 10.5682 17.125 9.03779 17.125H8.96227C7.43187 17.125 6.23216 17.125 5.2804 17.0219C4.30912 16.9167 3.52213 16.6981 2.8502 16.2099C2.83168 16.1964 2.81327 16.1828 2.79497 16.1691C2.41098 15.8817 2.07223 15.5381 1.79013 15.1498C1.30194 14.4779 1.08334 13.6909 0.978107 12.7196C0.874988 11.7678 0.874993 10.5682 0.875 9.03771V8.96229C0.874993 7.43185 0.874988 6.23218 0.978107 5.2804C1.08334 4.30912 1.30194 3.52213 1.79013 2.8502C2.08568 2.44341 2.44341 2.08568 2.8502 1.79013C3.52213 1.30194 4.30912 1.08334 5.2804 0.978107C6.23218 0.874988 7.43185 0.874993 8.96229 0.875H9.03771ZM14.7499 14.9224C14.4118 13.4398 13.0851 12.3333 11.5 12.3333H6.5C4.91489 12.3333 3.58819 13.4398 3.25006 14.9224C3.34345 15.0096 3.4416 15.0918 3.54411 15.1685C3.55765 15.1786 3.57125 15.1887 3.58493 15.1986C4.00826 15.5062 4.55011 15.6855 5.41504 15.7792C6.29166 15.8741 7.42369 15.875 9 15.875C10.5763 15.875 11.7083 15.8741 12.585 15.7792C13.4499 15.6855 13.9917 15.5062 14.4151 15.1986C14.4296 15.1881 14.444 15.1774 14.4583 15.1667C14.56 15.0904 14.6573 15.0089 14.7499 14.9224ZM9 2.54167C6.81387 2.54167 5.04167 4.31387 5.04167 6.5C5.04167 8.68613 6.81387 10.4583 9 10.4583C11.1861 10.4583 12.9583 8.68613 12.9583 6.5C12.9583 4.31387 11.1861 2.54167 9 2.54167Z" fill="#0092CE" />
</svg>
    