<svg width="18" height="18" viewBox="0 0 18 18" fill="none" xmlns="http://www.w3.org/2000/svg">
    <path d="M4.64583 6.25C4.64583 3.84526 6.59526 1.89583 9 1.89583C11.4047 1.89583 13.3542 3.84526 13.3542 6.25C13.3542 8.65474 11.4047 10.6042 9 10.6042C6.59526 10.6042 4.64583 8.65474 4.64583 6.25Z" fill="currentColor" />
    <path fill-rule="evenodd" clip-rule="evenodd" d="M8.95852 0.0625001H9.04148C10.725 0.0624926 12.0446 0.0624867 13.0916 0.175918C14.16 0.291672 15.0257 0.53213 15.7648 1.06914C16.2122 1.39424 16.6058 1.78775 16.9309 2.23522C17.4679 2.97435 17.7083 3.84003 17.8241 4.90844C17.9375 5.95538 17.9375 7.27498 17.9375 8.95843V9.0415C17.9375 10.7249 17.9375 12.0446 17.8241 13.0916C17.7083 14.16 17.4679 15.0257 16.9309 15.7648C16.6214 16.1907 16.2501 16.5677 15.8292 16.8833C15.8078 16.8993 15.7864 16.9152 15.7648 16.9309C15.0257 17.4679 14.16 17.7083 13.0916 17.8241C12.0446 17.9375 10.725 17.9375 9.04157 17.9375H8.9585C7.27505 17.9375 5.95538 17.9375 4.90844 17.8241C3.84003 17.7083 2.97435 17.4679 2.23522 16.9309C2.21484 16.9161 2.19459 16.9011 2.17446 16.8861C1.75208 16.5698 1.37945 16.1919 1.06914 15.7648C0.53213 15.0257 0.291672 14.16 0.175918 13.0916C0.0624867 12.0446 0.0624926 10.725 0.0625001 9.04148V8.95852C0.0624926 7.27503 0.0624867 5.95539 0.175918 4.90844C0.291672 3.84003 0.53213 2.97435 1.06914 2.23522C1.39424 1.78775 1.78775 1.39424 2.23522 1.06914C2.97435 0.53213 3.84003 0.291672 4.90844 0.175918C5.9554 0.0624867 7.27503 0.0624926 8.95852 0.0625001ZM5.05654 1.54292C4.10512 1.646 3.50909 1.84321 3.04342 2.18154C2.71268 2.42183 2.42183 2.71268 2.18154 3.04342C1.84321 3.50909 1.646 4.10512 1.54292 5.05654C1.43844 6.02083 1.4375 7.26606 1.4375 9C1.4375 10.7339 1.43844 11.9792 1.54292 12.9435C1.64157 13.8541 1.82646 14.4391 2.13877 14.8959C2.73259 13.1973 4.34892 11.9792 6.25 11.9792H11.75C13.6511 11.9792 15.2674 13.1973 15.8612 14.8959C16.1735 14.4391 16.3584 13.8541 16.4571 12.9435C16.5616 11.9792 16.5625 10.7339 16.5625 9C16.5625 7.26606 16.5616 6.02083 16.4571 5.05654C16.354 4.10512 16.1568 3.50909 15.8185 3.04342C15.5782 2.71269 15.2873 2.42183 14.9566 2.18154C14.4909 1.84321 13.8949 1.646 12.9435 1.54292C11.9792 1.43844 10.7339 1.4375 9 1.4375C7.26606 1.4375 6.02083 1.43844 5.05654 1.54292Z" fill="currentColor" />
</svg>