<svg width="16" height="16" viewBox="0 0 16 16" fill="none" xmlns="http://www.w3.org/2000/svg">
    <path d="M2.16667 3C2.16667 2.77899 2.25446 2.56702 2.41074 2.41074C2.56702 2.25446 2.77899 2.16667 3 2.16667H4.66667C4.88768 2.16667 5.09964 2.07887 5.25592 1.92259C5.4122 1.76631 5.5 1.55435 5.5 1.33333C5.5 1.11232 5.4122 0.900358 5.25592 0.744078C5.09964 0.587797 4.88768 0.5 4.66667 0.5H3C2.33696 0.5 1.70107 0.763392 1.23223 1.23223C0.763392 1.70107 0.5 2.33696 0.5 3V4.66667C0.5 4.88768 0.587797 5.09964 0.744078 5.25592C0.900358 5.4122 1.11232 5.5 1.33333 5.5C1.55435 5.5 1.76631 5.4122 1.92259 5.25592C2.07887 5.09964 2.16667 4.88768 2.16667 4.66667V3ZM2.16667 13C2.16667 13.221 2.25446 13.433 2.41074 13.5893C2.56702 13.7455 2.77899 13.8333 3 13.8333H4.66667C4.88768 13.8333 5.09964 13.9211 5.25592 14.0774C5.4122 14.2337 5.5 14.4457 5.5 14.6667C5.5 14.8877 5.4122 15.0996 5.25592 15.2559C5.09964 15.4122 4.88768 15.5 4.66667 15.5H3C2.33696 15.5 1.70107 15.2366 1.23223 14.7678C0.763392 14.2989 0.5 13.663 0.5 13V11.3333C0.5 11.1123 0.587797 10.9004 0.744078 10.7441C0.900358 10.5878 1.11232 10.5 1.33333 10.5C1.55435 10.5 1.76631 10.5878 1.92259 10.7441C2.07887 10.9004 2.16667 11.1123 2.16667 11.3333V13ZM13 2.16667C13.221 2.16667 13.433 2.25446 13.5893 2.41074C13.7455 2.56702 13.8333 2.77899 13.8333 3V4.66667C13.8333 4.88768 13.9211 5.09964 14.0774 5.25592C14.2337 5.4122 14.4457 5.5 14.6667 5.5C14.8877 5.5 15.0996 5.4122 15.2559 5.25592C15.4122 5.09964 15.5 4.88768 15.5 4.66667V3C15.5 2.33696 15.2366 1.70107 14.7678 1.23223C14.2989 0.763392 13.663 0.5 13 0.5H11.3333C11.1123 0.5 10.9004 0.587797 10.7441 0.744078C10.5878 0.900358 10.5 1.11232 10.5 1.33333C10.5 1.55435 10.5878 1.76631 10.7441 1.92259C10.9004 2.07887 11.1123 2.16667 11.3333 2.16667H13ZM13.8333 13C13.8333 13.221 13.7455 13.433 13.5893 13.5893C13.433 13.7455 13.221 13.8333 13 13.8333H11.3333C11.1123 13.8333 10.9004 13.9211 10.7441 14.0774C10.5878 14.2337 10.5 14.4457 10.5 14.6667C10.5 14.8877 10.5878 15.0996 10.7441 15.2559C10.9004 15.4122 11.1123 15.5 11.3333 15.5H13C13.663 15.5 14.2989 15.2366 14.7678 14.7678C15.2366 14.2989 15.5 13.663 15.5 13V11.3333C15.5 11.1123 15.4122 10.9004 15.2559 10.7441C15.0996 10.5878 14.8877 10.5 14.6667 10.5C14.4457 10.5 14.2337 10.5878 14.0774 10.7441C13.9211 10.9004 13.8333 11.1123 13.8333 11.3333V13Z" fill="#D1D1D1" />
</svg>
    