<svg width="17" height="10" viewBox="0 0 17 10" fill="none" xmlns="http://www.w3.org/2000/svg">
    <path d="M5.22517 0.469879C2.71585 0.469879 0.681641 2.50409 0.681641 5.01341C0.681641 7.52273 2.71585 9.55693 5.22517 9.55693C5.55247 9.55693 5.8178 9.2916 5.8178 8.9643C5.8178 8.637 5.55247 8.37167 5.22517 8.37167C3.37045 8.37167 1.86691 6.86812 1.86691 5.01341C1.86691 3.15869 3.37045 1.65515 5.22517 1.65515C5.55247 1.65515 5.8178 1.38982 5.8178 1.06251C5.8178 0.73521 5.55247 0.469879 5.22517 0.469879Z" fill="#D9D9D9" />
    <path d="M11.5466 0.469879C11.2193 0.469879 10.954 0.73521 10.954 1.06251C10.954 1.38982 11.2193 1.65515 11.5466 1.65515C13.4013 1.65515 14.9049 3.15869 14.9049 5.01341C14.9049 6.86812 13.4013 8.37167 11.5466 8.37167C11.2193 8.37167 10.954 8.637 10.954 8.9643C10.954 9.2916 11.2193 9.55693 11.5466 9.55693C14.0559 9.55693 16.0901 7.52273 16.0901 5.01341C16.0901 2.50409 14.0559 0.469879 11.5466 0.469879Z" fill="#D9D9D9" />
    <path d="M5.22517 4.42077C4.89786 4.42077 4.63253 4.6861 4.63253 5.01341C4.63253 5.34071 4.89786 5.60604 5.22517 5.60604H11.5466C11.8739 5.60604 12.1392 5.34071 12.1392 5.01341C12.1392 4.6861 11.8739 4.42077 11.5466 4.42077H5.22517Z" fill="#D9D9D9" />
    <path d="M5.22517 0.469879C2.71585 0.469879 0.681641 2.50409 0.681641 5.01341C0.681641 7.52273 2.71585 9.55693 5.22517 9.55693C5.55247 9.55693 5.8178 9.2916 5.8178 8.9643C5.8178 8.637 5.55247 8.37167 5.22517 8.37167C3.37045 8.37167 1.86691 6.86812 1.86691 5.01341C1.86691 3.15869 3.37045 1.65515 5.22517 1.65515C5.55247 1.65515 5.8178 1.38982 5.8178 1.06251C5.8178 0.73521 5.55247 0.469879 5.22517 0.469879Z" stroke="#D9D9D9" />
    <path d="M11.5466 0.469879C11.2193 0.469879 10.954 0.73521 10.954 1.06251C10.954 1.38982 11.2193 1.65515 11.5466 1.65515C13.4013 1.65515 14.9049 3.15869 14.9049 5.01341C14.9049 6.86812 13.4013 8.37167 11.5466 8.37167C11.2193 8.37167 10.954 8.637 10.954 8.9643C10.954 9.2916 11.2193 9.55693 11.5466 9.55693C14.0559 9.55693 16.0901 7.52273 16.0901 5.01341C16.0901 2.50409 14.0559 0.469879 11.5466 0.469879Z" stroke="#D9D9D9" />
    <path d="M5.22517 4.42077C4.89786 4.42077 4.63253 4.6861 4.63253 5.01341C4.63253 5.34071 4.89786 5.60604 5.22517 5.60604H11.5466C11.8739 5.60604 12.1392 5.34071 12.1392 5.01341C12.1392 4.6861 11.8739 4.42077 11.5466 4.42077H5.22517Z" stroke="#D9D9D9" />
</svg>
    