<svg width="22" height="20" viewBox="0 0 22 20" fill="none" xmlns="http://www.w3.org/2000/svg">
    <path d="M5 18.3333H16.6667V15H5V18.3333ZM5 10H16.6667V5H14.5833C14.2361 5 13.941 4.87847 13.6979 4.63542C13.4549 4.39236 13.3333 4.09722 13.3333 3.75V1.66667H5V10ZM20 10.8333C20 10.6076 19.9175 10.4123 19.7526 10.2474C19.5877 10.0825 19.3924 10 19.1667 10C18.941 10 18.7457 10.0825 18.5807 10.2474C18.4158 10.4123 18.3333 10.6076 18.3333 10.8333C18.3333 11.059 18.4158 11.2543 18.5807 11.4193C18.7457 11.5842 18.941 11.6667 19.1667 11.6667C19.3924 11.6667 19.5877 11.5842 19.7526 11.4193C19.9175 11.2543 20 11.059 20 10.8333ZM21.6667 10.8333V16.25C21.6667 16.3628 21.6254 16.4605 21.543 16.543C21.4605 16.6254 21.3628 16.6667 21.25 16.6667H18.3333V18.75C18.3333 19.0972 18.2118 19.3924 17.9688 19.6354C17.7257 19.8785 17.4306 20 17.0833 20H4.58333C4.23611 20 3.94097 19.8785 3.69792 19.6354C3.45486 19.3924 3.33333 19.0972 3.33333 18.75V16.6667H0.416667C0.303819 16.6667 0.206163 16.6254 0.123698 16.543C0.0412326 16.4605 0 16.3628 0 16.25V10.8333C0 10.1476 0.245226 9.55946 0.735677 9.06901C1.22613 8.57856 1.81424 8.33333 2.5 8.33333H3.33333V1.25C3.33333 0.902778 3.45486 0.607639 3.69792 0.364583C3.94097 0.121528 4.23611 0 4.58333 0H13.3333C13.6806 0 14.0625 0.0868056 14.4792 0.260417C14.8958 0.434028 15.2257 0.642361 15.4688 0.885417L17.4479 2.86458C17.691 3.10764 17.8993 3.4375 18.0729 3.85417C18.2465 4.27083 18.3333 4.65278 18.3333 5V8.33333H19.1667C19.8524 8.33333 20.4405 8.57856 20.931 9.06901C21.4214 9.55946 21.6667 10.1476 21.6667 10.8333Z" fill="#D1D1D1" />
</svg>
    