<svg width="18" height="20" viewBox="0 0 18 20" fill="none" xmlns="http://www.w3.org/2000/svg">
    <path d="M7.12435 10C7.12435 8.96449 7.96382 8.12502 8.99935 8.12502C10.0349 8.12502 10.8744 8.96449 10.8744 10C10.8744 11.0356 10.0349 11.875 8.99935 11.875C7.96382 11.875 7.12435 11.0356 7.12435 10Z" fill="#D1D1D1" />
    <path fill-rule="evenodd" clip-rule="evenodd" d="M6.15371 2.69359C6.97072 -0.169225 11.0279 -0.169226 11.8449 2.69359C12.098 3.5806 13.0093 4.10673 13.9041 3.88245C16.7918 3.15859 18.8204 6.67221 16.7497 8.81117C16.1081 9.47389 16.1081 10.5262 16.7497 11.1889C18.8204 13.3278 16.7918 16.8415 13.9041 16.1176C13.0093 15.8933 12.098 16.4195 11.8449 17.3065C11.0279 20.1693 6.97072 20.1693 6.15371 17.3065C5.90057 16.4195 4.98928 15.8933 4.09454 16.1176C1.20677 16.8415 -0.821819 13.3278 1.24895 11.1889C1.89055 10.5262 1.89055 9.47389 1.24895 8.81117C-0.821818 6.67221 1.20677 3.15859 4.09454 3.88245C4.98928 4.10673 5.90057 3.5806 6.15371 2.69359ZM8.99935 6.87502C7.27346 6.87502 5.87435 8.27413 5.87435 10C5.87435 11.7259 7.27346 13.125 8.99935 13.125C10.7252 13.125 12.1244 11.7259 12.1244 10C12.1244 8.27413 10.7252 6.87502 8.99935 6.87502Z" fill="#D1D1D1" />
</svg>
    