<svg width="16" height="16" viewBox="0 0 16 16" fill="none" xmlns="http://www.w3.org/2000/svg">
    <path d="M11.8817 1.16806C12.5533 1.16506 13.0147 1.16376 13.3662 1.20214C13.4804 1.21462 13.5759 1.23069 13.657 1.25012L6.57133 8.33577C6.37606 8.53103 6.37606 8.84761 6.57133 9.04287C6.76659 9.23814 7.08317 9.23814 7.27843 9.04287L14.3641 1.95723C14.3835 2.0383 14.3996 2.13377 14.4121 2.248C14.4504 2.59949 14.4491 3.06092 14.4461 3.7325L14.4388 5.38726C14.4375 5.6634 14.6604 5.88825 14.9365 5.88948C15.2127 5.89072 15.4375 5.66786 15.4388 5.39172L15.4463 3.70716C15.4491 3.07268 15.4514 2.55412 15.4061 2.13944C15.3591 1.70822 15.2553 1.32644 15.0011 0.997918C14.9461 0.926802 14.8867 0.85928 14.8233 0.79572C14.7584 0.730542 14.6892 0.669537 14.6163 0.613099C14.2878 0.358858 13.906 0.255145 13.4748 0.208053C13.0601 0.162767 12.5415 0.16509 11.9071 0.167933L10.2225 0.175449C9.94634 0.176681 9.72348 0.401535 9.72472 0.677674C9.72595 0.953814 9.9508 1.17667 10.2269 1.17544L11.8817 1.16806Z" fill="#D9D9D9" />
    <path d="M8.5737 2.29466C8.16994 2.28982 7.72522 2.28982 7.23654 2.28982H7.20421C5.97985 2.28982 5.02012 2.28981 4.25869 2.37231C3.48167 2.45649 2.85208 2.63137 2.31453 3.02192C1.9891 3.25836 1.70292 3.54455 1.46648 3.86998C1.07592 4.40753 0.901046 5.03712 0.81686 5.81414C0.734365 6.57556 0.73437 7.5353 0.734375 8.75966V8.81999C0.73437 10.0443 0.734365 11.0041 0.81686 11.7655C0.901046 12.5425 1.07592 13.1721 1.46648 13.7097C1.70291 14.0351 1.9891 14.3213 2.31453 14.5577C2.85208 14.9483 3.48167 15.1232 4.25869 15.2073C5.0201 15.2898 5.97982 15.2898 7.20414 15.2898H7.26456C8.48888 15.2898 9.44865 15.2898 10.2101 15.2073C10.9871 15.1232 11.6167 14.9483 12.1542 14.5577C12.4796 14.3213 12.7658 14.0351 13.0023 13.7097C13.3928 13.1721 13.5677 12.5425 13.6519 11.7655C13.7344 11.0041 13.7344 10.0444 13.7344 8.82005V8.78752C13.7344 8.29889 13.7344 7.85421 13.7295 7.4505C13.7262 7.17437 13.4997 6.95321 13.2236 6.95652C12.9475 6.95983 12.7263 7.18636 12.7296 7.46248C12.7344 7.85966 12.7344 8.2987 12.7344 8.78982C12.7344 10.0509 12.7337 10.9565 12.6577 11.6578C12.5827 12.3497 12.4393 12.7832 12.1933 13.1219C12.0185 13.3624 11.807 13.5739 11.5664 13.7487C11.2278 13.9948 10.7943 14.1382 10.1023 14.2132C9.40105 14.2891 8.49542 14.2898 7.23438 14.2898C5.97333 14.2898 5.0677 14.2891 4.36641 14.2132C3.67446 14.1382 3.24099 13.9948 2.90232 13.7487C2.66178 13.5739 2.45025 13.3624 2.27549 13.1219C2.02944 12.7832 1.88601 12.3497 1.81104 11.6578C1.73506 10.9565 1.73438 10.0509 1.73438 8.78982C1.73438 7.52877 1.73506 6.62315 1.81104 5.92185C1.88601 5.22991 2.02944 4.79643 2.27549 4.45776C2.45025 4.21723 2.66178 4.0057 2.90232 3.83094C3.24099 3.58488 3.67446 3.44146 4.36641 3.36649C5.0677 3.29051 5.97333 3.28982 7.23438 3.28982C7.7255 3.28982 8.16454 3.28983 8.56172 3.29459C8.83784 3.2979 9.06436 3.07674 9.06767 2.80062C9.07098 2.5245 8.84982 2.29797 8.5737 2.29466Z" fill="#D9D9D9" />
    <path d="M11.8817 1.16806C12.5533 1.16506 13.0147 1.16376 13.3662 1.20214C13.4804 1.21462 13.5759 1.23069 13.657 1.25012L6.57133 8.33577C6.37606 8.53103 6.37606 8.84761 6.57133 9.04287C6.76659 9.23814 7.08317 9.23814 7.27843 9.04287L14.3641 1.95723C14.3835 2.0383 14.3996 2.13377 14.4121 2.248C14.4504 2.59949 14.4491 3.06092 14.4461 3.7325L14.4388 5.38726C14.4375 5.6634 14.6604 5.88825 14.9365 5.88948C15.2127 5.89072 15.4375 5.66786 15.4388 5.39172L15.4463 3.70716C15.4491 3.07268 15.4514 2.55412 15.4061 2.13944C15.3591 1.70822 15.2553 1.32644 15.0011 0.997918C14.9461 0.926802 14.8867 0.85928 14.8233 0.79572C14.7584 0.730542 14.6892 0.669537 14.6163 0.613099C14.2878 0.358858 13.906 0.255145 13.4748 0.208053C13.0601 0.162767 12.5415 0.16509 11.9071 0.167933L10.2225 0.175449C9.94634 0.176681 9.72348 0.401535 9.72472 0.677674C9.72595 0.953814 9.9508 1.17667 10.2269 1.17544L11.8817 1.16806Z" stroke="#D9D9D9" />
    <path d="M8.5737 2.29466C8.16994 2.28982 7.72522 2.28982 7.23654 2.28982H7.20421C5.97985 2.28982 5.02012 2.28981 4.25869 2.37231C3.48167 2.45649 2.85208 2.63137 2.31453 3.02192C1.9891 3.25836 1.70292 3.54455 1.46648 3.86998C1.07592 4.40753 0.901046 5.03712 0.81686 5.81414C0.734365 6.57556 0.73437 7.5353 0.734375 8.75966V8.81999C0.73437 10.0443 0.734365 11.0041 0.81686 11.7655C0.901046 12.5425 1.07592 13.1721 1.46648 13.7097C1.70291 14.0351 1.9891 14.3213 2.31453 14.5577C2.85208 14.9483 3.48167 15.1232 4.25869 15.2073C5.0201 15.2898 5.97982 15.2898 7.20414 15.2898H7.26456C8.48888 15.2898 9.44865 15.2898 10.2101 15.2073C10.9871 15.1232 11.6167 14.9483 12.1542 14.5577C12.4796 14.3213 12.7658 14.0351 13.0023 13.7097C13.3928 13.1721 13.5677 12.5425 13.6519 11.7655C13.7344 11.0041 13.7344 10.0444 13.7344 8.82005V8.78752C13.7344 8.29889 13.7344 7.85421 13.7295 7.4505C13.7262 7.17437 13.4997 6.95321 13.2236 6.95652C12.9475 6.95983 12.7263 7.18636 12.7296 7.46248C12.7344 7.85966 12.7344 8.2987 12.7344 8.78982C12.7344 10.0509 12.7337 10.9565 12.6577 11.6578C12.5827 12.3497 12.4393 12.7832 12.1933 13.1219C12.0185 13.3624 11.807 13.5739 11.5664 13.7487C11.2278 13.9948 10.7943 14.1382 10.1023 14.2132C9.40105 14.2891 8.49542 14.2898 7.23438 14.2898C5.97333 14.2898 5.0677 14.2891 4.36641 14.2132C3.67446 14.1382 3.24099 13.9948 2.90232 13.7487C2.66178 13.5739 2.45025 13.3624 2.27549 13.1219C2.02944 12.7832 1.88601 12.3497 1.81104 11.6578C1.73506 10.9565 1.73438 10.0509 1.73438 8.78982C1.73438 7.52877 1.73506 6.62315 1.81104 5.92185C1.88601 5.22991 2.02944 4.79643 2.27549 4.45776C2.45025 4.21723 2.66178 4.0057 2.90232 3.83094C3.24099 3.58488 3.67446 3.44146 4.36641 3.36649C5.0677 3.29051 5.97333 3.28982 7.23438 3.28982C7.7255 3.28982 8.16454 3.28983 8.56172 3.29459C8.83784 3.2979 9.06436 3.07674 9.06767 2.80062C9.07098 2.5245 8.84982 2.29797 8.5737 2.29466Z" stroke="#D9D9D9" />
</svg>
    