<svg width="18" height="18" viewBox="0 0 18 18" fill="none" xmlns="http://www.w3.org/2000/svg">
<path d="M6.70833 9C6.70833 8.65482 6.98816 8.375 7.33333 8.375H10.6667C11.0118 8.375 11.2917 8.65482 11.2917 9C11.2917 9.34518 11.0118 9.625 10.6667 9.625H7.33333C6.98816 9.625 6.70833 9.34518 6.70833 9Z" fill="#404040"/>
<path d="M5.04167 12.3333C5.04167 11.9882 5.32149 11.7083 5.66667 11.7083H12.3333C12.6785 11.7083 12.9583 11.9882 12.9583 12.3333C12.9583 12.6785 12.6785 12.9583 12.3333 12.9583H5.66667C5.32149 12.9583 5.04167 12.6785 5.04167 12.3333Z" fill="#404040"/>
<path fill-rule="evenodd" clip-rule="evenodd" d="M12.3603 0.111436C13.2558 0.181809 14.004 0.326437 14.6485 0.651398C14.8243 0.740074 14.991 0.84139 15.1498 0.956793C15.5566 1.25234 15.9143 1.61007 16.2099 2.01686C16.6981 2.6888 16.9167 3.47578 17.0219 4.44706C17.125 5.39884 17.125 6.5985 17.125 8.12894V9.87106C17.125 11.4015 17.125 12.6012 17.0219 13.5529C16.9167 14.5242 16.6981 15.3112 16.2099 15.9831C15.9143 16.3899 15.5566 16.7477 15.1498 17.0432C14.4779 17.5314 13.6909 17.75 12.7196 17.8552C11.7678 17.9583 10.5682 17.9583 9.03773 17.9583H8.96227C7.43184 17.9583 6.23217 17.9583 5.2804 17.8552C4.30912 17.75 3.52213 17.5314 2.8502 17.0432C2.44341 16.7477 2.08568 16.3899 1.79013 15.9831C1.30194 15.3112 1.08334 14.5242 0.978107 13.5529C0.874988 12.6012 0.874993 11.4015 0.875 9.87104V8.12896C0.874993 6.59851 0.874988 5.39884 0.978107 4.44706C1.08334 3.47578 1.30194 2.6888 1.79013 2.01686C2.08568 1.61007 2.44341 1.25234 2.8502 0.956793C3.15658 0.734194 3.48916 0.566025 3.85633 0.439337C4.46361 0.229799 5.16393 0.134726 5.98737 0.0881017C6.80751 0.0416641 7.7937 0.041665 8.98301 0.0416661H9.02541C10.3795 0.0416633 11.4724 0.0416611 12.3603 0.111436ZM12.2624 1.35759C11.4291 1.29211 10.3848 1.29167 9 1.29167C7.7904 1.29167 6.8389 1.29189 6.05803 1.3361C5.78593 1.35151 5.53992 1.37206 5.31597 1.3988C6.0091 2.08376 6.56598 2.61214 7.0631 3.01002C7.73178 3.5452 8.23716 3.79768 8.74927 3.87879C9.11634 3.93692 9.49027 3.93692 9.85734 3.87879C10.3552 3.79994 10.8467 3.55912 11.488 3.05408C11.9778 2.66835 12.5257 2.1527 13.2077 1.48069C12.9363 1.42632 12.6252 1.3861 12.2624 1.35759ZM14.4591 2.00054C13.6022 2.85338 12.8974 3.53525 12.2614 4.03611C11.5316 4.61084 10.843 4.98825 10.0529 5.1134C9.55626 5.19205 9.05035 5.19205 8.55372 5.1134C7.74087 4.98465 7.03536 4.58888 6.28201 3.98593C5.60746 3.44604 4.85072 2.70299 3.914 1.76769C3.79633 1.82705 3.68749 1.89354 3.58493 1.96806C3.28426 2.18651 3.01985 2.45092 2.8014 2.75159C2.49383 3.17493 2.31454 3.71678 2.22083 4.5817C2.12586 5.45833 2.125 6.59036 2.125 8.16667V9.83333C2.125 11.4096 2.12586 12.5417 2.22083 13.4183C2.31454 14.2832 2.49383 14.8251 2.8014 15.2484C3.01985 15.5491 3.28426 15.8135 3.58493 16.0319C4.00826 16.3395 4.55011 16.5188 5.41504 16.6125C6.29166 16.7075 7.42369 16.7083 9 16.7083C10.5763 16.7083 11.7083 16.7075 12.585 16.6125C13.4499 16.5188 13.9917 16.3395 14.4151 16.0319C14.7157 15.8135 14.9802 15.5491 15.1986 15.2484C15.5062 14.8251 15.6855 14.2832 15.7792 13.4183C15.8741 12.5417 15.875 11.4096 15.875 9.83333V8.16667C15.875 6.59036 15.8741 5.45833 15.7792 4.5817C15.6855 3.71678 15.5062 3.17493 15.1986 2.75159C14.9909 2.46567 14.7416 2.21254 14.4591 2.00054Z" fill="#404040"/>
</svg>
