<svg width="18" height="18" viewBox="0 0 18 18" fill="none" xmlns="http://www.w3.org/2000/svg">
<path d="M5.66667 5.04167C5.32149 5.04167 5.04167 5.32149 5.04167 5.66667C5.04167 6.01185 5.32149 6.29167 5.66667 6.29167H8.16667C8.51184 6.29167 8.79167 6.01185 8.79167 5.66667C8.79167 5.32149 8.51184 5.04167 8.16667 5.04167H5.66667Z" fill="#404040"/>
<path d="M5.66667 8.375C5.32149 8.375 5.04167 8.65482 5.04167 9C5.04167 9.34518 5.32149 9.625 5.66667 9.625H12.3333C12.6785 9.625 12.9583 9.34518 12.9583 9C12.9583 8.65482 12.6785 8.375 12.3333 8.375H5.66667Z" fill="#404040"/>
<path d="M5.66667 11.7083C5.32149 11.7083 5.04167 11.9882 5.04167 12.3333C5.04167 12.6785 5.32149 12.9583 5.66667 12.9583H8.16667C8.51184 12.9583 8.79167 12.6785 8.79167 12.3333C8.79167 11.9882 8.51184 11.7083 8.16667 11.7083H5.66667Z" fill="#404040"/>
<path fill-rule="evenodd" clip-rule="evenodd" d="M12.7196 0.978107C11.7678 0.874988 10.5682 0.874993 9.03771 0.875H8.96229C7.43185 0.874993 6.23218 0.874988 5.2804 0.978107C4.30912 1.08334 3.52213 1.30194 2.8502 1.79013C2.44341 2.08568 2.08568 2.44341 1.79013 2.8502C1.30194 3.52213 1.08334 4.30912 0.978107 5.2804C0.874988 6.23218 0.874993 7.43185 0.875 8.96229V9.03771C0.874993 10.5682 0.874988 11.7678 0.978107 12.7196C1.08334 13.6909 1.30194 14.4779 1.79013 15.1498C2.08567 15.5566 2.44341 15.9143 2.8502 16.2099C3.52213 16.6981 4.30912 16.9167 5.2804 17.0219C6.23216 17.125 7.4318 17.125 8.96221 17.125H9.00918C9.97591 17.125 10.8071 17.125 11.5214 17.1005C13.0826 17.047 14.2301 16.8781 15.1498 16.2099C15.5566 15.9143 15.9143 15.5566 16.2099 15.1498C16.8781 14.2301 17.047 13.0826 17.1005 11.5214C17.125 10.8071 17.125 9.97591 17.125 9.00918V8.96227C17.125 7.43187 17.125 6.23216 17.0219 5.2804C16.9167 4.30912 16.6981 3.52213 16.2099 2.8502C15.9143 2.44341 15.5566 2.08567 15.1498 1.79013C14.4779 1.30194 13.6909 1.08334 12.7196 0.978107ZM3.58493 2.8014C4.00826 2.49383 4.55011 2.31454 5.41504 2.22083C6.29166 2.12586 7.42369 2.125 9 2.125C10.5763 2.125 11.7083 2.12586 12.585 2.22083C13.4499 2.31454 13.9917 2.49383 14.4151 2.8014C14.7157 3.01985 14.9802 3.28426 15.1986 3.58493C15.5062 4.00826 15.6855 4.55011 15.7792 5.41504C15.8741 6.29166 15.875 7.42369 15.875 9C15.875 9.70696 15.875 10.3265 15.866 10.8765C15.4704 10.8802 15.1793 10.8925 14.9171 10.934C12.8668 11.2587 11.2587 12.8668 10.934 14.9171C10.8925 15.1793 10.8802 15.4704 10.8765 15.866C10.3265 15.875 9.70696 15.875 9 15.875C7.42369 15.875 6.29166 15.8741 5.41504 15.7792C4.55011 15.6855 4.00826 15.5062 3.58493 15.1986C3.28426 14.9802 3.01985 14.7157 2.8014 14.4151C2.49383 13.9917 2.31454 13.4499 2.22083 12.585C2.12586 11.7083 2.125 10.5763 2.125 9C2.125 7.42369 2.12586 6.29166 2.22083 5.41504C2.31454 4.55011 2.49383 4.00826 2.8014 3.58493C3.01985 3.28426 3.28426 3.01985 3.58493 2.8014ZM15.1126 12.1686C15.2835 12.1415 15.4813 12.1312 15.8188 12.1273C15.7407 13.2609 15.5615 13.9155 15.1986 14.4151C14.9802 14.7157 14.7157 14.9802 14.4151 15.1986C13.9155 15.5615 13.2609 15.7407 12.1273 15.8188C12.1312 15.4813 12.1415 15.2835 12.1686 15.1126C12.4086 13.5972 13.5972 12.4086 15.1126 12.1686Z" fill="#404040"/>
</svg>
