<svg width="18" height="18" viewBox="0 0 18 18" fill="none" xmlns="http://www.w3.org/2000/svg">
<path d="M5.66667 5.04167C5.32149 5.04167 5.04167 5.32149 5.04167 5.66667C5.04167 6.01185 5.32149 6.29167 5.66667 6.29167H8.16667C8.51184 6.29167 8.79167 6.01185 8.79167 5.66667C8.79167 5.32149 8.51184 5.04167 8.16667 5.04167H5.66667Z" fill="#404040"/>
<path d="M12.3333 9.625C12.6785 9.625 12.9583 9.34518 12.9583 9C12.9583 8.65482 12.6785 8.375 12.3333 8.375L5.66667 8.375C5.32149 8.375 5.04167 8.65482 5.04167 9C5.04167 9.34518 5.32149 9.625 5.66667 9.625L12.3333 9.625Z" fill="#404040"/>
<path fill-rule="evenodd" clip-rule="evenodd" d="M12.7196 0.144773C11.7678 0.0416539 10.5682 0.0416593 9.03771 0.0416661H8.96229C7.43185 0.0416593 6.23218 0.0416539 5.2804 0.144773C4.30912 0.250005 3.52213 0.468603 2.8502 0.956793C2.44341 1.25234 2.08568 1.61007 1.79013 2.01686C1.30194 2.6888 1.08334 3.47578 0.978107 4.44706C0.874988 5.39884 0.874993 6.59851 0.875 8.12896V9.84256C0.875 10.8093 0.875 11.6404 0.899474 12.3547C0.952963 13.9159 1.12191 15.0634 1.79013 15.9831C2.08568 16.3899 2.44341 16.7477 2.8502 17.0432C3.76991 17.7114 4.9174 17.8804 6.4786 17.9339C7.19294 17.9583 8.02409 17.9583 8.99082 17.9583H9.03773C10.5681 17.9583 11.7678 17.9583 12.7196 17.8552C13.6909 17.75 14.4779 17.5314 15.1498 17.0432C15.5566 16.7477 15.9143 16.3899 16.2099 15.9831C16.6981 15.3112 16.9167 14.5242 17.0219 13.5529C17.125 12.6012 17.125 11.4015 17.125 9.87112V8.12894C17.125 6.59853 17.125 5.39883 17.0219 4.44706C16.9167 3.47578 16.6981 2.6888 16.2099 2.01686C15.9143 1.61007 15.5566 1.25234 15.1498 0.956793C14.4779 0.468603 13.6909 0.250005 12.7196 0.144773ZM3.58493 1.96806C4.00826 1.66049 4.55011 1.48121 5.41504 1.3875C6.29166 1.29252 7.42369 1.29167 9 1.29167C10.5763 1.29167 11.7083 1.29252 12.585 1.3875C13.4499 1.48121 13.9917 1.66049 14.4151 1.96806C14.7157 2.18651 14.9802 2.45093 15.1986 2.75159C15.5062 3.17493 15.6855 3.71678 15.7792 4.5817C15.8741 5.45833 15.875 6.59036 15.875 8.16667V9.83333C15.875 11.4096 15.8741 12.5417 15.7792 13.4183C15.6855 14.2832 15.5062 14.8251 15.1986 15.2484C14.9802 15.5491 14.7157 15.8135 14.4151 16.0319C13.9917 16.3395 13.4499 16.5188 12.585 16.6125C11.7083 16.7075 10.5763 16.7083 9 16.7083C8.29304 16.7083 7.67351 16.7083 7.12348 16.6993C7.11984 16.3038 7.10753 16.0126 7.06601 15.7504C6.74127 13.7001 5.13323 12.0921 3.08292 11.7673C2.82074 11.7258 2.52956 11.7135 2.13401 11.7099C2.12504 11.1598 2.125 10.5403 2.125 9.83333V8.16667C2.125 6.59036 2.12586 5.45833 2.22083 4.5817C2.31454 3.71678 2.49383 3.17493 2.8014 2.75159C3.01985 2.45092 3.28426 2.18651 3.58493 1.96806ZM5.8314 15.946C5.85846 16.1168 5.86878 16.3147 5.87268 16.6521C4.73906 16.574 4.08447 16.3949 3.58493 16.0319C3.28426 15.8135 3.01985 15.5491 2.8014 15.2484C2.43846 14.7489 2.25935 14.0943 2.1812 12.9607C2.51866 12.9646 2.71651 12.9749 2.88737 13.0019C4.40282 13.242 5.59137 14.4305 5.8314 15.946Z" fill="#404040"/>
</svg>
