<svg width="18" height="18" viewBox="0 0 18 18" fill="none" xmlns="http://www.w3.org/2000/svg">
    <path fill-rule="evenodd" clip-rule="evenodd" d="M17.0451 2.06107C18 3.3754 18 5.25027 18 9C18 12.7497 18 14.6246 17.0451 15.9389C16.7367 16.3634 16.3634 16.7367 15.9389 17.0451C14.6246 18 12.7497 18 9 18C5.25027 18 3.3754 18 2.06107 17.0451C1.6366 16.7367 1.26331 16.3634 0.954914 15.9389C0 14.6246 0 12.7497 0 9C0 5.25027 0 3.3754 0.954914 2.06107C1.26331 1.6366 1.6366 1.26331 2.06107 0.954915C3.3754 0 5.25027 0 9 0C12.7497 0 14.6246 0 15.9389 0.954915C16.3634 1.26331 16.7367 1.6366 17.0451 2.06107ZM9.27204 5.53269C8.97784 5.24111 8.97573 4.76624 9.26731 4.47204C9.55889 4.17784 10.0338 4.17573 10.328 4.46731L11.7691 5.89564C12.3053 6.42703 12.7525 6.87022 13.0713 7.26724C13.4057 7.68367 13.6601 8.12131 13.7281 8.65451C13.7427 8.76921 13.75 8.8846 13.75 9C13.75 9.1154 13.7427 9.23079 13.7281 9.3455C13.6601 9.87869 13.4057 10.3163 13.0713 10.7328C12.7525 11.1298 12.3053 11.573 11.7691 12.1044L10.328 13.5327C10.0338 13.8243 9.55889 13.8222 9.26731 13.528C8.97573 13.2338 8.97784 12.7589 9.27204 12.4673L10.6824 11.0695C11.2573 10.4997 11.6427 10.1161 11.9018 9.79351C11.9137 9.77872 11.9251 9.76422 11.9362 9.75H5C4.58579 9.75 4.25 9.41421 4.25 9C4.25 8.58579 4.58579 8.25 5 8.25H11.9362C11.9251 8.23578 11.9137 8.22128 11.9018 8.20649C11.6427 7.88386 11.2573 7.50033 10.6824 6.93054L9.27204 5.53269Z" fill="#006189" />
</svg>
    