<svg width="20" height="20" viewBox="0 0 20 20" fill="none" xmlns="http://www.w3.org/2000/svg">
<path d="M16.364 14.4698C16.0712 14.1769 15.5963 14.1769 15.3034 14.4698C15.0105 14.7626 15.0105 15.2375 15.3034 15.5304L16.364 14.4698ZM18.6366 18.8637C18.9295 19.1566 19.4044 19.1566 19.6973 18.8637C19.9902 18.5708 19.9902 18.0959 19.6973 17.803L18.6366 18.8637ZM7.79915 4.1254C8.20826 4.06061 8.48738 3.67643 8.42259 3.26731C8.35779 2.8582 7.97361 2.57907 7.56449 2.64387L7.79915 4.1254ZM3.4775 6.73087C3.4127 7.13998 3.69182 7.52416 4.10094 7.58896C4.51005 7.65376 4.89423 7.37464 4.95903 6.96552L3.4775 6.73087ZM15.3034 15.5304L18.6366 18.8637L19.6973 17.803L16.364 14.4698L15.3034 15.5304ZM9.16699 15.0833C5.43907 15.0833 2.41699 12.0613 2.41699 8.33334H0.916992C0.916992 12.8897 4.61064 16.5833 9.16699 16.5833V15.0833ZM15.917 8.33334C15.917 12.0613 12.8949 15.0833 9.16699 15.0833V16.5833C13.7233 16.5833 17.417 12.8897 17.417 8.33334H15.917ZM9.16699 1.58334C12.8949 1.58334 15.917 4.60542 15.917 8.33334H17.417C17.417 3.77699 13.7233 0.0833435 9.16699 0.0833435V1.58334ZM9.16699 0.0833435C4.61064 0.0833435 0.916992 3.77699 0.916992 8.33334H2.41699C2.41699 4.60542 5.43907 1.58334 9.16699 1.58334V0.0833435ZM7.56449 2.64387C5.46069 2.97708 3.81071 4.62706 3.4775 6.73087L4.95903 6.96552C5.19058 5.50356 6.33718 4.35696 7.79915 4.1254L7.56449 2.64387Z" fill="#404040"/>
</svg>
