<svg width="18" height="20" viewBox="0 0 18 20" fill="none" xmlns="http://www.w3.org/2000/svg">
    <path fill-rule="evenodd" clip-rule="evenodd" d="M4.875 2.78827C3.92037 2.90146 3.22013 3.12001 2.63932 3.542C2.25022 3.8247 1.90804 4.16688 1.62534 4.55598C0.75 5.76078 0.75 7.47941 0.75 10.9167C0.75 14.3539 0.75 16.0725 1.62534 17.2773C1.90804 17.6664 2.25022 18.0086 2.63932 18.2913C3.84412 19.1667 5.56275 19.1667 9 19.1667C9.76903 19.1667 10.452 19.1667 11.0625 19.1569L11.0625 19.0926C11.0624 18.3116 11.0624 17.8358 11.1274 17.4255C11.4846 15.1701 13.2534 13.4013 15.5088 13.0441C15.9192 12.9791 16.3949 12.9791 17.1759 12.9792L17.2402 12.9792C17.25 12.3688 17.25 11.6859 17.25 10.9171C17.25 7.47983 17.25 5.76078 16.3747 4.55598C16.092 4.16688 15.7498 3.8247 15.3607 3.542C14.7799 3.12001 14.0796 2.90146 13.125 2.78827V3.58333C13.125 4.34272 12.5094 4.95833 11.75 4.95833C10.9906 4.95833 10.375 4.34272 10.375 3.58333V2.66924C9.94958 2.66666 9.49243 2.66666 9 2.66666C8.50757 2.66666 8.05042 2.66666 7.625 2.66924V3.58333C7.625 4.34272 7.00939 4.95833 6.25 4.95833C5.49061 4.95833 4.875 4.34272 4.875 3.58333V2.78827ZM4.41667 8.16666C4.92293 8.16666 5.33333 7.75626 5.33333 7.24999C5.33333 6.74373 4.92293 6.33333 4.41667 6.33333C3.91041 6.33333 3.5 6.74373 3.5 7.24999C3.5 7.75626 3.91041 8.16666 4.41667 8.16666ZM5.33333 10.9167C5.33333 11.4229 4.92293 11.8333 4.41667 11.8333C3.91041 11.8333 3.5 11.4229 3.5 10.9167C3.5 10.4104 3.91041 9.99999 4.41667 9.99999C4.92293 9.99999 5.33333 10.4104 5.33333 10.9167ZM9 8.16666C9.50626 8.16666 9.91667 7.75626 9.91667 7.24999C9.91667 6.74373 9.50626 6.33333 9 6.33333C8.49374 6.33333 8.08333 6.74373 8.08333 7.24999C8.08333 7.75626 8.49374 8.16666 9 8.16666ZM9.91667 10.9167C9.91667 11.4229 9.50626 11.8333 9 11.8333C8.49374 11.8333 8.08333 11.4229 8.08333 10.9167C8.08333 10.4104 8.49374 9.99999 9 9.99999C9.50626 9.99999 9.91667 10.4104 9.91667 10.9167ZM9 15.5C9.50626 15.5 9.91667 15.0896 9.91667 14.5833C9.91667 14.0771 9.50626 13.6667 9 13.6667C8.49374 13.6667 8.08333 14.0771 8.08333 14.5833C8.08333 15.0896 8.49374 15.5 9 15.5ZM14.5 7.24999C14.5 7.75626 14.0896 8.16666 13.5833 8.16666C13.0771 8.16666 12.6667 7.75626 12.6667 7.24999C12.6667 6.74373 13.0771 6.33333 13.5833 6.33333C14.0896 6.33333 14.5 6.74373 14.5 7.24999ZM13.5833 11.8333C14.0896 11.8333 14.5 11.4229 14.5 10.9167C14.5 10.4104 14.0896 9.99999 13.5833 9.99999C13.0771 9.99999 12.6667 10.4104 12.6667 10.9167C12.6667 11.4229 13.0771 11.8333 13.5833 11.8333ZM5.33333 14.5833C5.33333 15.0896 4.92293 15.5 4.41667 15.5C3.91041 15.5 3.5 15.0896 3.5 14.5833C3.5 14.0771 3.91041 13.6667 4.41667 13.6667C4.92293 13.6667 5.33333 14.0771 5.33333 14.5833Z" fill="currentColor" />
    <path d="M17.1901 14.3542C16.3556 14.3543 16.0066 14.3574 15.7239 14.4021C14.0569 14.6662 12.7495 15.9736 12.4855 17.6406C12.4407 17.9232 12.4376 18.2723 12.4375 19.1068C13.7572 19.0202 14.6487 18.8086 15.3607 18.2913C15.7498 18.0086 16.092 17.6664 16.3747 17.2773C16.892 16.5653 17.1036 15.6738 17.1901 14.3542Z" fill="currentColor" />
    <path d="M6.9375 0.833328C6.9375 0.453632 6.6297 0.145828 6.25 0.145828C5.8703 0.145828 5.5625 0.453633 5.5625 0.833328V3.58333C5.5625 3.96302 5.8703 4.27083 6.25 4.27083C6.6297 4.27083 6.9375 3.96302 6.9375 3.58333V0.833328Z" fill="currentColor" />
    <path d="M12.4375 0.833328C12.4375 0.453632 12.1297 0.145828 11.75 0.145828C11.3703 0.145828 11.0625 0.453633 11.0625 0.833328V3.58333C11.0625 3.96302 11.3703 4.27083 11.75 4.27083C12.1297 4.27083 12.4375 3.96302 12.4375 3.58333V0.833328Z" fill="currentColor" />
</svg>