<svg width="26" height="26" viewBox="0 0 26 26" fill="none" xmlns="http://www.w3.org/2000/svg">
<path d="M13.3359 0.742828C20.1546 0.742828 25.682 6.27018 25.682 13.0889C25.682 19.9077 20.1546 25.4351 13.3359 25.4351C11.3385 25.4377 9.37065 24.9538 7.60233 24.0251L2.30585 25.4042C2.12888 25.4503 1.94293 25.4493 1.76644 25.4014C1.58995 25.3535 1.42904 25.2603 1.29966 25.1311C1.17029 25.0018 1.07693 24.841 1.02885 24.6645C0.980774 24.4881 0.979639 24.3021 1.02556 24.1251L2.40339 18.8299C1.47224 17.0597 0.987006 15.0891 0.989758 13.0889C0.989758 6.27018 6.51711 0.742828 13.3359 0.742828ZM13.3359 17.4101C13.0084 17.4101 12.6944 17.5402 12.4629 17.7717C12.2313 18.0032 12.1013 18.3173 12.1013 18.6447C12.1013 18.9721 12.2313 19.2862 12.4629 19.5177C12.6944 19.7492 13.0084 19.8793 13.3359 19.8793C13.6633 19.8793 13.9773 19.7492 14.2089 19.5177C14.4404 19.2862 14.5705 18.9721 14.5705 18.6447C14.5705 18.3173 14.4404 18.0032 14.2089 17.7717C13.9773 17.5402 13.6633 17.4101 13.3359 17.4101ZM13.3359 6.60723C12.4354 6.60723 11.5718 6.96494 10.9351 7.60166C10.2984 8.23838 9.94069 9.10195 9.94069 10.0024C9.94076 10.237 10.0299 10.4628 10.19 10.6343C10.3502 10.8057 10.5695 10.9099 10.8035 10.9259C11.0376 10.9419 11.269 10.8685 11.451 10.7204C11.633 10.5724 11.752 10.3608 11.784 10.1283L11.8012 9.84438C11.8429 9.45185 12.0335 9.09022 12.3336 8.83387C12.6338 8.57752 13.0208 8.44593 13.415 8.46617C13.8092 8.48641 14.1807 8.65694 14.453 8.94269C14.7254 9.22844 14.8779 9.60768 14.8791 10.0024C14.8791 10.6679 14.7125 10.9963 14.0828 11.6469L13.7075 12.0296C12.7766 12.9976 12.4099 13.6927 12.4099 14.9409C12.4099 15.1864 12.5075 15.422 12.6811 15.5956C12.8548 15.7693 13.0903 15.8668 13.3359 15.8668C13.5814 15.8668 13.817 15.7693 13.9906 15.5956C14.1643 15.422 14.2618 15.1864 14.2618 14.9409C14.2618 14.2754 14.4285 13.947 15.0582 13.2964L15.4335 12.9136C16.3644 11.9457 16.7311 11.2506 16.7311 10.0024C16.7311 9.10195 16.3733 8.23838 15.7366 7.60166C15.0999 6.96494 14.2363 6.60723 13.3359 6.60723Z" fill="#2BA4D6"/>
</svg>
