<svg width="278" height="67" viewBox="0 0 278 67" fill="none" xmlns="http://www.w3.org/2000/svg">
    <path d="M34.3754 47.0273C32.84 47.0266 31.3648 47.6245 30.2632 48.6941C29.1615 49.7636 28.5202 51.2205 28.4755 52.7552C25.956 53.6642 23.2915 54.1049 20.6135 54.0553C20.4937 53.2422 20.1361 52.4826 19.5858 51.8721C19.0355 51.2617 18.3169 50.8276 17.5205 50.6245C16.7241 50.4214 15.8854 50.4584 15.11 50.7308C14.3345 51.0031 13.6569 51.4988 13.1624 52.1553C9.97997 50.4698 7.26555 48.0209 5.26244 45.0282C5.69462 44.4782 5.91699 43.7924 5.88976 43.0934C5.86253 42.3945 5.58748 41.728 5.11382 41.2132C4.64016 40.6985 3.9988 40.3691 3.30449 40.284C2.61019 40.1989 1.90825 40.3636 1.32427 40.7486C0.740294 41.1337 0.31239 41.714 0.117117 42.3857C-0.0781562 43.0574 -0.0280404 43.7767 0.258474 44.4148C0.544989 45.0529 1.04917 45.5683 1.6809 45.8686C2.31262 46.169 3.03062 46.2348 3.70641 46.0542C5.86718 49.4396 8.83731 52.2335 12.3484 54.1833C12.3301 54.342 12.3208 54.5015 12.3204 54.6612C12.3205 55.5586 12.6103 56.432 13.1467 57.1515C13.683 57.8709 14.4373 58.398 15.2974 58.6543C16.1574 58.9106 17.0771 58.8824 17.9198 58.574C18.7625 58.2655 19.4831 57.6932 19.9744 56.9422C23.4421 57.6161 26.9915 57.7647 30.5034 57.3832C31.2233 58.0063 32.0833 58.446 33.01 58.6646C33.9367 58.8832 34.9025 58.8743 35.825 58.6387C36.7475 58.403 37.5992 57.9477 38.3075 57.3114C39.0158 56.6751 39.5596 55.8768 39.8924 54.9848C40.2253 54.0928 40.3373 53.1334 40.2189 52.1887C40.1006 51.244 39.7553 50.342 39.2126 49.5596C38.67 48.7773 37.9461 48.1379 37.1027 47.696C36.2593 47.2542 35.3215 47.023 34.3694 47.0223L34.3754 47.0273Z" fill="#0092CE" />
    <path d="M40.5064 23.2853C41.3261 24.5834 42.6194 25.5109 44.1118 25.8708C45.6042 26.2308 47.1782 25.995 48.4995 25.2133C50.6143 26.8571 52.4105 28.874 53.7995 31.1642C53.1765 31.7001 52.7259 32.4082 52.5044 33.1995C52.2828 33.9908 52.3001 34.83 52.5542 35.6114C52.8082 36.3929 53.2876 37.0818 53.9321 37.5915C54.5766 38.1013 55.3575 38.4091 56.1765 38.4763C56.4497 42.0658 55.8282 45.667 54.3675 48.9573C53.6709 48.8856 52.9716 49.0642 52.3946 49.4609C51.8177 49.8577 51.4007 50.4468 51.2184 51.1229C51.0361 51.799 51.1003 52.5179 51.3995 53.1509C51.6987 53.784 52.2135 54.29 52.8516 54.5782C53.4897 54.8665 54.2096 54.9184 54.8824 54.7244C55.5553 54.5305 56.1372 54.1035 56.524 53.5198C56.9108 52.9361 57.0772 52.2338 56.9936 51.5386C56.9099 50.8434 56.5817 50.2006 56.0675 49.7253C57.7757 46.0904 58.5514 42.0871 58.3245 38.0773C59.1702 37.6706 59.8538 36.9903 60.2647 36.1467C60.6755 35.303 60.7895 34.3454 60.5881 33.4288C60.3867 32.5123 59.8818 31.6906 59.1552 31.0968C58.4285 30.503 57.5227 30.1719 56.5844 30.1572C55.3021 26.8652 53.532 23.7847 51.3335 21.0192C51.4757 20.0779 51.3879 19.1161 51.0778 18.216C50.7676 17.3159 50.2443 16.5042 49.5524 15.8503C48.8605 15.1963 48.0206 14.7195 47.1045 14.4606C46.1883 14.2016 45.2231 14.1682 44.2913 14.3632C43.3594 14.5581 42.4886 14.9757 41.7531 15.5803C41.0177 16.1848 40.4394 16.9583 40.0678 17.8348C39.6961 18.7113 39.5421 19.6647 39.6188 20.6136C39.6955 21.5626 40.0008 22.4789 40.5085 23.2842L40.5064 23.2853Z" fill="#0092CE" />
    <path d="M16.4665 28.8343C17.2333 27.5043 17.4515 25.9277 17.0747 24.4394C16.6979 22.951 15.7558 21.6682 14.4485 20.8633C14.9189 18.226 15.8679 15.697 17.2485 13.4013C18.0129 13.703 18.8495 13.7719 19.653 13.5993C20.4565 13.4268 21.191 13.0205 21.7642 12.4316C22.3374 11.8427 22.7237 11.0975 22.8744 10.2896C23.0252 9.4817 22.9337 8.64727 22.6114 7.89126C25.6605 5.97747 29.1366 4.84982 32.7284 4.60928C32.9892 5.25895 33.4727 5.79464 34.0923 6.12045C34.7119 6.44626 35.4272 6.54094 36.1103 6.38754C36.7933 6.23414 37.3995 5.8427 37.8203 5.28323C38.2411 4.72376 38.449 4.0328 38.407 3.33401C38.3649 2.63522 38.0755 1.9742 37.5906 1.46926C37.1057 0.964332 36.457 0.648421 35.7605 0.57809C35.064 0.50776 34.3652 0.68761 33.7891 1.08541C33.2131 1.48322 32.7974 2.07302 32.6164 2.74929C28.6044 2.9311 24.7009 4.10961 21.2585 6.17831C21.1302 6.08318 20.9966 5.99537 20.8584 5.91531C20.0809 5.4656 19.1788 5.27926 18.2867 5.38406C17.3946 5.48886 16.5603 5.87913 15.9081 6.49679C15.2559 7.11445 14.8208 7.92639 14.6677 8.81149C14.5146 9.69659 14.6517 10.6074 15.0585 11.4083C12.7433 14.0755 10.8424 17.0758 9.41942 20.3083C8.52015 20.621 7.7099 21.1466 7.05785 21.8404C6.4058 22.5341 5.93136 23.3754 5.67498 24.2923C5.4186 25.2092 5.38791 26.1745 5.58556 27.1059C5.78321 28.0372 6.2033 28.9069 6.80999 29.6407C7.41667 30.3744 8.19196 30.9504 9.06957 31.3195C9.94718 31.6887 10.9011 31.84 11.8498 31.7605C12.7986 31.6809 13.714 31.373 14.5179 30.8629C15.3219 30.3529 15.9904 29.6558 16.4665 28.8313V28.8343Z" fill="#0092CE" />
    <path d="M23.0922 37.8252C23.0922 37.8252 20.8352 10.0462 49.3082 8.48421C49.3082 8.48421 20.1402 2.92822 18.4082 37.8252H23.0922Z" fill="#020F2B" />
    <path d="M39.0015 36.7622C39.0015 36.7622 16.4295 53.1112 0.314453 29.5852C0.314453 29.5852 10.7065 57.3993 41.4345 40.7693L39.0015 36.7622Z" fill="#020F2B" />
    <path d="M30.5488 23.6983C30.5488 23.6983 55.7128 35.6802 42.7808 61.0982C42.7808 61.0982 62.2178 38.6522 32.8998 19.6452L30.5488 23.6983Z" fill="#020F2B" />
    <path d="M53.2969 16.1772C53.2969 16.1772 69.6249 30.7072 60.6799 46.6772C60.6799 46.6772 73.6109 32.6453 56.5959 14.2263L53.2969 16.1772Z" fill="#020F2B" />
    <path d="M4.52014 21.7212C4.52014 21.7212 9.16315 0.363238 27.4702 0.315238C27.4702 0.315238 8.89712 -4.06172 1.20312 19.8033L4.52014 21.7212Z" fill="#020F2B" />
    <path d="M34.1275 61.1963C34.1275 61.1963 13.5555 68.5812 3.81055 53.0832C3.81055 53.0832 9.94452 71.1513 34.2595 65.0243L34.1275 61.1963Z" fill="#020F2B" />
    <path d="M86.5297 11.8282V34.1532H100.43V38.8653H81.4297V11.8282H86.5297Z" fill="#020F2B" />
    <path d="M124.188 38.8653H103.949V11.8282H124.188V16.7722H109.009V22.9903H123.647V27.7403H109.009V33.8402H124.188V38.8653Z" fill="#020F2B" />
    <path d="M136.704 16.4632H128.129V11.8282H150.377V16.4632H141.803V38.8633H136.703L136.704 16.4632Z" fill="#020F2B" />
    <path d="M177.954 18.3552C177.027 16.8102 174.478 15.3422 171.542 15.3422C167.757 15.3422 165.942 16.9263 165.942 18.9343C165.942 21.2903 168.723 21.9472 171.967 22.3342C177.606 23.0342 182.859 24.4973 182.859 30.9473C182.859 36.9723 177.529 39.5602 171.504 39.5602C165.98 39.5602 161.732 37.8602 159.723 32.9172L163.972 30.7172C165.172 33.6912 168.298 35.0043 171.581 35.0043C174.787 35.0043 177.799 33.8842 177.799 30.9482C177.799 28.3992 175.134 27.3562 171.542 26.9702C166.019 26.3132 160.921 24.8462 160.921 18.7822C160.921 13.2202 166.406 10.9413 171.388 10.9033C175.598 10.9033 179.962 12.1032 182.009 16.2722L177.954 18.3552Z" fill="#020F2B" />
    <path d="M226.116 11.8672V27.3593C226.116 35.3593 221.211 39.4482 214.416 39.4482C207.927 39.4482 202.404 35.5083 202.404 27.3593V11.8672H207.464V27.3593C207.464 32.2263 210.245 34.8143 214.455 34.8143C218.665 34.8143 221.055 31.9943 221.055 27.3593V11.8672H226.116Z" fill="#0092CE" />
    <path d="M247.786 18.3552C246.859 16.8102 244.31 15.3422 241.375 15.3422C237.59 15.3422 235.775 16.9263 235.775 18.9343C235.775 21.2903 238.556 21.9472 241.8 22.3342C247.439 23.0342 252.692 24.4973 252.692 30.9473C252.692 36.9723 247.362 39.5602 241.337 39.5602C235.814 39.5602 231.565 37.8602 229.557 32.9172L233.805 30.7172C235.005 33.6912 238.131 35.0043 241.414 35.0043C244.62 35.0043 247.633 33.8842 247.633 30.9482C247.633 28.3992 244.968 27.3562 241.376 26.9702C235.853 26.3132 230.754 24.8462 230.754 18.7822C230.754 13.2202 236.239 10.9413 241.221 10.9033C245.431 10.9033 249.796 12.1032 251.843 16.2722L247.786 18.3552Z" fill="#0092CE" />
    <path d="M276.792 38.8653H256.553V11.8282H276.792V16.7722H261.613V22.9903H276.253V27.7403H261.613V33.8402H276.792V38.8653Z" fill="#0092CE" />
    <path d="M157.303 10.9012H153.613V19.9732H157.303V10.9012Z" fill="#020F2B" />
    <path d="M234 52.9993H81V54.9993H234V52.9993Z" fill="#020F2B" />
    <path d="M248.33 52.7643C248.379 53.4092 248.29 54.0571 248.067 54.6645C247.845 55.272 247.496 55.8248 247.042 56.2861C246.589 56.7473 246.042 57.1063 245.439 57.3388C244.835 57.5713 244.189 57.6721 243.543 57.6343H239.781V48.0543H243.543C244.175 48.0166 244.808 48.112 245.401 48.3343C245.993 48.5566 246.533 48.9009 246.984 49.3449C247.435 49.7889 247.788 50.3227 248.02 50.9117C248.252 51.5007 248.358 52.1318 248.33 52.7643ZM241.572 55.8973H243.542C244.341 55.8769 245.101 55.5451 245.659 54.9727C246.217 54.4003 246.529 53.6326 246.529 52.8332C246.529 52.0339 246.217 51.2662 245.659 50.6938C245.101 50.1215 244.341 49.7897 243.542 49.7693H241.572V55.8973Z" fill="#020F2B" />
    <path d="M254.881 50.8853H256.481V57.6292H254.908L254.826 56.6442C254.593 57.0122 254.269 57.3146 253.886 57.5228C253.503 57.731 253.073 57.8382 252.637 57.8343C251.708 57.8075 250.827 57.4183 250.181 56.7498C249.535 56.0814 249.176 55.1867 249.182 54.2572C249.187 53.3278 249.556 52.4373 250.209 51.7763C250.863 51.1153 251.749 50.7363 252.678 50.7202C253.1 50.7046 253.519 50.797 253.895 50.9887C254.271 51.1803 254.591 51.4648 254.826 51.8153L254.881 50.8853ZM250.832 54.2503C250.815 54.5197 250.855 54.7897 250.949 55.0429C251.043 55.296 251.188 55.5267 251.377 55.7201C251.565 55.9134 251.792 56.0651 252.043 56.1654C252.294 56.2656 252.563 56.3123 252.832 56.3023C255.459 56.3023 255.459 52.2122 252.832 52.2122C252.563 52.2005 252.295 52.2455 252.044 52.3443C251.794 52.443 251.567 52.5934 251.378 52.7856C251.19 52.9778 251.043 53.2075 250.949 53.4599C250.855 53.7122 250.816 53.9815 250.832 54.2503Z" fill="#020F2B" />
    <path d="M259.957 48.9842V50.8993H261.817V52.3352H259.943V55.2492C259.925 55.3721 259.935 55.4974 259.971 55.6161C260.008 55.7348 260.07 55.844 260.154 55.9356C260.237 56.0273 260.341 56.0992 260.455 56.1462C260.57 56.1932 260.694 56.214 260.818 56.2072C261.099 56.1994 261.375 56.1294 261.625 56.0022L262.09 57.4253C261.652 57.6083 261.183 57.7058 260.708 57.7122C260.377 57.7525 260.041 57.7161 259.726 57.6059C259.411 57.4958 259.126 57.3148 258.892 57.0769C258.658 56.8391 258.482 56.5506 258.377 56.2339C258.272 55.9172 258.241 55.5807 258.287 55.2502V52.3362H257.029V50.9002H258.287V49.1632L259.957 48.9842Z" fill="#020F2B" />
    <path d="M268.411 50.8853H270.011V57.6293H268.438L268.356 56.6443C268.122 57.0124 267.798 57.3148 267.415 57.5231C267.032 57.7313 266.603 57.8384 266.167 57.8343C265.238 57.8075 264.356 57.4183 263.71 56.7499C263.064 56.0814 262.706 55.1867 262.711 54.2572C262.716 53.3278 263.085 52.4373 263.739 51.7763C264.392 51.1154 265.278 50.7363 266.208 50.7203C266.629 50.7045 267.048 50.7969 267.424 50.9886C267.8 51.1802 268.121 51.4648 268.356 51.8153L268.411 50.8853ZM264.362 54.2503C264.345 54.5197 264.384 54.7897 264.478 55.0429C264.572 55.2961 264.718 55.5267 264.906 55.7201C265.095 55.9134 265.322 56.0651 265.572 56.1654C265.823 56.2657 266.092 56.3123 266.362 56.3023C268.988 56.3023 268.988 52.2123 266.362 52.2123C266.093 52.2007 265.824 52.2458 265.574 52.3446C265.323 52.4434 265.096 52.5938 264.908 52.786C264.719 52.9782 264.573 53.2078 264.479 53.4601C264.385 53.7123 264.345 53.9816 264.362 54.2503Z" fill="#020F2B" />
    <g clip-path="url(#clip0_2938_8984)">
        <path d="M273.545 46.9368H271.117C271.053 46.9368 271 46.9895 271 47.054V47.4749C271 47.5393 271.053 47.592 271.117 47.592H271.948V49.9446C271.948 50.009 272.001 50.0618 272.065 50.0618H272.596C272.66 50.0618 272.713 50.009 272.713 49.9446V47.592H273.544C273.608 47.592 273.661 47.5393 273.661 47.4749V47.054C273.662 46.9895 273.609 46.9368 273.545 46.9368ZM277.25 49.9348L277.016 47.0442C277.011 46.9836 276.96 46.9368 276.898 46.9368H276.26C276.21 46.9368 276.165 46.969 276.149 47.0159L275.722 48.2571C275.651 48.4583 275.564 48.7727 275.564 48.7727H275.556C275.556 48.7727 275.469 48.4583 275.398 48.2571L274.971 47.0159C274.954 46.969 274.91 46.9368 274.86 46.9368H274.222C274.161 46.9368 274.11 46.9836 274.104 47.0442L273.866 49.9348C273.86 50.0032 273.914 50.0618 273.983 50.0618H274.516C274.577 50.0618 274.628 50.0139 274.633 49.9524L274.722 48.6545C274.739 48.4182 274.722 48.1301 274.722 48.1301H274.73C274.73 48.1301 274.835 48.4583 274.905 48.6545L275.205 49.4817C275.222 49.5276 275.266 49.5588 275.315 49.5588H275.807C275.856 49.5588 275.9 49.5276 275.917 49.4817L276.217 48.6545C276.287 48.4583 276.392 48.1301 276.392 48.1301H276.4C276.4 48.1301 276.383 48.4182 276.4 48.6545L276.489 49.9524C276.493 50.0139 276.545 50.0618 276.606 50.0618H277.133C277.201 50.0618 277.255 50.0032 277.25 49.9348Z" fill="#020F2B" />
    </g>
    <defs>
        <clipPath id="clip0_2938_8984">
            <rect width="6.25" height="5" fill="white" transform="translate(271 45.9993)" />
        </clipPath>
    </defs>
</svg>
    