<svg width="20" height="19" viewBox="0 0 20 19" fill="none" xmlns="http://www.w3.org/2000/svg">
    <path d="M1 11.5C1 12.8807 2.11929 14 3.5 14C4.88071 14 6 12.8807 6 11.5V3.5C6 2.11929 4.88071 1 3.5 1C2.11929 1 1 2.11929 1 3.5V11.5Z" stroke="currentColor" stroke-width="1.5" />
    <path d="M9.57541 16.81L7.34488 13.1854C6.74601 12.2123 6.44657 11.7257 6.26551 11.1925C6.21028 11.0298 6.16347 10.8644 6.12526 10.6969C6 10.1479 6 9.57659 6 8.43392V5C6 2.79086 7.79086 1 10 1H12.9098C14.8037 1 16.535 2.07001 17.382 3.76394L18.5305 6.06096C19.6651 8.33013 18.015 11 15.478 11H14.7882C13.0593 11 11.7371 12.5411 12 14.25L12.243 15.8298C12.3782 16.708 11.6987 17.5 10.8101 17.5C10.3067 17.5 9.83927 17.2388 9.57541 16.81Z" stroke="currentColor" stroke-width="1.5" />
</svg>
    