<svg width="18" height="15" viewBox="0 0 18 15" fill="none" xmlns="http://www.w3.org/2000/svg">
    <path fill-rule="evenodd" clip-rule="evenodd" d="M7.7995 1.60945C6.54425 0.813191 4.51705 0.0602403 2.7664 1.84553C-1.38936 6.08352 5.73738 14.25 8.99999 14.25C12.2626 14.25 19.3894 6.08352 15.2336 1.84554C13.483 0.0602599 11.4558 0.813201 10.2005 1.60945C9.49127 2.05936 8.50876 2.05936 7.7995 1.60945ZM12.558 2.47419C12.2676 2.36383 11.9427 2.50979 11.8323 2.80018C11.722 3.09058 11.8679 3.41546 12.1583 3.52581C12.4289 3.62862 12.7113 3.80279 12.995 4.08408C13.3563 4.44231 13.585 4.83493 13.7124 5.2483C13.804 5.54517 14.1188 5.71161 14.4157 5.62007C14.7126 5.52852 14.879 5.21366 14.7875 4.91679C14.6048 4.32426 14.2778 3.77174 13.7871 3.28518C13.3999 2.90132 12.986 2.63685 12.558 2.47419Z" fill="currentColor" stroke="currentColor" stroke-width="1.5" stroke-linecap="round" />
</svg>
    