<svg width="1440" height="1815" viewBox="0 0 1440 1815" fill="none" xmlns="http://www.w3.org/2000/svg">
<path opacity="0.27" d="M151.327 -87.0683L590.584 308.389C621.313 336.054 623.794 383.388 596.126 414.112C568.458 444.837 521.118 447.318 490.389 419.653L51.1313 24.1955C20.4025 -3.46927 17.9214 -50.8032 45.5896 -81.5278C73.2578 -112.252 120.598 -114.733 151.327 -87.0683Z" fill="url(#paint0_linear_2_191)"/>
<path opacity="0.27" d="M-302.622 -87.0678L589.949 716.501C620.678 744.166 623.159 791.5 595.491 822.225C567.823 852.949 520.483 855.43 489.754 827.765L-402.817 24.1959C-433.546 -3.46886 -436.027 -50.8028 -408.359 -81.5275C-380.691 -112.252 -333.35 -114.733 -302.622 -87.0678Z" fill="url(#paint1_linear_2_191)"/>
<path opacity="0.27" d="M-154.974 -118.203L327.481 316.144C346.281 333.07 347.799 362.029 330.871 380.827C313.943 399.625 284.98 401.142 266.18 384.217L-216.275 -50.131C-235.075 -67.0564 -236.593 -96.0158 -219.665 -114.813C-202.738 -133.611 -173.774 -135.129 -154.974 -118.203Z" fill="url(#paint2_linear_2_191)"/>
<path opacity="0.27" d="M-151.801 318.223L406.935 821.246C425.372 837.844 426.861 866.245 410.26 884.679C393.659 903.114 365.255 904.602 346.818 888.004L-211.918 384.982C-230.355 368.383 -231.844 339.983 -215.243 321.548C-198.642 303.113 -170.238 301.625 -151.801 318.223Z" fill="url(#paint3_linear_2_191)"/>
<g opacity="0.58">
<path opacity="0.55" d="M1065.37 227.282C1060.98 227.282 1057.42 223.719 1057.42 219.324C1057.42 214.929 1060.98 211.365 1065.37 211.365C1069.77 211.365 1073.33 214.929 1073.33 219.324C1073.33 223.719 1069.77 227.282 1065.37 227.282Z" fill="white"/>
<path opacity="0.55" d="M1065.37 338.699C1060.98 338.699 1057.42 334.938 1057.42 330.298C1057.42 325.659 1060.98 321.898 1065.37 321.898C1069.77 321.898 1073.33 325.659 1073.33 330.298C1073.33 334.938 1069.77 338.699 1065.37 338.699Z" fill="white"/>
<path opacity="0.55" d="M1065.37 282.991C1060.98 282.991 1057.42 279.427 1057.42 275.032C1057.42 270.637 1060.98 267.074 1065.37 267.074C1069.77 267.074 1073.33 270.637 1073.33 275.032C1073.33 279.427 1069.77 282.991 1065.37 282.991Z" fill="white"/>
<path opacity="0.55" d="M1065.37 394.407C1060.98 394.407 1057.42 390.646 1057.42 386.007C1057.42 381.367 1060.98 377.606 1065.37 377.606C1069.77 377.606 1073.33 381.367 1073.33 386.007C1073.33 390.646 1069.77 394.407 1065.37 394.407Z" fill="white"/>
<path opacity="0.55" d="M1065.37 255.579C1060.98 255.579 1057.42 251.817 1057.42 247.178C1057.42 242.539 1060.98 238.778 1065.37 238.778C1069.77 238.778 1073.33 242.539 1073.33 247.178C1073.33 251.817 1069.77 255.579 1065.37 255.579Z" fill="white"/>
<path opacity="0.55" d="M1065.37 366.111C1060.98 366.111 1057.42 362.548 1057.42 358.153C1057.42 353.757 1060.98 350.194 1065.37 350.194C1069.77 350.194 1073.33 353.757 1073.33 358.153C1073.33 362.548 1069.77 366.111 1065.37 366.111Z" fill="white"/>
<path opacity="0.55" d="M1065.37 311.287C1060.98 311.287 1057.42 307.526 1057.42 302.886C1057.42 298.247 1060.98 294.486 1065.37 294.486C1069.77 294.486 1073.33 298.247 1073.33 302.886C1073.33 307.526 1069.77 311.287 1065.37 311.287Z" fill="white"/>
<path opacity="0.55" d="M1065.37 421.819C1060.98 421.819 1057.42 418.256 1057.42 413.861C1057.42 409.466 1060.98 405.903 1065.37 405.903C1069.77 405.903 1073.33 409.466 1073.33 413.861C1073.33 418.256 1069.77 421.819 1065.37 421.819Z" fill="white"/>
<path opacity="0.55" d="M1010.54 227.282C1006.15 227.282 1002.58 223.719 1002.58 219.324C1002.58 214.929 1006.15 211.365 1010.54 211.365C1014.94 211.365 1018.5 214.929 1018.5 219.324C1018.5 223.719 1014.94 227.282 1010.54 227.282Z" fill="white"/>
<path opacity="0.55" d="M1010.54 338.699C1006.15 338.699 1002.58 334.938 1002.58 330.298C1002.58 325.659 1006.15 321.898 1010.54 321.898C1014.94 321.898 1018.5 325.659 1018.5 330.298C1018.5 334.938 1014.94 338.699 1010.54 338.699Z" fill="white"/>
<path opacity="0.55" d="M1010.54 282.991C1006.15 282.991 1002.58 279.427 1002.58 275.032C1002.58 270.637 1006.15 267.074 1010.54 267.074C1014.94 267.074 1018.5 270.637 1018.5 275.032C1018.5 279.427 1014.94 282.991 1010.54 282.991Z" fill="white"/>
<path opacity="0.55" d="M1010.54 394.407C1006.15 394.407 1002.58 390.646 1002.58 386.007C1002.58 381.367 1006.15 377.606 1010.54 377.606C1014.94 377.606 1018.5 381.367 1018.5 386.007C1018.5 390.646 1014.94 394.407 1010.54 394.407Z" fill="white"/>
<path opacity="0.55" d="M1010.54 255.579C1006.15 255.579 1002.58 251.817 1002.58 247.178C1002.58 242.539 1006.15 238.778 1010.54 238.778C1014.94 238.778 1018.5 242.539 1018.5 247.178C1018.5 251.817 1014.94 255.579 1010.54 255.579Z" fill="white"/>
<path opacity="0.55" d="M1010.54 366.111C1006.15 366.111 1002.58 362.548 1002.58 358.153C1002.58 353.757 1006.15 350.194 1010.54 350.194C1014.94 350.194 1018.5 353.757 1018.5 358.153C1018.5 362.548 1014.94 366.111 1010.54 366.111Z" fill="white"/>
<path opacity="0.55" d="M1010.54 311.287C1006.15 311.287 1002.58 307.526 1002.58 302.886C1002.58 298.247 1006.15 294.486 1010.54 294.486C1014.94 294.486 1018.5 298.247 1018.5 302.886C1018.5 307.526 1014.94 311.287 1010.54 311.287Z" fill="white"/>
<path opacity="0.55" d="M1010.54 421.819C1006.15 421.819 1002.58 418.256 1002.58 413.861C1002.58 409.466 1006.15 405.903 1010.54 405.903C1014.94 405.903 1018.5 409.466 1018.5 413.861C1018.5 418.256 1014.94 421.819 1010.54 421.819Z" fill="white"/>
<path opacity="0.55" d="M1037.96 227.282C1033.56 227.282 1030 223.719 1030 219.324C1030 214.929 1033.56 211.365 1037.96 211.365C1042.36 211.365 1045.92 214.929 1045.92 219.324C1045.92 223.719 1042.36 227.282 1037.96 227.282Z" fill="white"/>
<path opacity="0.55" d="M1037.96 338.699C1033.56 338.699 1030 334.938 1030 330.298C1030 325.659 1033.56 321.898 1037.96 321.898C1042.36 321.898 1045.92 325.659 1045.92 330.298C1045.92 334.938 1042.36 338.699 1037.96 338.699Z" fill="white"/>
<path opacity="0.55" d="M1037.96 282.991C1033.56 282.991 1030 279.427 1030 275.032C1030 270.637 1033.56 267.074 1037.96 267.074C1042.36 267.074 1045.92 270.637 1045.92 275.032C1045.92 279.427 1042.36 282.991 1037.96 282.991Z" fill="white"/>
<path opacity="0.55" d="M1037.96 394.407C1033.56 394.407 1030 390.646 1030 386.007C1030 381.367 1033.56 377.606 1037.96 377.606C1042.36 377.606 1045.92 381.367 1045.92 386.007C1045.92 390.646 1042.36 394.407 1037.96 394.407Z" fill="white"/>
<path opacity="0.55" d="M1037.96 255.579C1033.56 255.579 1030 251.817 1030 247.178C1030 242.539 1033.56 238.778 1037.96 238.778C1042.36 238.778 1045.92 242.539 1045.92 247.178C1045.92 251.817 1042.36 255.579 1037.96 255.579Z" fill="white"/>
<path opacity="0.55" d="M1037.96 366.111C1033.56 366.111 1030 362.548 1030 358.153C1030 353.757 1033.56 350.194 1037.96 350.194C1042.36 350.194 1045.92 353.757 1045.92 358.153C1045.92 362.548 1042.36 366.111 1037.96 366.111Z" fill="white"/>
<path opacity="0.55" d="M1037.96 311.287C1033.56 311.287 1030 307.526 1030 302.886C1030 298.247 1033.56 294.486 1037.96 294.486C1042.36 294.486 1045.92 298.247 1045.92 302.886C1045.92 307.526 1042.36 311.287 1037.96 311.287Z" fill="white"/>
<path opacity="0.55" d="M1037.96 421.819C1033.56 421.819 1030 418.256 1030 413.861C1030 409.466 1033.56 405.903 1037.96 405.903C1042.36 405.903 1045.92 409.466 1045.92 413.861C1045.92 418.256 1042.36 421.819 1037.96 421.819Z" fill="white"/>
<path opacity="0.55" d="M983.128 227.282C978.732 227.282 975.169 223.719 975.169 219.324C975.169 214.929 978.732 211.365 983.128 211.365C987.524 211.365 991.087 214.929 991.087 219.324C991.087 223.719 987.524 227.282 983.128 227.282Z" fill="white"/>
<path opacity="0.55" d="M983.128 338.699C978.732 338.699 975.169 334.938 975.169 330.298C975.169 325.659 978.732 321.898 983.128 321.898C987.524 321.898 991.087 325.659 991.087 330.298C991.087 334.938 987.524 338.699 983.128 338.699Z" fill="white"/>
<path opacity="0.55" d="M983.128 282.991C978.732 282.991 975.169 279.427 975.169 275.032C975.169 270.637 978.732 267.074 983.128 267.074C987.524 267.074 991.087 270.637 991.087 275.032C991.087 279.427 987.524 282.991 983.128 282.991Z" fill="white"/>
<path opacity="0.55" d="M983.128 394.407C978.732 394.407 975.169 390.646 975.169 386.007C975.169 381.367 978.732 377.606 983.128 377.606C987.524 377.606 991.087 381.367 991.087 386.007C991.087 390.646 987.524 394.407 983.128 394.407Z" fill="white"/>
<path opacity="0.55" d="M983.128 255.579C978.732 255.579 975.169 251.817 975.169 247.178C975.169 242.539 978.732 238.778 983.128 238.778C987.524 238.778 991.087 242.539 991.087 247.178C991.087 251.817 987.524 255.579 983.128 255.579Z" fill="white"/>
<path opacity="0.55" d="M983.128 366.111C978.732 366.111 975.169 362.548 975.169 358.153C975.169 353.757 978.732 350.194 983.128 350.194C987.524 350.194 991.087 353.757 991.087 358.153C991.087 362.548 987.524 366.111 983.128 366.111Z" fill="white"/>
<path opacity="0.55" d="M983.128 311.287C978.732 311.287 975.169 307.526 975.169 302.886C975.169 298.247 978.732 294.486 983.128 294.486C987.524 294.486 991.087 298.247 991.087 302.886C991.087 307.526 987.524 311.287 983.128 311.287Z" fill="white"/>
<path opacity="0.55" d="M983.128 421.819C978.732 421.819 975.169 418.256 975.169 413.861C975.169 409.466 978.732 405.903 983.128 405.903C987.524 405.903 991.087 409.466 991.087 413.861C991.087 418.256 987.524 421.819 983.128 421.819Z" fill="white"/>
<path opacity="0.55" d="M955.712 227.282C951.317 227.282 947.753 223.719 947.753 219.324C947.753 214.929 951.317 211.365 955.712 211.365C960.108 211.365 963.672 214.929 963.672 219.324C963.672 223.719 960.108 227.282 955.712 227.282Z" fill="white"/>
<path opacity="0.55" d="M955.712 338.699C951.317 338.699 947.753 334.938 947.753 330.298C947.753 325.659 951.317 321.898 955.712 321.898C960.108 321.898 963.672 325.659 963.672 330.298C963.672 334.938 960.108 338.699 955.712 338.699Z" fill="white"/>
<path opacity="0.55" d="M955.712 282.991C951.317 282.991 947.753 279.427 947.753 275.032C947.753 270.637 951.317 267.074 955.712 267.074C960.108 267.074 963.672 270.637 963.672 275.032C963.672 279.427 960.108 282.991 955.712 282.991Z" fill="white"/>
<path opacity="0.55" d="M955.712 394.407C951.317 394.407 947.753 390.646 947.753 386.007C947.753 381.367 951.317 377.606 955.712 377.606C960.108 377.606 963.672 381.367 963.672 386.007C963.672 390.646 960.108 394.407 955.712 394.407Z" fill="white"/>
<path opacity="0.55" d="M955.712 255.579C951.317 255.579 947.753 251.817 947.753 247.178C947.753 242.539 951.317 238.778 955.712 238.778C960.108 238.778 963.672 242.539 963.672 247.178C963.672 251.817 960.108 255.579 955.712 255.579Z" fill="white"/>
<path opacity="0.55" d="M955.712 366.111C951.317 366.111 947.753 362.548 947.753 358.153C947.753 353.757 951.317 350.194 955.712 350.194C960.108 350.194 963.672 353.757 963.672 358.153C963.672 362.548 960.108 366.111 955.712 366.111Z" fill="white"/>
<path opacity="0.55" d="M955.712 311.287C951.317 311.287 947.753 307.526 947.753 302.886C947.753 298.247 951.317 294.486 955.712 294.486C960.108 294.486 963.672 298.247 963.672 302.886C963.672 307.526 960.108 311.287 955.712 311.287Z" fill="white"/>
<path opacity="0.55" d="M955.712 421.819C951.317 421.819 947.753 418.256 947.753 413.861C947.753 409.466 951.317 405.903 955.712 405.903C960.108 405.903 963.672 409.466 963.672 413.861C963.672 418.256 960.108 421.819 955.712 421.819Z" fill="white"/>
<path opacity="0.26" d="M1276.06 762.091L1715.32 1157.55C1746.05 1185.21 1748.53 1232.55 1720.86 1263.27C1693.19 1294 1645.85 1296.48 1615.12 1268.81L1175.86 873.355C1145.13 845.69 1142.65 798.356 1170.32 767.632C1197.99 736.907 1245.33 734.427 1276.06 762.091Z" fill="url(#paint4_linear_2_191)"/>
<path opacity="0.26" d="M984.835 880.583L1877.41 1684.15C1908.14 1711.82 1910.62 1759.15 1882.95 1789.88C1855.28 1820.6 1807.94 1823.08 1777.21 1795.42L884.64 991.846C853.911 964.182 851.43 916.848 879.098 886.123C906.766 855.398 954.107 852.918 984.835 880.583Z" fill="url(#paint5_linear_2_191)"/>
<path opacity="0.26" d="M1235.07 952.905L1717.53 1387.25C1736.33 1404.18 1737.84 1433.14 1720.92 1451.94C1703.99 1470.73 1675.02 1472.25 1656.22 1455.33L1173.77 1020.98C1154.97 1004.05 1153.45 975.093 1170.38 956.295C1187.31 937.497 1216.27 935.98 1235.07 952.905Z" fill="url(#paint6_linear_2_191)"/>
<path opacity="0.26" d="M940.209 1066.58L1498.94 1569.6C1517.38 1586.2 1518.87 1614.6 1502.27 1633.03C1485.67 1651.47 1457.26 1652.96 1438.83 1636.36L880.092 1133.34C861.655 1116.74 860.166 1088.34 876.767 1069.9C893.368 1051.47 921.772 1049.98 940.209 1066.58Z" fill="url(#paint7_linear_2_191)"/>
</g>
<defs>
<linearGradient id="paint0_linear_2_191" x1="-49.706" y1="-264.63" x2="727.852" y2="396.153" gradientUnits="userSpaceOnUse">
<stop stop-color="#5AE6F9"/>
<stop offset="1" stop-color="#58EAF9"/>
</linearGradient>
<linearGradient id="paint1_linear_2_191" x1="-106.183" y1="101.669" x2="893.974" y2="357.083" gradientUnits="userSpaceOnUse">
<stop stop-color="#57EDF9"/>
<stop offset="0.140625" stop-color="#65BFFD"/>
</linearGradient>
<linearGradient id="paint2_linear_2_191" x1="-333.747" y1="-277.055" x2="455.165" y2="369.027" gradientUnits="userSpaceOnUse">
<stop stop-color="#5AE6F9"/>
<stop offset="1" stop-color="#58EAF9"/>
</linearGradient>
<linearGradient id="paint3_linear_2_191" x1="-282.94" y1="318.744" x2="16.4469" y2="162.717" gradientUnits="userSpaceOnUse">
<stop stop-color="#5BDEFA"/>
<stop offset="1" stop-color="#65BDFD"/>
</linearGradient>
<linearGradient id="paint4_linear_2_191" x1="1075.03" y1="584.529" x2="1852.58" y2="1245.31" gradientUnits="userSpaceOnUse">
<stop stop-color="#5AE6F9"/>
<stop offset="1" stop-color="#58EAF9"/>
</linearGradient>
<linearGradient id="paint5_linear_2_191" x1="1181.27" y1="1069.32" x2="2181.43" y2="1324.73" gradientUnits="userSpaceOnUse">
<stop stop-color="#57EDF9"/>
<stop offset="0.140625" stop-color="#65BFFD"/>
</linearGradient>
<linearGradient id="paint6_linear_2_191" x1="1056.3" y1="794.054" x2="1845.21" y2="1440.14" gradientUnits="userSpaceOnUse">
<stop stop-color="#5AE6F9"/>
<stop offset="1" stop-color="#58EAF9"/>
</linearGradient>
<linearGradient id="paint7_linear_2_191" x1="809.07" y1="1067.1" x2="1108.46" y2="911.071" gradientUnits="userSpaceOnUse">
<stop stop-color="#5BDEFA"/>
<stop offset="1" stop-color="#65BDFD"/>
</linearGradient>
</defs>
</svg>
