<svg width="278" height="67" viewBox="0 0 278 67" fill="none" xmlns="http://www.w3.org/2000/svg">
<path d="M34.3754 47.028C32.84 47.0273 31.3648 47.6253 30.2632 48.6948C29.1615 49.7643 28.5202 51.2212 28.4755 52.756C25.956 53.665 23.2915 54.1056 20.6135 54.056C20.4937 53.2429 20.1361 52.4833 19.5858 51.8729C19.0355 51.2624 18.3169 50.8283 17.5205 50.6252C16.7241 50.4221 15.8854 50.4591 15.11 50.7315C14.3345 51.0039 13.6569 51.4995 13.1624 52.156C9.97996 50.4705 7.26555 48.0217 5.26244 45.029C5.69462 44.479 5.91699 43.7931 5.88976 43.0942C5.86253 42.3952 5.58748 41.7287 5.11382 41.214C4.64016 40.6992 3.9988 40.3698 3.30449 40.2847C2.61019 40.1996 1.90825 40.3643 1.32427 40.7494C0.740294 41.1344 0.31239 41.7147 0.117117 42.3864C-0.0781562 43.0581 -0.0280404 43.7774 0.258474 44.4155C0.544989 45.0536 1.04917 45.569 1.6809 45.8694C2.31262 46.1698 3.03062 46.2355 3.70641 46.055C5.86718 49.4404 8.83731 52.2342 12.3484 54.184C12.3301 54.3427 12.3208 54.5022 12.3204 54.662C12.3205 55.5594 12.6103 56.4328 13.1467 57.1522C13.683 57.8717 14.4373 58.3987 15.2974 58.655C16.1574 58.9113 17.0771 58.8832 17.9198 58.5747C18.7625 58.2662 19.4831 57.6939 19.9744 56.943C23.4421 57.6168 26.9915 57.7655 30.5034 57.384C31.2233 58.0071 32.0833 58.4467 33.01 58.6653C33.9367 58.8839 34.9025 58.875 35.825 58.6394C36.7475 58.4037 37.5992 57.9484 38.3075 57.3121C39.0158 56.6758 39.5596 55.8776 39.8924 54.9855C40.2253 54.0935 40.3373 53.1342 40.2189 52.1894C40.1006 51.2447 39.7553 50.3427 39.2126 49.5604C38.67 48.778 37.9461 48.1386 37.1027 47.6968C36.2593 47.2549 35.3216 47.0238 34.3694 47.023L34.3754 47.028Z" fill="#0092CE"/>
<path d="M40.5064 23.286C41.3261 24.5841 42.6194 25.5116 44.1118 25.8716C45.6042 26.2316 47.1782 25.9957 48.4995 25.214C50.6143 26.8579 52.4105 28.8747 53.7995 31.165C53.1765 31.7009 52.7259 32.409 52.5044 33.2003C52.2828 33.9915 52.3001 34.8307 52.5542 35.6122C52.8082 36.3936 53.2876 37.0825 53.9321 37.5923C54.5766 38.102 55.3575 38.4098 56.1765 38.477C56.4497 42.0665 55.8282 45.6678 54.3675 48.958C53.6709 48.8863 52.9716 49.0649 52.3946 49.4617C51.8177 49.8584 51.4007 50.4476 51.2184 51.1237C51.0361 51.7997 51.1003 52.5186 51.3995 53.1517C51.6987 53.7847 52.2135 54.2907 52.8516 54.579C53.4897 54.8673 54.2096 54.9191 54.8824 54.7252C55.5553 54.5312 56.1372 54.1042 56.524 53.5205C56.9108 52.9368 57.0772 52.2345 56.9936 51.5393C56.9099 50.8441 56.5817 50.2013 56.0675 49.726C57.7757 46.0911 58.5514 42.0879 58.3245 38.078C59.1702 37.6713 59.8538 36.9911 60.2647 36.1474C60.6755 35.3037 60.7895 34.3461 60.5881 33.4296C60.3867 32.513 59.8818 31.6913 59.1552 31.0975C58.4285 30.5038 57.5227 30.1727 56.5844 30.158C55.3021 26.8659 53.532 23.7855 51.3335 21.02C51.4757 20.0786 51.3879 19.1168 51.0778 18.2167C50.7676 17.3166 50.2443 16.505 49.5524 15.851C48.8605 15.1971 48.0206 14.7203 47.1045 14.4613C46.1883 14.2023 45.2231 14.1689 44.2913 14.3639C43.3594 14.5589 42.4886 14.9765 41.7531 15.581C41.0177 16.1855 40.4394 16.9591 40.0678 17.8356C39.6961 18.7121 39.5421 19.6654 39.6188 20.6144C39.6955 21.5633 40.0008 22.4796 40.5085 23.285L40.5064 23.286Z" fill="#0092CE"/>
<path d="M16.4665 28.835C17.2333 27.505 17.4515 25.9284 17.0747 24.4401C16.6979 22.9518 15.7558 21.669 14.4485 20.864C14.9189 18.2268 15.8679 15.6978 17.2485 13.402C18.0129 13.7037 18.8495 13.7726 19.653 13.6001C20.4565 13.4275 21.191 13.0213 21.7642 12.4323C22.3374 11.8434 22.7237 11.0982 22.8744 10.2903C23.0252 9.48244 22.9337 8.648 22.6114 7.89199C25.6605 5.9782 29.1366 4.85055 32.7284 4.61001C32.9892 5.25969 33.4727 5.79537 34.0923 6.12118C34.7119 6.44699 35.4272 6.54167 36.1103 6.38827C36.7933 6.23487 37.3995 5.84343 37.8203 5.28396C38.2411 4.72449 38.449 4.03353 38.407 3.33474C38.3649 2.63595 38.0755 1.97493 37.5906 1.47C37.1057 0.965064 36.457 0.649153 35.7605 0.578823C35.064 0.508493 34.3652 0.688342 33.7891 1.08615C33.2131 1.48395 32.7974 2.07376 32.6164 2.75003C28.6044 2.93184 24.7009 4.11034 21.2585 6.17904C21.1302 6.08391 20.9966 5.99611 20.8584 5.91604C20.0809 5.46634 19.1788 5.28 18.2867 5.38479C17.3946 5.48959 16.5603 5.87987 15.9081 6.49752C15.2559 7.11518 14.8208 7.92712 14.6677 8.81222C14.5146 9.69732 14.6517 10.6082 15.0585 11.409C12.7433 14.0763 10.8424 17.0765 9.41942 20.309C8.52015 20.6217 7.7099 21.1473 7.05785 21.8411C6.4058 22.5348 5.93136 23.3761 5.67498 24.293C5.4186 25.2099 5.38791 26.1753 5.58556 27.1066C5.78321 28.0379 6.2033 28.9076 6.80999 29.6414C7.41667 30.3751 8.19196 30.9511 9.06957 31.3203C9.94718 31.6894 10.9011 31.8407 11.8498 31.7612C12.7986 31.6817 13.714 31.3737 14.5179 30.8637C15.3219 30.3536 15.9904 29.6565 16.4665 28.832V28.835Z" fill="#0092CE"/>
<path d="M23.0922 37.8259C23.0922 37.8259 20.8352 10.0469 49.3082 8.48494C49.3082 8.48494 20.1402 2.92895 18.4082 37.8259H23.0922Z" fill="#020F2B"/>
<path d="M39.0015 36.763C39.0015 36.763 16.4295 53.112 0.314453 29.586C0.314453 29.586 10.7065 57.4 41.4345 40.77L39.0015 36.763Z" fill="#020F2B"/>
<path d="M30.5488 23.699C30.5488 23.699 55.7128 35.681 42.7808 61.099C42.7808 61.099 62.2178 38.653 32.8998 19.646L30.5488 23.699Z" fill="#020F2B"/>
<path d="M53.2969 16.178C53.2969 16.178 69.6249 30.708 60.6799 46.678C60.6799 46.678 73.6109 32.646 56.5959 14.227L53.2969 16.178Z" fill="#020F2B"/>
<path d="M4.52014 21.722C4.52014 21.722 9.16315 0.363971 27.4702 0.315971C27.4702 0.315971 8.89712 -4.06099 1.20312 19.804L4.52014 21.722Z" fill="#020F2B"/>
<path d="M34.1275 61.197C34.1275 61.197 13.5555 68.582 3.81055 53.084C3.81055 53.084 9.94452 71.152 34.2595 65.025L34.1275 61.197Z" fill="#020F2B"/>
<path d="M86.5297 11.8289V34.154H100.43V38.866H81.4297V11.8289H86.5297Z" fill="#020F2B"/>
<path d="M124.188 38.866H103.949V11.8289H124.188V16.773H109.009V22.991H123.647V27.741H109.009V33.841H124.188V38.866Z" fill="#020F2B"/>
<path d="M136.704 16.464H128.129V11.8289H150.377V16.464H141.803V38.864H136.703L136.704 16.464Z" fill="#020F2B"/>
<path d="M177.954 18.356C177.027 16.811 174.478 15.343 171.542 15.343C167.757 15.343 165.942 16.927 165.942 18.935C165.942 21.291 168.723 21.948 171.967 22.335C177.606 23.035 182.859 24.498 182.859 30.948C182.859 36.973 177.529 39.561 171.504 39.561C165.98 39.561 161.732 37.861 159.723 32.918L163.972 30.718C165.172 33.692 168.298 35.005 171.581 35.005C174.787 35.005 177.799 33.885 177.799 30.949C177.799 28.4 175.134 27.3569 171.542 26.9709C166.019 26.3139 160.921 24.847 160.921 18.783C160.921 13.221 166.406 10.942 171.388 10.904C175.598 10.904 179.962 12.1039 182.009 16.2729L177.954 18.356Z" fill="#020F2B"/>
<path d="M226.116 11.868V27.36C226.116 35.36 221.211 39.449 214.416 39.449C207.927 39.449 202.404 35.509 202.404 27.36V11.868H207.464V27.36C207.464 32.227 210.245 34.815 214.455 34.815C218.665 34.815 221.055 31.995 221.055 27.36V11.868H226.116Z" fill="#0092CE"/>
<path d="M247.786 18.356C246.859 16.811 244.31 15.343 241.375 15.343C237.59 15.343 235.775 16.927 235.775 18.935C235.775 21.291 238.556 21.948 241.8 22.335C247.439 23.035 252.692 24.498 252.692 30.948C252.692 36.973 247.362 39.561 241.337 39.561C235.814 39.561 231.565 37.861 229.557 32.918L233.805 30.718C235.005 33.692 238.131 35.005 241.414 35.005C244.62 35.005 247.633 33.885 247.633 30.949C247.633 28.4 244.968 27.3569 241.376 26.9709C235.853 26.3139 230.754 24.847 230.754 18.783C230.754 13.221 236.239 10.942 241.221 10.904C245.431 10.904 249.796 12.1039 251.843 16.2729L247.786 18.356Z" fill="#0092CE"/>
<path d="M276.792 38.866H256.553V11.8289H276.792V16.773H261.613V22.991H276.253V27.741H261.613V33.841H276.792V38.866Z" fill="#0092CE"/>
<path d="M157.303 10.902H153.613V19.974H157.303V10.902Z" fill="#020F2B"/>
<path d="M234 53H81V55H234V53Z" fill="#020F2B"/>
<path d="M248.33 52.765C248.379 53.4099 248.29 54.0579 248.067 54.6653C247.845 55.2727 247.496 55.8256 247.042 56.2868C246.589 56.748 246.042 57.107 245.439 57.3395C244.835 57.5721 244.189 57.6728 243.543 57.635H239.781V48.055H243.543C244.175 48.0173 244.808 48.1127 245.401 48.335C245.993 48.5573 246.533 48.9017 246.984 49.3456C247.435 49.7896 247.788 50.3234 248.02 50.9124C248.252 51.5014 248.358 52.1326 248.33 52.765V52.765ZM241.572 55.898H243.542C244.341 55.8776 245.101 55.5458 245.659 54.9734C246.217 54.4011 246.529 53.6333 246.529 52.834C246.529 52.0347 246.217 51.267 245.659 50.6946C245.101 50.1222 244.341 49.7904 243.542 49.77H241.572V55.898Z" fill="#020F2B"/>
<path d="M254.881 50.886H256.481V57.63H254.908L254.826 56.645C254.593 57.0129 254.269 57.3153 253.886 57.5235C253.503 57.7317 253.073 57.8389 252.637 57.835C251.708 57.8083 250.827 57.4191 250.181 56.7506C249.535 56.0821 249.176 55.1874 249.182 54.258C249.187 53.3285 249.556 52.4381 250.209 51.7771C250.863 51.1161 251.749 50.737 252.678 50.721C253.1 50.7053 253.519 50.7978 253.895 50.9894C254.271 51.181 254.591 51.4656 254.826 51.816L254.881 50.886ZM250.832 54.251C250.815 54.5204 250.855 54.7904 250.949 55.0436C251.043 55.2968 251.188 55.5274 251.377 55.7208C251.565 55.9141 251.792 56.0658 252.043 56.1661C252.294 56.2664 252.563 56.313 252.832 56.303C255.459 56.303 255.459 52.213 252.832 52.213C252.563 52.2012 252.295 52.2462 252.044 52.345C251.794 52.4438 251.567 52.5941 251.378 52.7863C251.19 52.9785 251.043 53.2083 250.949 53.4606C250.855 53.7129 250.816 53.9822 250.832 54.251V54.251Z" fill="#020F2B"/>
<path d="M259.957 48.985V50.9H261.817V52.336H259.943V55.25C259.925 55.3728 259.935 55.4981 259.971 55.6169C260.008 55.7356 260.07 55.8447 260.154 55.9364C260.237 56.028 260.341 56.1 260.455 56.1469C260.57 56.1939 260.694 56.2148 260.818 56.208C261.099 56.2002 261.375 56.1301 261.625 56.003L262.09 57.426C261.652 57.6091 261.183 57.7065 260.708 57.713C260.377 57.7532 260.041 57.7168 259.726 57.6067C259.411 57.4965 259.126 57.3155 258.892 57.0777C258.658 56.8398 258.482 56.5514 258.377 56.2346C258.272 55.9179 258.241 55.5814 258.287 55.2509V52.3369H257.029V50.901H258.287V49.164L259.957 48.985Z" fill="#020F2B"/>
<path d="M268.411 50.886H270.011V57.63H268.438L268.356 56.645C268.122 57.0131 267.798 57.3156 267.415 57.5238C267.032 57.732 266.603 57.8391 266.167 57.835C265.238 57.8083 264.356 57.4191 263.71 56.7506C263.064 56.0821 262.706 55.1874 262.711 54.258C262.716 53.3285 263.085 52.4381 263.739 51.7771C264.392 51.1161 265.278 50.737 266.208 50.721C266.629 50.7053 267.048 50.7976 267.424 50.9893C267.8 51.181 268.121 51.4655 268.356 51.816L268.411 50.886ZM264.362 54.251C264.345 54.5205 264.384 54.7905 264.478 55.0436C264.572 55.2968 264.718 55.5275 264.906 55.7208C265.095 55.9141 265.322 56.0658 265.572 56.1661C265.823 56.2664 266.092 56.3131 266.362 56.303C268.988 56.303 268.988 52.213 266.362 52.213C266.093 52.2014 265.824 52.2465 265.574 52.3453C265.323 52.4442 265.096 52.5946 264.908 52.7867C264.719 52.9789 264.573 53.2085 264.479 53.4608C264.385 53.7131 264.345 53.9823 264.362 54.251V54.251Z" fill="#020F2B"/>
<g clip-path="url(#clip0_2938_8984)">
<path d="M273.545 46.9375H271.117C271.053 46.9375 271 46.9902 271 47.0547V47.4756C271 47.54 271.053 47.5928 271.117 47.5928H271.948V49.9453C271.948 50.0098 272.001 50.0625 272.065 50.0625H272.596C272.66 50.0625 272.713 50.0098 272.713 49.9453V47.5928H273.544C273.608 47.5928 273.661 47.54 273.661 47.4756V47.0547C273.662 46.9902 273.609 46.9375 273.545 46.9375ZM277.25 49.9355L277.016 47.0449C277.011 46.9844 276.96 46.9375 276.898 46.9375H276.26C276.21 46.9375 276.165 46.9697 276.149 47.0166L275.722 48.2578C275.651 48.459 275.564 48.7734 275.564 48.7734H275.556C275.556 48.7734 275.469 48.459 275.398 48.2578L274.971 47.0166C274.954 46.9697 274.91 46.9375 274.86 46.9375H274.222C274.161 46.9375 274.11 46.9844 274.104 47.0449L273.866 49.9355C273.86 50.0039 273.914 50.0625 273.983 50.0625H274.516C274.577 50.0625 274.628 50.0146 274.633 49.9531L274.722 48.6553C274.739 48.4189 274.722 48.1309 274.722 48.1309H274.73C274.73 48.1309 274.835 48.459 274.905 48.6553L275.205 49.4824C275.222 49.5283 275.266 49.5596 275.315 49.5596H275.807C275.856 49.5596 275.9 49.5283 275.917 49.4824L276.217 48.6553C276.287 48.459 276.392 48.1309 276.392 48.1309H276.4C276.4 48.1309 276.383 48.4189 276.4 48.6553L276.489 49.9531C276.493 50.0146 276.545 50.0625 276.606 50.0625H277.133C277.201 50.0625 277.255 50.0039 277.25 49.9355V49.9355Z" fill="#020F2B"/>
</g>
<defs>
<clipPath id="clip0_2938_8984">
<rect width="6.25" height="5" fill="white" transform="translate(271 46)"/>
</clipPath>
</defs>
</svg>
