<svg width="17" height="23" viewBox="0 0 17 23" fill="none"
    xmlns="http://www.w3.org/2000/svg">
    <path d="M10.7084 2.05518C11.323 1.74964 12.0454 1.65873 12.7604 1.85032C14.3163 2.26723 15.2397 3.86655 14.8228 5.42249L12.4503 14.2768C12.0334 15.8328 10.434 16.7561 8.87811 16.3392C7.32216 15.9223 6.3988 14.323 6.81571 12.767L7.76472 9.2253C7.87192 8.8252 7.63448 8.41395 7.23439 8.30674C6.83429 8.19954 6.42303 8.43698 6.31583 8.83708L5.36682 12.3788C4.7355 14.7349 6.13374 17.1568 8.48988 17.7881C10.846 18.4194 13.2678 17.0212 13.8992 14.665L16.2717 5.81072C16.903 3.45458 15.5048 1.03275 13.1486 0.401427C12.0672 0.111652 10.9701 0.249988 10.0407 0.711984C9.47083 0.99527 8.96281 1.4007 8.55828 1.90504C8.29911 2.22815 8.35094 2.70019 8.67406 2.95936C8.99717 3.21853 9.46921 3.1667 9.72838 2.84358C9.99495 2.51125 10.3307 2.24292 10.7084 2.05518Z" fill="currentColor"/>
    <path d="M4.22299 8.2763C4.6399 6.72036 6.23922 5.79699 7.79516 6.21391C9.3511 6.63082 10.2745 8.23013 9.85755 9.78608L8.90855 13.3278C8.80134 13.7279 9.03878 14.1392 9.43888 14.2464C9.83898 14.3536 10.2502 14.1161 10.3574 13.716L11.3064 10.1743C11.9378 7.81816 10.5395 5.39634 8.18339 4.76502C5.82725 4.13369 3.40542 5.53193 2.7741 7.88807L0.40159 16.7424C-0.229736 19.0985 1.1685 21.5204 3.52465 22.1517C4.6061 22.4415 5.70319 22.3031 6.63256 21.8411C7.20244 21.5578 7.71046 21.1524 8.11499 20.6481C8.37416 20.325 8.32232 19.8529 7.99921 19.5937C7.6761 19.3346 7.20406 19.3864 6.94489 19.7095C6.67832 20.0419 6.34253 20.3102 5.96485 20.4979C5.35022 20.8035 4.62787 20.8944 3.91287 20.7028C2.35693 20.2859 1.43357 18.6866 1.85048 17.1306L4.22299 8.2763Z" fill="currentColor"/>
</svg>
    