<svg width="18" height="18" viewBox="0 0 18 18" fill="none"
    xmlns="http://www.w3.org/2000/svg">
    <path d="M3.25 0H11.5V18H3.25C2.38805 18 1.5614 17.6576 0.951903 17.0481C0.34241 16.4386 0 15.612 0 14.75V3.25C0 2.38805 0.34241 1.5614 0.951903 0.951903C1.5614 0.34241 2.38805 0 3.25 0V0ZM14.75 18H13V13H18V14.75C18 15.612 17.6576 16.4386 17.0481 17.0481C16.4386 17.6576 15.612 18 14.75 18V18ZM18 11.5H13V6.5H18V11.5ZM13 5V0H14.75C15.612 0 16.4386 0.34241 17.0481 0.951903C17.6576 1.5614 18 2.38805 18 3.25V5H13ZM3 10.75C3 11.164 3.336 11.5 3.75 11.5H8.25C8.44891 11.5 8.63968 11.421 8.78033 11.2803C8.92098 11.1397 9 10.9489 9 10.75C9 10.5511 8.92098 10.3603 8.78033 10.2197C8.63968 10.079 8.44891 10 8.25 10H3.75C3.55109 10 3.36032 10.079 3.21967 10.2197C3.07902 10.3603 3 10.5511 3 10.75V10.75ZM4.25 3.5C3.56 3.5 3 4.06 3 4.75V7.25C3 7.94 3.56 8.5 4.25 8.5H7.75C8.44 8.5 9 7.94 9 7.25V4.75C9 4.06 8.44 3.5 7.75 3.5H4.25ZM4.5 7V5H7.5V7H4.5ZM3 13.75C3 14.164 3.336 14.5 3.75 14.5H8.25C8.44891 14.5 8.63968 14.421 8.78033 14.2803C8.92098 14.1397 9 13.9489 9 13.75C9 13.5511 8.92098 13.3603 8.78033 13.2197C8.63968 13.079 8.44891 13 8.25 13H3.75C3.55109 13 3.36032 13.079 3.21967 13.2197C3.07902 13.3603 3 13.5511 3 13.75V13.75Z" fill="currentColor"/>
</svg>
    