<svg width="16" height="16" viewBox="0 0 16 16" fill="none" xmlns="http://www.w3.org/2000/svg">
    <path fill-rule="evenodd" clip-rule="evenodd" d="M0.5 8C0.5 4.87522 0.5 3.31283 1.29576 2.21756C1.55276 1.86383 1.86383 1.55276 2.21756 1.29576C3.31283 0.5 4.87522 0.5 8 0.5C11.1248 0.5 12.6872 0.5 13.7824 1.29576C14.1362 1.55276 14.4472 1.86383 14.7042 2.21756C15.5 3.31283 15.5 4.87522 15.5 8C15.5 11.1248 15.5 12.6872 14.7042 13.7824C14.4472 14.1362 14.1362 14.4472 13.7824 14.7042C12.6872 15.5 11.1248 15.5 8 15.5C4.87522 15.5 3.31283 15.5 2.21756 14.7042C1.86383 14.4472 1.55276 14.1362 1.29576 13.7824C0.5 12.6872 0.5 11.1248 0.5 8ZM8 6.54167C8.34518 6.54167 8.625 6.82149 8.625 7.16667V12.1667C8.625 12.5118 8.34518 12.7917 8 12.7917C7.65482 12.7917 7.375 12.5118 7.375 12.1667V7.16667C7.375 6.82149 7.65482 6.54167 8 6.54167ZM8 5.5C8.46024 5.5 8.83333 5.1269 8.83333 4.66667C8.83333 4.20643 8.46024 3.83333 8 3.83333C7.53976 3.83333 7.16667 4.20643 7.16667 4.66667C7.16667 5.1269 7.53976 5.5 8 5.5Z" fill="currentColor" />
</svg>
    