<svg width="18" height="17" viewBox="0 0 18 17" fill="none" xmlns="http://www.w3.org/2000/svg">
    <path fill-rule="evenodd" clip-rule="evenodd" d="M10.667 0.666626C12.0227 0.666626 12.9847 0.666626 13.7275 0.755684C13.3771 1.18597 13.167 1.7351 13.167 2.33329C13.167 3.714 14.2863 4.83329 15.667 4.83329C16.2652 4.83329 16.8143 4.62319 17.2446 4.27276C17.3337 5.01564 17.3337 5.97755 17.3337 7.33329V8.32014C17.3337 9.72776 17.3337 10.4316 17.1653 11.0057C16.766 12.3674 15.7011 13.4323 14.3394 13.8316C13.7653 14 13.0615 14 11.6538 14H11.1965L11.1423 14C10.2921 14.0055 9.46386 14.2709 8.76886 14.7606L8.72467 14.7921L6.54906 16.3461C5.80324 16.8788 4.82318 16.1095 5.16358 15.2585C5.4047 14.6557 4.96075 14 4.3115 14H3.81004C2.07418 14 0.666992 12.5928 0.666992 10.8569V7.33329C0.666992 4.99974 0.666992 3.83296 1.12113 2.94167C1.5206 2.15766 2.15802 1.52024 2.94203 1.12077C3.83333 0.666626 5.00011 0.666626 7.33366 0.666626H10.667ZM6.50033 7.33329C6.50033 7.79353 6.12723 8.16663 5.66699 8.16663C5.20676 8.16663 4.83366 7.79353 4.83366 7.33329C4.83366 6.87306 5.20676 6.49996 5.66699 6.49996C6.12723 6.49996 6.50033 6.87306 6.50033 7.33329ZM9.83366 7.33329C9.83366 7.79353 9.46056 8.16663 9.00033 8.16663C8.54009 8.16663 8.16699 7.79353 8.16699 7.33329C8.16699 6.87306 8.54009 6.49996 9.00033 6.49996C9.46056 6.49996 9.83366 6.87306 9.83366 7.33329ZM12.3337 8.16663C12.7939 8.16663 13.167 7.79353 13.167 7.33329C13.167 6.87306 12.7939 6.49996 12.3337 6.49996C11.8734 6.49996 11.5003 6.87306 11.5003 7.33329C11.5003 7.79353 11.8734 8.16663 12.3337 8.16663Z" fill="currentColor" />
    <path d="M17.3337 2.33329C17.3337 3.25377 16.5875 3.99996 15.667 3.99996C14.7465 3.99996 14.0003 3.25377 14.0003 2.33329C14.0003 1.41282 14.7465 0.666626 15.667 0.666626C16.5875 0.666626 17.3337 1.41282 17.3337 2.33329Z" fill="currentColor" />
</svg>