<svg width="20" height="20" viewBox="0 0 20 20" fill="none" xmlns="http://www.w3.org/2000/svg">
    <path fill-rule="evenodd" clip-rule="evenodd" d="M18.3939 13.1713C20.2215 9.67062 18.4817 5.51814 16.4817 3.51819C12.9019 -0.0616184 7.09791 -0.0616184 3.51811 3.51819C-0.0616995 7.09799 -0.0616995 12.902 3.51811 16.4818C5.60314 18.5668 9.68454 20.2359 13.1724 18.3961C13.5309 18.207 13.7102 18.1125 13.7979 18.0772C14.168 17.9284 14.3627 17.9057 14.757 17.9655C14.8505 17.9797 14.9726 18.0114 15.217 18.0747C15.9501 18.2647 16.3167 18.3598 16.5839 18.3501C17.5446 18.3155 18.3155 17.5447 18.3501 16.584C18.3597 16.3168 18.2647 15.9503 18.0747 15.2172C18.0113 14.9729 17.9797 14.8506 17.9655 14.7578C17.9054 14.3634 17.927 14.1743 18.0745 13.8037C18.1093 13.7164 18.2041 13.5347 18.3939 13.1713ZM7.11967 9.86975C7.11967 10.376 6.70926 10.7864 6.203 10.7864C5.69674 10.7864 5.28634 10.376 5.28634 9.86975C5.28634 9.36349 5.69674 8.95308 6.203 8.95308C6.70926 8.95308 7.11967 9.36349 7.11967 9.86975ZM10.7863 9.86975C10.7863 10.376 10.3759 10.7864 9.86967 10.7864C9.36341 10.7864 8.953 10.376 8.953 9.86975C8.953 9.36349 9.36341 8.95308 9.86967 8.95308C10.3759 8.95308 10.7863 9.36349 10.7863 9.86975ZM13.5363 10.7864C14.0426 10.7864 14.453 10.376 14.453 9.86975C14.453 9.36349 14.0426 8.95308 13.5363 8.95308C13.0301 8.95308 12.6197 9.36349 12.6197 9.86975C12.6197 10.376 13.0301 10.7864 13.5363 10.7864Z" fill="currentColor" />
</svg>
    