<svg width="22" height="21" viewBox="0 0 22 21" fill="none"
    xmlns="http://www.w3.org/2000/svg">
    <path d="M3.06107 19.2164L3.50191 18.6096H3.50191L3.06107 19.2164ZM1.95491 18.1102L1.34815 18.5511L1.34815 18.5511L1.95491 18.1102ZM16.9389 19.2164L16.4981 18.6096H16.4981L16.9389 19.2164ZM18.0451 18.1102L17.4383 17.6694L18.0451 18.1102ZM1.95491 4.23238L1.34815 3.79155L1.34815 3.79155L1.95491 4.23238ZM3.06107 3.12623L3.50191 3.73299V3.73299L3.06107 3.12623ZM8.00899 2.92846C8.42317 2.9235 8.75491 2.58371 8.74995 2.16953C8.74498 1.75534 8.40519 1.42361 7.99101 1.42857L8.00899 2.92846ZM19.7427 13.1803C19.7477 12.7661 19.416 12.4263 19.0018 12.4214C18.5876 12.4164 18.2478 12.7481 18.2428 13.1623L19.7427 13.1803ZM10.7976 15.1758L10.7147 14.4303L10.7976 15.1758ZM6.67777 14.8783L6.14744 15.4086L6.14744 15.4086L6.67777 14.8783ZM6.3803 10.7585L7.12571 10.8413L6.3803 10.7585ZM7.5274 8.3718L6.99707 7.84147L7.5274 8.3718ZM6.64293 9.41572L5.96696 9.09083L5.96695 9.09083L6.64293 9.41572ZM13.1843 14.0287L13.7146 14.559L13.1843 14.0287ZM12.1403 14.9131L12.4652 15.5891H12.4652L12.1403 14.9131ZM10 19.4213C8.10843 19.4213 6.74999 19.4203 5.69804 19.3063C4.66013 19.1939 4.00992 18.9787 3.50191 18.6096L2.62024 19.8232C3.42656 20.409 4.37094 20.6713 5.53648 20.7976C6.68798 20.9223 8.14184 20.9213 10 20.9213V19.4213ZM0.25 11.1713C0.25 13.0295 0.248971 14.4833 0.373728 15.6348C0.500006 16.8004 0.762324 17.7448 1.34815 18.5511L2.56168 17.6694C2.19259 17.1614 1.97745 16.5112 1.865 15.4733C1.75103 14.4213 1.75 13.0629 1.75 11.1713H0.25ZM3.50191 18.6096C3.14111 18.3475 2.82382 18.0302 2.56168 17.6694L1.34815 18.5511C1.70281 19.0392 2.13209 19.4685 2.62024 19.8232L3.50191 18.6096ZM10 20.9213C11.8582 20.9213 13.312 20.9223 14.4635 20.7976C15.6291 20.6713 16.5734 20.409 17.3798 19.8232L16.4981 18.6096C15.9901 18.9787 15.3399 19.1939 14.302 19.3063C13.25 19.4203 11.8916 19.4213 10 19.4213V20.9213ZM17.4383 17.6694C17.1762 18.0302 16.8589 18.3475 16.4981 18.6096L17.3798 19.8232C17.8679 19.4685 18.2972 19.0392 18.6518 18.5511L17.4383 17.6694ZM1.75 11.1713C1.75 9.27974 1.75103 7.9213 1.865 6.86936C1.97745 5.83144 2.19259 5.18123 2.56168 4.67322L1.34815 3.79155C0.762324 4.59787 0.500006 5.54225 0.373728 6.70779C0.248971 7.85929 0.25 9.31315 0.25 11.1713H1.75ZM2.62023 2.51946C2.13209 2.87412 1.70281 3.3034 1.34815 3.79155L2.56168 4.67322C2.82382 4.31242 3.14111 3.99513 3.50191 3.73299L2.62023 2.51946ZM7.99101 1.42857C5.56449 1.45766 3.89894 1.59043 2.62023 2.51946L3.50191 3.73299C4.33627 3.1268 5.50819 2.95844 8.00899 2.92846L7.99101 1.42857ZM18.2428 13.1623C18.2129 15.6631 18.0445 16.835 17.4383 17.6694L18.6518 18.5511C19.5809 17.2724 19.7137 15.6068 19.7427 13.1803L18.2428 13.1623ZM18.0257 8.12652L12.6539 13.4983L13.7146 14.559L19.0864 9.18718L18.0257 8.12652ZM8.05773 8.90213L13.4295 3.53033L12.3689 2.46967L6.99707 7.84147L8.05773 8.90213ZM10.7147 14.4303C9.54475 14.5603 8.74843 14.647 8.15674 14.6279C7.58517 14.6094 7.35441 14.4943 7.2081 14.348L6.14744 15.4086C6.68084 15.942 7.36328 16.103 8.10833 16.1271C8.83326 16.1505 9.75698 16.046 10.8804 15.9212L10.7147 14.4303ZM5.63488 10.6757C5.51006 11.7991 5.40557 12.7228 5.42898 13.4477C5.45304 14.1928 5.61405 14.8752 6.14744 15.4086L7.2081 14.348C7.06179 14.2016 6.94665 13.9709 6.9282 13.3993C6.90909 12.8076 6.99571 12.0113 7.12571 10.8413L5.63488 10.6757ZM6.99707 7.84147C6.54195 8.2966 6.18261 8.64213 5.96696 9.09083L7.31891 9.74061C7.39835 9.57533 7.53029 9.42957 8.05773 8.90213L6.99707 7.84147ZM7.12571 10.8413C7.20808 10.1 7.23947 9.90589 7.31891 9.74061L5.96695 9.09083C5.7513 9.53953 5.70596 10.036 5.63488 10.6757L7.12571 10.8413ZM12.6539 13.4983C12.1265 14.0258 11.9807 14.1577 11.8155 14.2372L12.4652 15.5891C12.9139 15.3734 13.2595 15.0141 13.7146 14.559L12.6539 13.4983ZM10.8804 15.9212C11.5201 15.8501 12.0165 15.8048 12.4652 15.5891L11.8155 14.2372C11.6502 14.3166 11.4561 14.348 10.7147 14.4303L10.8804 15.9212ZM18.0257 3.53033C18.7074 4.21199 19.1642 4.67101 19.4598 5.05849C19.7422 5.42866 19.8061 5.64413 19.8061 5.82843H21.3061C21.3061 5.1843 21.0366 4.65222 20.6523 4.14862C20.2813 3.66232 19.7381 3.12134 19.0864 2.46967L18.0257 3.53033ZM19.0864 9.18718C19.7381 8.53551 20.2813 7.99453 20.6523 7.50824C21.0366 7.00463 21.3061 6.47256 21.3061 5.82843H19.8061C19.8061 6.01272 19.7422 6.22819 19.4598 6.59836C19.1642 6.98584 18.7074 7.44486 18.0257 8.12652L19.0864 9.18718ZM19.0864 2.46967C18.4347 1.818 17.8937 1.27476 17.4074 0.903733C16.9038 0.519499 16.3718 0.25 15.7276 0.25V1.75C15.9119 1.75 16.1274 1.81383 16.4976 2.09627C16.8851 2.3919 17.3441 2.84867 18.0257 3.53033L19.0864 2.46967ZM13.4295 3.53033C14.1112 2.84867 14.5702 2.3919 14.9577 2.09627C15.3279 1.81383 15.5433 1.75 15.7276 1.75V0.25C15.0835 0.25 14.5514 0.519499 14.0478 0.903733C13.5615 1.27476 13.0206 1.818 12.3689 2.46967L13.4295 3.53033ZM19.0864 8.12652L13.4295 2.46967L12.3689 3.53033L18.0257 9.18718L19.0864 8.12652Z" fill="currentColor"/>
</svg>
