<svg width="18" height="21" viewBox="0 0 18 21" fill="none" xmlns="http://www.w3.org/2000/svg">
    <path fill-rule="evenodd" clip-rule="evenodd" d="M2.49841 6.59536C2.07724 3.22603 4.70442 0.25 8.09998 0.25H9.80289C13.202 0.25 15.832 3.22918 15.4104 6.60208L15.3458 7.11901C15.2208 8.11912 15.5844 9.11833 16.3229 9.8042L16.3668 9.84496C17.9801 11.3432 18.2932 13.7799 17.1111 15.6373C16.3385 16.8513 15.0431 17.6235 13.6225 17.7358L13.4312 18.0636C12.4184 19.7998 10.8404 20.75 9.18339 20.75C7.52636 20.75 5.94835 19.7998 4.93556 18.0636L4.74728 17.7409C3.05598 17.6356 1.54092 16.6282 0.794769 15.09L0.691418 14.8769C-0.155232 13.1315 0.240863 11.0375 1.66654 9.72195C2.35455 9.08706 2.69388 8.15916 2.57776 7.23021L2.49841 6.59536ZM6.52013 17.75C7.27948 18.7877 8.26226 19.25 9.18339 19.25C10.1045 19.25 11.0873 18.7877 11.8467 17.75H6.52013Z" fill="currentColor" />
</svg>
    