<svg width="18" height="18" viewBox="0 0 18 18" fill="none" xmlns="http://www.w3.org/2000/svg">
    <path fill-rule="evenodd" clip-rule="evenodd" d="M9.04148 0.0625001C10.725 0.0624926 12.0446 0.0624867 13.0916 0.175918C14.16 0.291672 15.0257 0.53213 15.7648 1.06914C16.2122 1.39424 16.6058 1.78775 16.9309 2.23522C17.4679 2.97435 17.7083 3.84003 17.8241 4.90844C17.9375 5.95538 17.9375 7.27498 17.9375 8.95843V9.0415C17.9375 10.7249 17.9375 12.0446 17.8241 13.0916C17.7083 14.16 17.4679 15.0257 16.9309 15.7648C16.6058 16.2122 16.2122 16.6058 15.7648 16.9309C15.0257 17.4679 14.16 17.7083 13.0916 17.8241C12.0446 17.9375 10.725 17.9375 9.04157 17.9375H8.9585C7.27505 17.9375 5.95538 17.9375 4.90844 17.8241C3.84003 17.7083 2.97435 17.4679 2.23522 16.9309C1.78775 16.6058 1.39424 16.2122 1.06914 15.7648C0.53213 15.0257 0.291672 14.16 0.175918 13.0916C0.0624867 12.0446 0.0624926 10.725 0.0625001 9.04148V8.95852C0.0624926 7.27503 0.0624867 5.95539 0.175918 4.90844C0.291672 3.84003 0.53213 2.97435 1.06914 2.23522C1.39424 1.78775 1.78775 1.39424 2.23522 1.06914C2.97435 0.53213 3.84003 0.291672 4.90844 0.175918C5.9554 0.0624867 7.27503 0.0624926 8.95852 0.0625001H9.04148ZM9.6875 4.41667C9.6875 4.03697 9.3797 3.72917 9 3.72917C8.62031 3.72917 8.3125 4.03697 8.3125 4.41667V7.73355L6.0485 5.46955C5.78002 5.20107 5.34472 5.20107 5.07623 5.46955C4.80775 5.73804 4.80775 6.17334 5.07623 6.44182L6.94691 8.3125H4.41667C4.03697 8.3125 3.72917 8.62031 3.72917 9C3.72917 9.3797 4.03697 9.6875 4.41667 9.6875H7.34023L5.07636 11.9514C4.80788 12.2198 4.80788 12.6552 5.07636 12.9236C5.34485 13.1921 5.78015 13.1921 6.04864 12.9236L8.3125 10.6598V13.5833C8.3125 13.963 8.62031 14.2708 9 14.2708C9.3797 14.2708 9.6875 13.963 9.6875 13.5833V11.0531L11.558 12.9236C11.8265 13.1921 12.2618 13.1921 12.5303 12.9236C12.7988 12.6552 12.7988 12.2198 12.5303 11.9514L10.2665 9.6875H13.5833C13.963 9.6875 14.2708 9.3797 14.2708 9C14.2708 8.62031 13.963 8.3125 13.5833 8.3125H10.6598L12.5304 6.44182C12.7989 6.17334 12.7989 5.73804 12.5304 5.46955C12.262 5.20107 11.8267 5.20107 11.5582 5.46955L9.6875 7.34023V4.41667Z" fill="currentColor" />
</svg>
    