<svg width="8" height="12" viewBox="0 0 8 12" fill="none"
    xmlns="http://www.w3.org/2000/svg">
    <path fill-rule="evenodd" clip-rule="evenodd" d="M5.3904 10.2391C6.54527 8.76643 8 6.62684 8 5.19323C8 2.81601 6.20914 0.888885 4 0.888885C1.79086 0.888885 0 2.81601 0 5.19323C0 6.62684 1.45473 8.76643 2.6096 10.2391C3.21212 11.0075 3.51338 11.3916 4 11.3916C4.48662 11.3916 4.78788 11.0075 5.3904 10.2391ZM5.792 4.62417C5.92195 4.4629 5.89655 4.22683 5.73529 4.09688C5.57402 3.96694 5.33794 3.99233 5.208 4.1536L4.19725 5.40799C3.98971 5.66556 3.85876 5.82664 3.74977 5.92841C3.69856 5.97624 3.66584 5.99752 3.64705 6.00693C3.63305 6.01394 3.62805 6.0139 3.62536 6.01389H3.62464C3.62195 6.0139 3.61695 6.01394 3.60295 6.00693C3.58416 5.99752 3.55144 5.97624 3.50023 5.92841C3.39124 5.82664 3.26029 5.66556 3.05275 5.40799L2.792 5.08439C2.66206 4.92312 2.42598 4.89773 2.26471 5.02767C2.10345 5.15762 2.07805 5.39369 2.208 5.55496L2.48503 5.89878C2.67129 6.12997 2.83561 6.33394 2.98832 6.47655C3.15228 6.62967 3.35613 6.76389 3.625 6.76389C3.89387 6.76389 4.09772 6.62967 4.26168 6.47655C4.41438 6.33394 4.5787 6.12998 4.76496 5.89879L5.792 4.62417Z" fill="currentColor"/>
</svg>
    