<svg width="10" height="11" viewBox="0 0 10 11" fill="none"
    xmlns="http://www.w3.org/2000/svg">
    <path d="M6.58198 4.61889C6.60935 4.88683 6.625 5.14618 6.625 5.38889C6.625 5.84324 6.57008 6.35626 6.48611 6.87499C5.96738 6.95896 5.45435 7.01389 5 7.01389C4.54771 7.01389 4.03483 6.95913 3.51386 6.87482C3.42991 6.35615 3.375 5.84319 3.375 5.38889C3.375 5.14626 3.39066 4.88691 3.41804 4.61889C3.9648 4.70641 4.51023 4.76389 5.00001 4.76389C5.4898 4.76389 6.03523 4.70641 6.58198 4.61889Z" fill="currentColor"/>
    <path d="M7.32153 4.48385C7.35536 4.79741 7.375 5.10271 7.375 5.38889C7.375 5.80647 7.33321 6.26457 7.26663 6.7295C8.2107 6.53251 9.08335 6.28082 9.55079 6.13756C9.70188 6.09126 9.76122 6.07285 9.84087 6.04099C9.88066 6.02507 9.91715 6.00887 9.9647 5.98616C9.98801 5.79032 10 5.591 10 5.38889C10 4.85461 9.9162 4.33991 9.76103 3.8572L9.7206 3.86992C9.23183 4.01862 8.31674 4.2815 7.32153 4.48385Z" fill="currentColor"/>
    <path d="M9.47698 3.16006C8.98561 3.30899 8.13284 3.55098 7.21899 3.73938C7.00849 2.45996 6.6395 1.18389 6.46199 0.606019C7.78202 1.00901 8.87015 1.94349 9.47698 3.16006Z" fill="currentColor"/>
    <path d="M6.48175 3.87569C5.96444 3.95927 5.45302 4.01389 5.00001 4.01389C4.54701 4.01389 4.03561 3.95927 3.5183 3.87569C3.71653 2.6651 4.07039 1.42844 4.25132 0.838091C4.29763 0.687009 4.31604 0.627667 4.3479 0.548018C4.36382 0.50823 4.38001 0.471733 4.40273 0.42419C4.59857 0.400878 4.79788 0.388885 5 0.388885C5.21113 0.388885 5.41921 0.401972 5.62347 0.427378C5.62781 0.443951 5.63181 0.458784 5.63577 0.472817C5.64746 0.514281 5.6658 0.572554 5.69656 0.670333L5.69979 0.680604C5.85404 1.1709 6.26279 2.53842 6.48175 3.87569Z" fill="currentColor"/>
    <path d="M2.78097 3.73936C2.99053 2.46559 3.35708 1.19639 3.53425 0.618318L3.53802 0.606014C2.21798 1.009 1.12986 1.94348 0.523022 3.16006C1.01437 3.30897 1.86712 3.55096 2.78097 3.73936Z" fill="currentColor"/>
    <path d="M0.238971 3.8572C0.0837991 4.3399 0 4.85461 0 5.38889C0 5.59789 0.0128241 5.8039 0.0377283 6.00618L0.116528 6.03244L0.117155 6.03266L0.117928 6.03291L0.118472 6.03309C0.143834 6.04149 0.887169 6.28697 1.86609 6.53053C2.14231 6.59926 2.4348 6.66719 2.73336 6.72943C2.66678 6.26452 2.625 5.80645 2.625 5.38889C2.625 5.10262 2.64464 4.79732 2.67844 4.48383C1.68299 4.28144 0.767705 4.01846 0.279032 3.86978L0.275634 3.86875L0.238971 3.8572Z" fill="currentColor"/>
    <path d="M5 7.76389C5.41759 7.76389 5.87569 7.7221 6.34062 7.65551C6.14362 8.59958 5.89194 9.47223 5.74868 9.93967C5.70238 10.0908 5.68396 10.1501 5.6521 10.2298C5.63619 10.2695 5.61999 10.306 5.59727 10.3536C5.40143 10.3769 5.20212 10.3889 5 10.3889C4.79788 10.3889 4.59857 10.3769 4.40273 10.3536C4.38001 10.306 4.36382 10.2695 4.3479 10.2298C4.31604 10.1501 4.29763 10.0908 4.25132 9.93968C4.10807 9.47227 3.85641 8.59969 3.65942 7.65568C4.12282 7.72203 4.58098 7.76389 5 7.76389Z" fill="currentColor"/>
    <path d="M1.685 7.25834C1.06597 7.10432 0.538739 6.94961 0.217127 6.85086C0.701228 8.43659 1.9523 9.68765 3.53802 10.1718L3.53425 10.1595C3.37955 9.6547 3.08046 8.62301 2.86757 7.52145C2.45357 7.44139 2.05106 7.34942 1.685 7.25834Z" fill="currentColor"/>
    <path d="M9.77057 6.85464C9.26579 7.00934 8.23406 7.30845 7.13245 7.52133C6.91956 8.62293 6.62046 9.65466 6.46576 10.1594L6.46199 10.1718C8.0477 9.68765 9.29877 8.43659 9.78287 6.85087L9.77057 6.85464Z" fill="currentColor"/>
    <path d="M0.0525255 6.01886C0.0698338 6.02112 0.0839405 6.02348 0.0886221 6.02455C0.0927239 6.02557 0.0991469 6.02726 0.101478 6.0279L0.106624 6.02938L0.109394 6.03021L0.112309 6.03111L0.114752 6.03188C0.11338 6.03145 0.0855988 6.02449 0.0525255 6.01886Z" fill="currentColor"/>
</svg>
    