<svg width="19" height="14" viewBox="0 0 19 14" fill="none"
    xmlns="http://www.w3.org/2000/svg">
    <path d="M6.84777 6.2081C6.1629 5.52702 5.73893 4.58385 5.73893 3.54167C5.73893 2.49948 6.1629 1.55632 6.84777 0.875239C6.45346 0.681635 6.00994 0.572918 5.54102 0.572918C3.90142 0.572918 2.57227 1.90207 2.57227 3.54167C2.57227 5.18126 3.90142 6.51042 5.54102 6.51042C6.00994 6.51042 6.45346 6.4017 6.84777 6.2081Z" fill="currentColor"/>
    <path d="M6.5306 3.54167C6.5306 1.90207 7.85975 0.572918 9.49935 0.572918C11.1389 0.572918 12.4681 1.90207 12.4681 3.54167C12.4681 5.18126 11.1389 6.51042 9.49935 6.51042C7.85975 6.51042 6.5306 5.18126 6.5306 3.54167Z" fill="currentColor"/>
    <path d="M12.1509 0.875239C12.8358 1.55632 13.2598 2.49948 13.2598 3.54167C13.2598 4.58385 12.8358 5.52702 12.1509 6.2081C12.5452 6.4017 12.9888 6.51042 13.4577 6.51042C15.0973 6.51042 16.4264 5.18126 16.4264 3.54167C16.4264 1.90207 15.0973 0.572918 13.4577 0.572918C12.9888 0.572918 12.5452 0.681635 12.1509 0.875239Z" fill="currentColor"/>
    <path d="M4.1556 10.6667C4.1556 9.02707 5.48475 7.69792 7.12435 7.69792H11.8744C13.5139 7.69792 14.8431 9.02707 14.8431 10.6667C14.8431 12.3063 13.5139 13.6354 11.8744 13.6354H7.12435C5.48475 13.6354 4.1556 12.3063 4.1556 10.6667Z" fill="currentColor"/>
    <path d="M0.197266 9.875C0.197266 8.23541 1.52642 6.90625 3.16602 6.90625H7.12435C5.04753 6.90625 3.36393 8.58985 3.36393 10.6667C3.36393 11.478 3.62089 12.2294 4.05787 12.8438H3.16602C1.52642 12.8438 0.197266 11.5146 0.197266 9.875Z" fill="currentColor"/>
    <path d="M15.6348 10.6667C15.6348 11.478 15.3778 12.2294 14.9408 12.8438H15.8327C17.4723 12.8438 18.8014 11.5146 18.8014 9.875C18.8014 8.23541 17.4723 6.90625 15.8327 6.90625H11.8744C13.9512 6.90625 15.6348 8.58985 15.6348 10.6667Z" fill="currentColor"/>
</svg>
    