<svg width="21" height="21" viewBox="0 0 21 21" fill="none" xmlns="http://www.w3.org/2000/svg">
    <path d="M20.5 10.5C20.5 13.1522 19.4464 15.6957 17.5711 17.5711C15.6957 19.4464 13.1522 20.5 10.5 20.5C7.84784 20.5 5.3043 19.4464 3.42893 17.5711C1.55357 15.6957 0.5 13.1522 0.5 10.5C0.5 7.84784 1.55357 5.3043 3.42893 3.42893C5.3043 1.55357 7.84784 0.5 10.5 0.5C13.1522 0.5 15.6957 1.55357 17.5711 3.42893C19.4464 5.3043 20.5 7.84784 20.5 10.5ZM7.37 8.04125H8.40125C8.57375 8.04125 8.71125 7.9 8.73375 7.72875C8.84625 6.90875 9.40875 6.31125 10.4113 6.31125C11.2688 6.31125 12.0538 6.74 12.0538 7.77125C12.0538 8.565 11.5863 8.93 10.8475 9.485C10.0062 10.0963 9.34 10.81 9.3875 11.9688L9.39125 12.24C9.39256 12.322 9.42606 12.4002 9.48453 12.4577C9.54299 12.5153 9.62173 12.5475 9.70375 12.5475H10.7175C10.8004 12.5475 10.8799 12.5146 10.9385 12.456C10.9971 12.3974 11.03 12.3179 11.03 12.235V12.1038C11.03 11.2063 11.3713 10.945 12.2925 10.2463C13.0538 9.6675 13.8475 9.025 13.8475 7.67625C13.8475 5.7875 12.2525 4.875 10.5063 4.875C8.9225 4.875 7.1875 5.6125 7.06875 7.7325C7.06704 7.77287 7.0736 7.81316 7.08804 7.8509C7.10248 7.88863 7.12448 7.92302 7.15269 7.95194C7.18091 7.98085 7.21474 8.0037 7.25211 8.01906C7.28949 8.03442 7.3296 8.04197 7.37 8.04125ZM10.2762 16.095C11.0387 16.095 11.5625 15.6025 11.5625 14.9362C11.5625 14.2463 11.0375 13.7613 10.2762 13.7613C9.54625 13.7613 9.015 14.2463 9.015 14.9362C9.015 15.6025 9.54625 16.095 10.2775 16.095H10.2762Z" fill="currentColor" />
</svg>