<svg width="24" height="18" viewBox="0 0 24 18" fill="none"
    xmlns="http://www.w3.org/2000/svg">
    <path d="M7.26321 12.9C7.08321 12.9 6.9182 12.84 6.7832 12.705L3.79821 9.71999C3.52821 9.44999 3.52821 9.02999 3.79821 8.75999C4.06821 8.48999 4.4882 8.48999 4.7582 8.75999L7.2782 11.265L13.2632 5.29499C13.5332 5.02499 13.9532 5.02499 14.2232 5.29499C14.4932 5.56499 14.4932 5.98499 14.2232 6.25499L7.7582 12.705C7.6082 12.84 7.44321 12.9 7.26321 12.9Z" fill="currentColor"/>
    <path d="M13.2632 12.9C13.0832 12.9 12.9182 12.84 12.7832 12.705L9.79821 9.71999C9.52821 9.44999 9.52821 9.02999 9.79821 8.75999C10.0682 8.48999 10.4882 8.48999 10.7582 8.75999L13.2782 11.265L19.2632 5.29499C19.5332 5.02499 19.9532 5.02499 20.2232 5.29499C20.4932 5.56499 20.4932 5.98499 20.2232 6.25499L13.7582 12.705C13.6082 12.84 13.4432 12.9 13.2632 12.9Z" fill="currentColor"/>
</svg>
