<svg width="16" height="18" viewBox="0 0 16 18" fill="none" xmlns="http://www.w3.org/2000/svg">
    <path fill-rule="evenodd" clip-rule="evenodd" d="M1.29576 2.38422C0.5 3.47949 0.5 5.04188 0.5 8.16666V9.83332C0.5 12.9581 0.5 14.5205 1.29576 15.6158C1.55276 15.9695 1.86383 16.2806 2.21756 16.5376C3.31283 17.3333 4.87522 17.3333 8 17.3333C11.1248 17.3333 12.6872 17.3333 13.7824 16.5376C14.1362 16.2806 14.4472 15.9695 14.7042 15.6158C15.5 14.5205 15.5 12.9581 15.5 9.83332V8.16666C15.5 5.04188 15.5 3.47949 14.7042 2.38422C14.4472 2.03049 14.1362 1.71942 13.7824 1.46242C12.6872 0.666656 11.1248 0.666656 8 0.666656C4.87522 0.666656 3.31283 0.666656 2.21756 1.46242C1.86383 1.71942 1.55276 2.03049 1.29576 2.38422ZM4.66667 5.04166C4.32149 5.04166 4.04167 5.32148 4.04167 5.66666C4.04167 6.01183 4.32149 6.29166 4.66667 6.29166H11.3333C11.6785 6.29166 11.9583 6.01183 11.9583 5.66666C11.9583 5.32148 11.6785 5.04166 11.3333 5.04166H4.66667ZM6.33333 8.37499C5.98816 8.37499 5.70833 8.65481 5.70833 8.99999C5.70833 9.34517 5.98816 9.62499 6.33333 9.62499H9.66667C10.0118 9.62499 10.2917 9.34517 10.2917 8.99999C10.2917 8.65481 10.0118 8.37499 9.66667 8.37499H6.33333ZM4.66667 11.7083C4.32149 11.7083 4.04167 11.9881 4.04167 12.3333C4.04167 12.6785 4.32149 12.9583 4.66667 12.9583H11.3333C11.6785 12.9583 11.9583 12.6785 11.9583 12.3333C11.9583 11.9881 11.6785 11.7083 11.3333 11.7083H4.66667Z" fill="#A0A0A0" />
</svg>
    