<svg width="18" height="19" viewBox="0 0 18 19" fill="none" xmlns="http://www.w3.org/2000/svg">
    <path d="M3.97312 1.52971C4.24266 1.31408 4.28636 0.920768 4.07073 0.65123C3.85509 0.381691 3.46179 0.33799 3.19225 0.553621L1.10891 2.22029C0.839376 2.43592 0.795675 2.82923 1.01131 3.09877C1.22694 3.3683 1.62024 3.412 1.88978 3.19637L3.97312 1.52971Z" fill="currentColor" />
    <path d="M14.8065 0.553621C14.5369 0.33799 14.1436 0.381691 13.928 0.65123C13.7123 0.920768 13.756 1.31408 14.0256 1.52971L16.1089 3.19637C16.3785 3.412 16.7718 3.3683 16.9874 3.09877C17.203 2.82923 17.1593 2.43592 16.8898 2.22029L14.8065 0.553621Z" fill="currentColor" />
    <path fill-rule="evenodd" clip-rule="evenodd" d="M8.99935 1.04167C4.0518 1.04167 0.0410156 5.05245 0.0410156 10C0.0410156 14.9475 4.0518 18.9583 8.99935 18.9583C13.9469 18.9583 17.9577 14.9475 17.9577 10C17.9577 5.05245 13.9469 1.04167 8.99935 1.04167ZM9.62435 6.66667C9.62435 6.32149 9.34453 6.04167 8.99935 6.04167C8.65417 6.04167 8.37435 6.32149 8.37435 6.66667L8.37435 9.58333C8.37435 10.6189 9.21382 11.4583 10.2493 11.4583H11.4993C11.8445 11.4583 12.1243 11.1785 12.1243 10.8333C12.1243 10.4882 11.8445 10.2083 11.4993 10.2083H10.2493C9.90417 10.2083 9.62435 9.92851 9.62435 9.58333L9.62435 6.66667Z" fill="currentColor" />
</svg>