<svg width="24" height="28" viewBox="0 0 24 28" fill="none" xmlns="http://www.w3.org/2000/svg">
<path fill-rule="evenodd" clip-rule="evenodd" d="M2.7481 1.93989C2.88829 1.83803 3.03326 1.74433 3.18391 1.65812C3.2323 1.7659 3.30075 1.86687 3.38926 1.95537C5.11 3.67604 6.46066 5.02456 7.65128 5.97749C8.85664 6.94221 9.98545 7.57544 11.286 7.78143C12.0806 7.90729 12.8901 7.90729 13.6847 7.78143C14.9489 7.5812 16.0506 6.97735 17.2183 6.05778C18.3711 5.14993 19.6652 3.87036 21.2942 2.2425C21.3465 2.19027 21.3918 2.13369 21.4301 2.07393C21.9227 2.45767 22.3593 2.90896 22.7268 3.41476C24 5.1672 24 7.66702 24 12.6667V15.3333C24 20.333 24 22.8328 22.7268 24.5852C22.3156 25.1512 21.8179 25.6489 21.2519 26.0601C19.4995 27.3333 16.9996 27.3333 12 27.3333C7.00036 27.3333 4.50054 27.3333 2.7481 26.0601C2.18213 25.6489 1.68442 25.1512 1.27322 24.5852C0 22.8328 0 20.333 0 15.3333V12.6667C0 7.66702 0 5.1672 1.27322 3.41476C1.68442 2.8488 2.18213 2.35108 2.7481 1.93989ZM6.66667 10.3333C6.11438 10.3333 5.66667 10.781 5.66667 11.3333C5.66667 11.8856 6.11438 12.3333 6.66667 12.3333H17.3333C17.8856 12.3333 18.3333 11.8856 18.3333 11.3333C18.3333 10.781 17.8856 10.3333 17.3333 10.3333H6.66667ZM6.66667 15.6667C6.11438 15.6667 5.66667 16.1144 5.66667 16.6667C5.66667 17.219 6.11438 17.6667 6.66667 17.6667H17.3333C17.8856 17.6667 18.3333 17.219 18.3333 16.6667C18.3333 16.1144 17.8856 15.6667 17.3333 15.6667H6.66667ZM6.66667 21C6.11438 21 5.66667 21.4477 5.66667 22C5.66667 22.5523 6.11438 23 6.66667 23H17.3333C17.8856 23 18.3333 22.5523 18.3333 22C18.3333 21.4477 17.8856 21 17.3333 21H6.66667Z" fill="#9B51E0"/>
<path d="M12 0.666666C15.5999 0.666666 17.9038 0.666666 19.5658 1.14196C18.072 2.63185 16.9546 3.71966 15.9809 4.48653C14.9548 5.29459 14.1683 5.6799 13.3718 5.80606C12.7845 5.89908 12.1862 5.89908 11.5989 5.80606C10.7795 5.67628 9.97091 5.27233 8.90102 4.41603C7.90484 3.61872 6.75869 2.4939 5.22213 0.959566C6.81165 0.666666 8.93655 0.666666 12 0.666666Z" fill="#9B51E0"/>
</svg>
