<svg width="20" height="20" viewBox="0 0 20 20" fill="none" xmlns="http://www.w3.org/2000/svg">
<path d="M3.97011 6.19535C6.71529 4.81401 10.1471 5.27047 12.4385 7.56474C14.6732 9.80226 15.1621 13.1258 13.9052 15.8386C14.0797 15.7539 14.2525 15.6591 14.423 15.5536C14.5924 15.4488 14.677 15.3964 14.741 15.371C14.8635 15.3225 14.9563 15.3085 15.0875 15.3186C15.1562 15.3239 15.234 15.3441 15.3895 15.3845C16.3684 15.6385 16.8579 15.7655 17.2105 15.6937C17.8225 15.569 18.3008 15.0901 18.4253 14.4773C18.4971 14.1243 18.3702 13.6342 18.1165 12.6541C18.0762 12.4983 18.056 12.4204 18.0507 12.3514C18.0407 12.22 18.055 12.126 18.1037 12.0035C18.1292 11.9392 18.1815 11.8551 18.286 11.6867C20.1728 8.64667 18.7126 4.9612 16.8694 3.11566C13.8301 0.0725496 8.90242 0.0725496 5.86313 3.11566C4.96919 4.01073 4.33818 5.06937 3.97011 6.19535Z" fill="#A0A0A0"/>
<path fill-rule="evenodd" clip-rule="evenodd" d="M4.74067 18.4559C7.24653 20.0064 10.334 18.746 11.79 17.2883C14.2929 14.7822 14.2929 10.719 11.79 8.2129C9.28705 5.70681 5.22898 5.70681 2.72604 8.2129C1.20809 9.73276 0.00551605 12.7678 1.55941 15.2714C1.64546 15.4101 1.68849 15.4794 1.70954 15.5323C1.74965 15.6331 1.76144 15.7106 1.75314 15.8188C1.74879 15.8756 1.73219 15.9398 1.69898 16.068C1.49003 16.8752 1.38556 17.2788 1.44465 17.5696C1.54722 18.0742 1.94111 18.4686 2.44511 18.5713C2.73549 18.6304 3.13857 18.5258 3.94471 18.3166C4.0728 18.2834 4.13689 18.2668 4.19342 18.2624C4.30151 18.254 4.37796 18.2656 4.47876 18.3056C4.53149 18.3265 4.60121 18.3696 4.74067 18.4559ZM9.08387 12.75C9.08387 13.2563 9.49427 13.6667 10.0005 13.6667C10.5068 13.6667 10.9172 13.2563 10.9172 12.75C10.9172 12.2437 10.5068 11.8333 10.0005 11.8333C9.49427 11.8333 9.08387 12.2437 9.08387 12.75ZM6.33387 12.75C6.33387 13.2563 6.74427 13.6667 7.25053 13.6667C7.75679 13.6667 8.1672 13.2563 8.1672 12.75C8.1672 12.2437 7.75679 11.8333 7.25053 11.8333C6.74427 11.8333 6.33387 12.2437 6.33387 12.75ZM4.50053 13.6667C3.99427 13.6667 3.58387 13.2563 3.58387 12.75C3.58387 12.2437 3.99427 11.8333 4.50053 11.8333C5.00679 11.8333 5.4172 12.2437 5.4172 12.75C5.4172 13.2563 5.00679 13.6667 4.50053 13.6667Z" fill="#A0A0A0"/>
</svg>
