<svg width="20" height="20" viewBox="0 0 20 20" fill="none" xmlns="http://www.w3.org/2000/svg">
<path fill-rule="evenodd" clip-rule="evenodd" d="M19.1668 10C19.1668 15.0626 15.0628 19.1667 10.0002 19.1667C4.93755 19.1667 0.833496 15.0626 0.833496 10C0.833496 4.93739 4.93755 0.833336 10.0002 0.833336C15.0628 0.833336 19.1668 4.93739 19.1668 10ZM11.4288 6.02294C10.5379 4.83498 8.67933 5.13657 8.20975 6.54532L7.90238 7.46741C7.78231 7.82762 7.39297 8.0223 7.03276 7.90222C6.67254 7.78215 6.47787 7.39281 6.59794 7.0326L6.90531 6.11051C7.72564 3.64952 10.9724 3.12265 12.5288 5.19794C13.4406 6.41359 13.377 8.10151 12.3763 9.2451L11.5337 10.2081C10.9883 10.8314 10.6877 11.6315 10.6877 12.4598V12.75C10.6877 13.1297 10.3799 13.4375 10.0002 13.4375C9.62047 13.4375 9.31266 13.1297 9.31266 12.75V12.4598C9.31266 11.2985 9.73418 10.1766 10.4989 9.30264L11.3415 8.33966C11.9143 7.68503 11.9507 6.71881 11.4288 6.02294ZM10.0002 16.4167C10.5064 16.4167 10.9168 16.0063 10.9168 15.5C10.9168 14.9937 10.5064 14.5833 10.0002 14.5833C9.4939 14.5833 9.0835 14.9937 9.0835 15.5C9.0835 16.0063 9.4939 16.4167 10.0002 16.4167Z" fill="#A0A0A0"/>
</svg>
