<svg width="17" height="16" viewBox="0 0 17 16" fill="none" xmlns="http://www.w3.org/2000/svg">
    <path fill-rule="evenodd" clip-rule="evenodd" d="M3.83333 7.375C3.48816 7.375 3.20833 7.65482 3.20833 8C3.20833 8.34518 3.48816 8.625 3.83333 8.625L10.5 8.625L10.5 10.5C10.5 11.2742 10.5 11.6613 10.4487 11.9851C10.1663 13.768 8.76803 15.1663 6.98514 15.4487C6.66126 15.5 6.27417 15.5 5.5 15.5C4.72583 15.5 4.33874 15.5 4.01486 15.4487C2.23197 15.1663 0.833681 13.768 0.5513 11.9851C0.500001 11.6613 0.500001 11.2742 0.500001 10.5L0.500002 5.5C0.500002 4.72583 0.500002 4.33874 0.5513 4.01486C0.833681 2.23197 2.23197 0.833679 4.01486 0.551298C4.33874 0.499999 4.72583 0.5 5.5 0.5C6.27417 0.5 6.66126 0.5 6.98514 0.551298C8.76803 0.83368 10.1663 2.23197 10.4487 4.01486C10.5 4.33874 10.5 4.72583 10.5 5.5L10.5 7.375L3.83333 7.375ZM10.5 7.375L14.5087 7.375C14.2359 7.10612 13.8342 6.78646 13.2475 6.32128L11.7784 5.1564C11.5079 4.94195 11.4625 4.54883 11.6769 4.27836C11.8914 4.00788 12.2845 3.96247 12.555 4.17693L14.054 5.36547C14.6144 5.80979 15.0768 6.17643 15.4062 6.50459C15.7443 6.84135 16.0245 7.21513 16.1006 7.69277C16.1169 7.79453 16.125 7.89718 16.125 8C16.125 8.10282 16.1169 8.20547 16.1006 8.30723C16.0245 8.78487 15.7443 9.15865 15.4062 9.49541C15.0768 9.82357 14.6144 10.1902 14.054 10.6345L12.555 11.8231C12.2845 12.0375 11.8914 11.9921 11.6769 11.7216C11.4625 11.4512 11.5079 11.0581 11.7784 10.8436L13.2475 9.67873C13.8342 9.21354 14.2359 8.89388 14.5087 8.625L10.5 8.625L10.5 7.375Z" fill="#EB5757" />
</svg>
    