<svg width="15" height="14" viewBox="0 0 15 14" fill="none" xmlns="http://www.w3.org/2000/svg">
    <path d="M7.50098 5.78125C6.37915 5.78125 5.46973 6.69067 5.46973 7.8125C5.46973 8.93433 6.37915 9.84375 7.50098 9.84375C8.62281 9.84375 9.53223 8.93433 9.53223 7.8125C9.53223 6.69067 8.62281 5.78125 7.50098 5.78125Z" fill="currentColor" />
    <path fill-rule="evenodd" clip-rule="evenodd" d="M5.78223 0.15625C4.91928 0.15625 4.21973 0.855805 4.21973 1.71875V1.83036C4.21973 2.1139 3.98987 2.34375 3.70633 2.34375C2.09139 2.34375 0.782227 3.65292 0.782227 5.26786V8.1496C0.782223 9.15172 0.78222 9.93732 0.841894 10.5649C0.902719 11.2047 1.02883 11.7285 1.3118 12.1902C1.60813 12.6738 2.01469 13.0804 2.49825 13.3767C2.96001 13.6596 3.48383 13.7858 4.12354 13.8466C4.75115 13.9063 5.53674 13.9063 6.53883 13.9063H8.46308C9.46518 13.9063 10.2508 13.9063 10.8784 13.8466C11.5181 13.7858 12.0419 13.6596 12.5037 13.3767C12.9873 13.0804 13.3938 12.6738 13.6902 12.1902C13.9731 11.7285 14.0992 11.2047 14.1601 10.5649C14.2197 9.93733 14.2197 9.15174 14.2197 8.14965V5.26786C14.2197 3.65292 12.9106 2.34375 11.2956 2.34375C11.0121 2.34375 10.7822 2.1139 10.7822 1.83036V1.71875C10.7822 0.855805 10.0827 0.15625 9.21973 0.15625H5.78223ZM4.53223 7.8125C4.53223 6.1729 5.86138 4.84375 7.50098 4.84375C9.14057 4.84375 10.4697 6.1729 10.4697 7.8125C10.4697 9.4521 9.14057 10.7813 7.50098 10.7813C5.86138 10.7813 4.53223 9.4521 4.53223 7.8125ZM11.251 5.9375C10.9058 5.9375 10.626 5.65768 10.626 5.3125C10.626 4.96732 10.9058 4.6875 11.251 4.6875C11.5962 4.6875 11.876 4.96732 11.876 5.3125C11.876 5.65768 11.5962 5.9375 11.251 5.9375Z" fill="currentColor" />
</svg>