<svg width="15" height="16" viewBox="0 0 15 16" fill="none" xmlns="http://www.w3.org/2000/svg">
<path d="M9.45861 2.56526C8.07296 1.77518 6.99664 1.16149 6.12251 0.763362C5.2451 0.363746 4.48348 0.138072 3.7429 0.214943C2.56753 0.336945 1.49752 0.945957 0.800218 1.89378C0.359773 2.49247 0.176386 3.26088 0.0880125 4.21219C-7.1466e-06 5.15969 -3.9963e-06 6.38774 5.68305e-08 7.96709V8.03291C-4.09166e-06 9.61226 -7.31945e-06 10.8403 0.0880121 11.7878C0.176385 12.7391 0.359772 13.5075 0.800218 14.1062C1.49752 15.054 2.56753 15.6631 3.7429 15.7851C4.48348 15.8619 5.2451 15.6363 6.12251 15.2366C6.99663 14.8385 8.07294 14.2248 9.45858 13.4348L9.51483 13.4027C10.9004 12.6127 11.9767 11.999 12.763 11.4504C13.5516 10.9002 14.1328 10.3602 14.4376 9.6842C14.9208 8.6123 14.9208 7.3877 14.4376 6.3158C14.1328 5.63978 13.5516 5.09983 12.763 4.54965C11.9767 4.00103 10.9004 3.38731 9.51482 2.5973L9.45861 2.56526Z" fill="#353535"/>
</svg>
