<svg width="42" height="42" viewBox="0 0 42 42" fill="none" xmlns="http://www.w3.org/2000/svg">
<g clip-path="url(#clip0_15_3361)">
<path d="M2.06567 26.7726C1.36022 26.7726 0.78833 27.3445 0.78833 28.05C0.78833 28.7554 1.36022 29.3273 2.06567 29.3273H7.17505C7.88051 29.3273 8.45239 28.7554 8.45239 28.05C8.45239 27.3445 7.88051 26.7726 7.17505 26.7726H2.06567Z" fill="#FBFBFB"/>
<path d="M2.06567 31.882C1.36022 31.882 0.78833 32.4539 0.78833 33.1594C0.78833 33.8648 1.36022 34.4367 2.06567 34.4367H12.2844C12.9899 34.4367 13.5618 33.8648 13.5618 33.1594C13.5618 32.4539 12.9899 31.882 12.2844 31.882H2.06567Z" fill="#FBFBFB"/>
<path d="M5.6573 9.46901L5.47192 9.31562C5.99716 8.59268 6.55613 8.06095 7.27907 7.53571C9.51753 5.90937 12.7107 5.90937 19.0969 5.90937H22.5032C28.8894 5.90937 32.0826 5.90937 34.321 7.53571C35.044 8.06095 35.5588 8.53442 36.0841 9.25735L35.8702 9.47009L31.9395 13.4007C29.0754 16.2648 27.0163 18.3201 25.2403 19.6752C23.4937 21.0077 22.1719 21.5422 20.7998 21.5422C19.4278 21.5422 18.1059 21.0077 16.3593 19.6752C14.5833 18.3201 12.5242 16.2648 9.66012 13.4007L6.35052 10.0911L5.6573 9.46901Z" fill="#FBFBFB"/>
<path d="M3.7688 21.2375C3.7688 16.7414 3.7688 13.828 4.33632 11.7161L4.59286 11.9464L7.92279 15.2763C10.7027 18.0563 12.8813 20.2349 14.8097 21.7062C16.7835 23.2122 18.6446 24.0969 20.7998 24.0969C22.955 24.0969 24.8161 23.2122 26.7899 21.7062C28.7183 20.2349 30.8969 18.0563 33.6768 15.2763L37.2581 11.695C37.8313 13.8086 37.8313 16.7264 37.8313 21.2375C37.8313 27.6238 37.8313 30.8169 36.205 33.0553C35.6797 33.7783 35.044 34.414 34.321 34.9393C32.0826 36.5656 28.8894 36.5656 22.5032 36.5656H19.0969C16.6642 36.5656 14.6949 36.5656 13.0651 36.4757C14.5701 36.1228 15.6907 34.7719 15.6907 33.1594C15.6907 31.2781 14.1656 29.7531 12.2844 29.7531H10.1256C10.4154 29.2521 10.5813 28.6704 10.5813 28.05C10.5813 26.1688 9.05627 24.6437 7.17505 24.6437H3.78107C3.7688 23.6199 3.7688 22.4901 3.7688 21.2375Z" fill="#FBFBFB"/>
</g>
<defs>
<clipPath id="clip0_15_3361">
<rect width="40.875" height="40.875" fill="white" transform="translate(0.362549 0.799999)"/>
</clipPath>
</defs>
</svg>
