<svg width="20" height="20" viewBox="0 0 20 20" fill="none" xmlns="http://www.w3.org/2000/svg">
<path d="M9.16758 8.33325H10.8342V12.4999H9.16758V8.33325ZM9.16675 13.3333H10.8334V14.9999H9.16675V13.3333Z" fill="#EB5757"/>
<path d="M11.4734 3.49999C11.1834 2.95416 10.6184 2.61499 10 2.61499C9.38171 2.61499 8.81671 2.95416 8.52671 3.50082L2.41171 15.0533C2.27601 15.307 2.2088 15.5917 2.21669 15.8793C2.22458 16.1669 2.3073 16.4475 2.45671 16.6933C2.60395 16.9403 2.81307 17.1446 3.06341 17.2861C3.31375 17.4275 3.59666 17.5013 3.88421 17.5H16.1159C16.7059 17.5 17.24 17.1983 17.5442 16.6933C17.6934 16.4474 17.776 16.1668 17.7838 15.8793C17.7917 15.5917 17.7247 15.3071 17.5892 15.0533L11.4734 3.49999ZM3.88421 15.8333L10 4.28082L16.12 15.8333H3.88421Z" fill="#EB5757"/>
</svg>
