<svg width="28" height="32" viewBox="0 0 28 32" fill="none" xmlns="http://www.w3.org/2000/svg">
    <path d="M28 16.0194C28 17.0304 27.6818 18.0452 27.0455 18.8578C26.9261 19.0173 26.3693 19.6744 25.9318 20.1021L25.6932 20.3354C22.3523 23.8775 14.0398 29.2044 9.82386 30.9113C9.82386 30.9502 7.31818 31.965 6.125 32H5.96591C4.13636 32 2.42614 30.993 1.55114 29.3599C1.07386 28.4617 0.636363 25.8566 0.59659 25.8216C0.238635 23.4848 0 19.9077 0 15.9806C0 11.8629 0.238636 8.12637 0.676136 5.83232C0.676136 5.79344 1.11364 3.6938 1.39205 2.99393C1.82955 1.98688 2.625 1.12758 3.61932 0.583233C4.41477 0.1983 5.25 0 6.125 0C7.03977 0.0427704 8.75 0.622114 9.42614 0.894289C13.8807 2.6051 22.392 8.20413 25.6534 11.6258C26.2102 12.1701 26.8068 12.835 26.9659 12.9866C27.642 13.842 28 14.8919 28 16.0194Z" fill="#FBFBFB" />
</svg>
    