<svg width="16" height="18" viewBox="0 0 16 18" fill="none" xmlns="http://www.w3.org/2000/svg">
    <path fill-rule="evenodd" clip-rule="evenodd" d="M2.00182 1.52274C2.09159 1.45753 2.18441 1.39753 2.28088 1.34232C2.31186 1.41134 2.35569 1.47599 2.41237 1.53266C3.51417 2.63442 4.37901 3.49789 5.14138 4.10806C5.91318 4.72578 6.63597 5.13125 7.46874 5.26314C7.97753 5.34373 8.49583 5.34373 9.00462 5.26314C9.81411 5.13493 10.5196 4.74828 11.2672 4.15947C12.0054 3.57817 12.834 2.75885 13.8771 1.71651C13.9106 1.68307 13.9395 1.64684 13.9641 1.60858C14.2795 1.85429 14.5591 2.14325 14.7944 2.46712C15.6096 3.58923 15.6096 5.18989 15.6096 8.39121V10.0987C15.6096 13.3 15.6096 14.9007 14.7944 16.0228C14.5311 16.3852 14.2124 16.7039 13.85 16.9672C12.7279 17.7824 11.1272 17.7824 7.92591 17.7824C4.72459 17.7824 3.12392 17.7824 2.00182 16.9672C1.63943 16.7039 1.32074 16.3852 1.05744 16.0228C0.242188 14.9007 0.242188 13.3 0.242188 10.0987V8.39121C0.242188 5.18989 0.242188 3.58923 1.05744 2.46712C1.32074 2.10473 1.63943 1.78604 2.00182 1.52274ZM6.21841 8.60464C5.86478 8.60464 5.5781 8.89132 5.5781 9.24495C5.5781 9.59859 5.86478 9.88526 6.21841 9.88526H9.6334C9.98703 9.88526 10.2737 9.59859 10.2737 9.24495C10.2737 8.89132 9.98703 8.60464 9.6334 8.60464H6.21841ZM4.51092 12.0196C4.15729 12.0196 3.87061 12.3063 3.87061 12.6599C3.87061 13.0136 4.15729 13.3002 4.51092 13.3002H11.3409C11.6945 13.3002 11.9812 13.0136 11.9812 12.6599C11.9812 12.3063 11.6945 12.0196 11.3409 12.0196H4.51092Z" fill="currentColor" />
    <path d="M7.92591 0.707489C10.231 0.707489 11.7062 0.707489 12.7704 1.01183C11.8139 1.96581 11.0984 2.66235 10.4749 3.15339C9.81791 3.6708 9.3143 3.91751 8.80429 3.99829C8.42823 4.05785 8.04513 4.05785 7.66907 3.99829C7.14441 3.91519 6.62666 3.65654 5.9416 3.10824C5.30373 2.59772 4.56984 1.87749 3.58597 0.895036C4.60375 0.707489 5.96435 0.707489 7.92591 0.707489Z" fill="currentColor" />
</svg>
    