<svg width="18" height="19" viewBox="0 0 18 19" fill="none" xmlns="http://www.w3.org/2000/svg">
    <path fill-rule="evenodd" clip-rule="evenodd" d="M9.75 1C9.75 0.585786 9.41421 0.25 9 0.25C8.58579 0.25 8.25 0.585786 8.25 1V7H6C5.07099 7 4.60649 7 4.21783 7.06156C2.07837 7.40042 0.400416 9.07837 0.0615583 11.2178C0 11.6065 0 12.071 0 13C0 13.929 0 14.3935 0.0615583 14.7822C0.400416 16.9216 2.07837 18.5996 4.21783 18.9384C4.60649 19 5.07099 19 6 19H12C12.929 19 13.3935 19 13.7822 18.9384C15.9216 18.5996 17.5996 16.9216 17.9384 14.7822C18 14.3935 18 13.929 18 13C18 12.071 18 11.6065 17.9384 11.2178C17.5996 9.07837 15.9216 7.40042 13.7822 7.06156C13.3935 7 12.929 7 12 7H9.75V1ZM9.75 7H8.25V13.8105C7.92734 13.483 7.54375 13.001 6.98553 12.297L5.58768 10.534C5.33034 10.2095 4.8586 10.155 4.53403 10.4123C4.20946 10.6697 4.15497 11.1414 4.41232 11.466L5.83857 13.2648C6.37175 13.9373 6.81172 14.4922 7.20551 14.8875C7.60963 15.2932 8.05816 15.6294 8.63133 15.7208C8.75344 15.7402 8.87661 15.75 9 15.75C9.12339 15.75 9.24656 15.7402 9.36867 15.7208C9.94184 15.6294 10.3904 15.2932 10.7945 14.8875C11.1883 14.4922 11.6283 13.9372 12.1614 13.2648L13.5877 11.466C13.845 11.1414 13.7905 10.6697 13.466 10.4123C13.1414 10.155 12.6697 10.2095 12.4123 10.534L11.0145 12.297C10.4563 13.001 10.0727 13.483 9.75 13.8105V7Z" fill="#FBFBFB" />
</svg>
    