<svg width="16" height="18" viewBox="0 0 16 18" fill="none" xmlns="http://www.w3.org/2000/svg">
    <path fill-rule="evenodd" clip-rule="evenodd" d="M1.37776 2.46717C0.5625 3.58928 0.5625 5.18994 0.5625 8.39126V10.0987C0.5625 13.3001 0.5625 14.9007 1.37776 16.0228C1.64105 16.3852 1.95974 16.7039 2.32213 16.9672C3.44424 17.7825 5.0449 17.7825 8.24622 17.7825C11.4475 17.7825 13.0482 17.7825 14.1703 16.9672C14.5327 16.7039 14.8514 16.3852 15.1147 16.0228C15.9299 14.9007 15.9299 13.3001 15.9299 10.0987V8.39126C15.9299 5.18994 15.9299 3.58928 15.1147 2.46717C14.8514 2.10478 14.5327 1.78609 14.1703 1.52279C13.0482 0.707539 11.4475 0.707539 8.24622 0.707539C5.0449 0.707539 3.44424 0.707539 2.32213 1.52279C1.95974 1.78609 1.64105 2.10478 1.37776 2.46717ZM4.83123 5.18971C4.4776 5.18971 4.19092 5.47638 4.19092 5.83002C4.19092 6.18365 4.4776 6.47033 4.83123 6.47033H11.6612C12.0148 6.47033 12.3015 6.18365 12.3015 5.83002C12.3015 5.47638 12.0148 5.18971 11.6612 5.18971H4.83123ZM6.53872 8.60469C6.18509 8.60469 5.89842 8.89137 5.89842 9.245C5.89842 9.59864 6.18509 9.88531 6.53872 9.88531H9.95371C10.3073 9.88531 10.594 9.59864 10.594 9.245C10.594 8.89137 10.3073 8.60469 9.95371 8.60469H6.53872ZM4.83123 12.0197C4.4776 12.0197 4.19092 12.3064 4.19092 12.66C4.19092 13.0136 4.4776 13.3003 4.83123 13.3003H11.6612C12.0148 13.3003 12.3015 13.0136 12.3015 12.66C12.3015 12.3064 12.0148 12.0197 11.6612 12.0197H4.83123Z" fill="currentColor" />
</svg>
    