<svg width="18" height="18" viewBox="0 0 18 18" fill="none" xmlns="http://www.w3.org/2000/svg">
    <path d="M5.66667 5.04167C5.32149 5.04167 5.04167 5.32149 5.04167 5.66667C5.04167 6.01185 5.32149 6.29167 5.66667 6.29167H12.3333C12.6785 6.29167 12.9583 6.01185 12.9583 5.66667C12.9583 5.32149 12.6785 5.04167 12.3333 5.04167H5.66667Z" fill="#606060" />
    <path d="M7.33333 8.375C6.98816 8.375 6.70833 8.65483 6.70833 9C6.70833 9.34518 6.98816 9.625 7.33333 9.625H10.6667C11.0118 9.625 11.2917 9.34518 11.2917 9C11.2917 8.65483 11.0118 8.375 10.6667 8.375H7.33333Z" fill="#606060" />
    <path d="M5.66667 11.7083C5.32149 11.7083 5.04167 11.9882 5.04167 12.3333C5.04167 12.6785 5.32149 12.9583 5.66667 12.9583H12.3333C12.6785 12.9583 12.9583 12.6785 12.9583 12.3333C12.9583 11.9882 12.6785 11.7083 12.3333 11.7083H5.66667Z" fill="#606060" />
    <path fill-rule="evenodd" clip-rule="evenodd" d="M12.7196 0.144779C11.7678 0.0416596 10.5682 0.0416651 9.03771 0.0416719H8.96229C7.43185 0.0416651 6.23218 0.0416596 5.2804 0.144779C4.30912 0.25001 3.52213 0.468609 2.8502 0.956799C2.44341 1.25235 2.08568 1.61008 1.79013 2.01687C1.30194 2.6888 1.08334 3.47579 0.978107 4.44707C0.874988 5.39885 0.874993 6.59852 0.875 8.12896V9.87105C0.874993 11.4015 0.874988 12.6012 0.978107 13.5529C1.08334 14.5242 1.30194 15.3112 1.79013 15.9831C2.08568 16.3899 2.44341 16.7477 2.8502 17.0432C3.52213 17.5314 4.30912 17.75 5.2804 17.8552C6.23216 17.9583 7.4318 17.9583 8.96221 17.9583H9.03773C10.5681 17.9583 11.7678 17.9583 12.7196 17.8552C13.6909 17.75 14.4779 17.5314 15.1498 17.0432C15.5566 16.7477 15.9143 16.3899 16.2099 15.9831C16.6981 15.3112 16.9167 14.5242 17.0219 13.5529C17.125 12.6012 17.125 11.4015 17.125 9.87113V8.12894C17.125 6.59854 17.125 5.39883 17.0219 4.44707C16.9167 3.47579 16.6981 2.6888 16.2099 2.01687C15.9143 1.61008 15.5566 1.25235 15.1498 0.956799C14.4779 0.468609 13.6909 0.25001 12.7196 0.144779ZM3.58493 1.96807C4.00826 1.6605 4.55011 1.48122 5.41504 1.38751C6.29166 1.29253 7.42369 1.29167 9 1.29167C10.5763 1.29167 11.7083 1.29253 12.585 1.38751C13.4499 1.48122 13.9917 1.6605 14.4151 1.96807C14.7157 2.18652 14.9802 2.45093 15.1986 2.7516C15.5062 3.17494 15.6855 3.71678 15.7792 4.58171C15.8741 5.45833 15.875 6.59036 15.875 8.16667V9.83334C15.875 11.4096 15.8741 12.5417 15.7792 13.4183C15.6855 14.2832 15.5062 14.8251 15.1986 15.2484C14.9802 15.5491 14.7157 15.8135 14.4151 16.0319C13.9917 16.3395 13.4499 16.5188 12.585 16.6125C11.7083 16.7075 10.5763 16.7083 9 16.7083C7.42369 16.7083 6.29166 16.7075 5.41504 16.6125C4.55011 16.5188 4.00826 16.3395 3.58493 16.0319C3.28426 15.8135 3.01985 15.5491 2.8014 15.2484C2.49383 14.8251 2.31454 14.2832 2.22083 13.4183C2.12586 12.5417 2.125 11.4096 2.125 9.83334V8.16667C2.125 6.59036 2.12586 5.45833 2.22083 4.58171C2.31454 3.71678 2.49383 3.17494 2.8014 2.7516C3.01985 2.45093 3.28426 2.18652 3.58493 1.96807Z" fill="#606060" />
</svg>
    