<svg width="28" height="30" viewBox="0 0 28 30" fill="none" xmlns="http://www.w3.org/2000/svg">
    <path fill-rule="evenodd" clip-rule="evenodd" d="M27.5 13.5C27.5 7.8754 27.5 5.0631 26.0676 3.09161C25.605 2.4549 25.0451 1.89497 24.4084 1.43237C22.4369 0 19.6246 0 14 0C8.3754 0 5.5631 0 3.59161 1.43237C2.9549 1.89497 2.39497 2.4549 1.93237 3.09161C0.5 5.0631 0.5 7.8754 0.5 13.5V16.5C0.5 17.7584 0.5 18.8761 0.516042 19.875L0.62123 19.875C1.89925 19.8749 2.67773 19.8748 3.34925 19.9812C7.03982 20.5657 9.93428 23.4602 10.5188 27.1508C10.6252 27.8223 10.6251 28.6007 10.625 29.8788L10.625 29.984C11.6239 30 12.7416 30 14 30C19.6246 30 22.4369 30 24.4084 28.5676C25.0451 28.105 25.605 27.5451 26.0676 26.9084C27.5 24.9369 27.5 22.1246 27.5 16.5V13.5ZM8 7.875C7.37868 7.875 6.875 8.37868 6.875 9C6.875 9.62132 7.37868 10.125 8 10.125H12.5C13.1213 10.125 13.625 9.62132 13.625 9C13.625 8.37868 13.1213 7.875 12.5 7.875H8ZM6.875 15C6.875 15.6213 7.37868 16.125 8 16.125L20 16.125C20.6213 16.125 21.125 15.6213 21.125 15C21.125 14.3787 20.6213 13.875 20 13.875L8 13.875C7.37868 13.875 6.875 14.3787 6.875 15Z" fill="currentColor" />
    <path d="M2.99727 22.2035C2.53469 22.1302 1.96351 22.1252 0.598004 22.125C0.739616 24.2844 1.08585 25.7433 1.93237 26.9084C2.39497 27.5451 2.9549 28.105 3.59161 28.5676C4.75675 29.4142 6.21556 29.7604 8.37499 29.902C8.3748 28.5365 8.36978 27.9653 8.29651 27.5027C7.86447 24.7749 5.72508 22.6355 2.99727 22.2035Z" fill="currentColor" />
</svg>
    