<svg width="16" height="16" viewBox="0 0 16 16" fill="none" xmlns="http://www.w3.org/2000/svg">
    <path fill-rule="evenodd" clip-rule="evenodd" d="M0.242188 8.24497C0.242188 5.04365 0.242188 3.44299 1.05744 2.32088C1.32074 1.95849 1.63943 1.6398 2.00182 1.3765C3.12392 0.561249 4.72458 0.561249 7.92591 0.561249C11.1272 0.561249 12.7279 0.561249 13.85 1.3765C14.2124 1.6398 14.5311 1.95849 14.7944 2.32088C15.6096 3.44299 15.6096 5.04365 15.6096 8.24497C15.6096 8.96121 15.6096 9.59733 15.6005 10.1659L15.5406 10.1659C14.8132 10.1658 14.3701 10.1658 13.9879 10.2263C11.8874 10.559 10.24 12.2065 9.90727 14.307C9.84674 14.6892 9.84677 15.1323 9.84683 15.8597L9.84683 15.9196C9.27827 15.9287 8.64215 15.9287 7.92591 15.9287C4.72458 15.9287 3.12392 15.9287 2.00182 15.1134C1.63943 14.8501 1.32074 14.5314 1.05744 14.169C0.242188 13.0469 0.242188 11.4463 0.242188 8.24497ZM4.51092 4.18967C4.15729 4.18967 3.87061 4.47635 3.87061 4.82998C3.87061 5.18361 4.15729 5.47029 4.51092 5.47029H7.07216C7.42579 5.47029 7.71247 5.18361 7.71247 4.82998C7.71247 4.47635 7.42579 4.18967 7.07216 4.18967H4.51092ZM4.51092 7.60466C4.15729 7.60466 3.87061 7.89133 3.87061 8.24497C3.87061 8.5986 4.15729 8.88528 4.51092 8.88528H11.3409C11.6945 8.88528 11.9812 8.5986 11.9812 8.24497C11.9812 7.89133 11.6945 7.60466 11.3409 7.60466H4.51092ZM4.51092 11.0196C4.15729 11.0196 3.87061 11.3063 3.87061 11.66C3.87061 12.0136 4.15729 12.3003 4.51092 12.3003H7.07216C7.42579 12.3003 7.71247 12.0136 7.71247 11.66C7.71247 11.3063 7.42579 11.0196 7.07216 11.0196H4.51092Z" fill="currentColor" />
    <path d="M14.1883 11.4912C14.4516 11.4495 14.7766 11.4466 15.5538 11.4465C15.4732 12.6756 15.2762 13.5059 14.7944 14.169C14.5311 14.5314 14.2124 14.8501 13.85 15.1134C13.1868 15.5952 12.3565 15.7923 11.1275 15.8729C11.1276 15.0957 11.1304 14.7706 11.1721 14.5073C11.418 12.9548 12.6357 11.7371 14.1883 11.4912Z" fill="currentColor" />
</svg>
    