<svg width="19" height="20" viewBox="0 0 19 20" fill="none" xmlns="http://www.w3.org/2000/svg">
    <path fillRule="evenodd" clipRule="evenodd" d="M18.5 9V11C18.5 14.7497 18.5 16.6246 17.5451 17.9389C17.2367 18.3634 16.8634 18.7367 16.4389 19.0451C15.1246 20 13.2497 20 9.5 20C5.75027 20 3.8754 20 2.56107 19.0451C2.1366 18.7367 1.76331 18.3634 1.45491 17.9389C0.5 16.6246 0.5 14.7497 0.5 11V9C0.5 8.16106 0.5 7.41596 0.510695 6.75L0.58082 6.75C1.43284 6.75007 1.95182 6.75011 2.3995 6.67921C4.85988 6.28952 6.78952 4.35988 7.17921 1.8995C7.25011 1.45182 7.25007 0.932837 7.25 0.0808201L7.25 0.0106945C7.91596 0 8.66106 0 9.5 0C13.2497 0 15.1246 0 16.4389 0.954914C16.8634 1.26331 17.2367 1.6366 17.5451 2.06107C18.5 3.3754 18.5 5.25027 18.5 9ZM10.25 7C10.25 6.58579 9.91422 6.25 9.5 6.25C9.08579 6.25 8.75 6.58579 8.75 7V13.9362C8.73578 13.9251 8.72128 13.9137 8.70649 13.9018C8.38386 13.6427 8.00033 13.2573 7.43054 12.6824L6.03269 11.272C5.74111 10.9778 5.26624 10.9757 4.97204 11.2673C4.67784 11.5589 4.67573 12.0338 4.96731 12.328L6.39564 13.7691C6.92703 14.3053 7.37022 14.7525 7.76724 15.0713C8.18367 15.4057 8.62131 15.6601 9.1545 15.7281C9.38392 15.7573 9.61608 15.7573 9.8455 15.7281C10.3787 15.6601 10.8163 15.4057 11.2328 15.0713C11.6298 14.7525 12.0729 14.3053 12.6043 13.7691L14.0327 12.328C14.3243 12.0338 14.3222 11.5589 14.028 11.2673C13.7338 10.9757 13.2589 10.9778 12.9673 11.272L11.5695 12.6824C10.9997 13.2573 10.6161 13.6427 10.2935 13.9018C10.2787 13.9137 10.2642 13.9251 10.25 13.9362V7Z" fill="#0092CE" />
    <path d="M2.16485 5.19768C1.85646 5.24652 1.47568 5.24987 0.565336 5.25C0.659744 3.81037 0.890566 2.83783 1.45491 2.06107C1.76331 1.6366 2.1366 1.26331 2.56107 0.954914C3.33783 0.390566 4.31037 0.159744 5.75 0.0653362C5.74987 0.975676 5.74652 1.35645 5.69768 1.66485C5.40965 3.48339 3.98339 4.90965 2.16485 5.19768Z" fill="#0092CE" />
</svg>