<svg width="15" height="7" viewBox="0 0 15 7" fill="none" xmlns="http://www.w3.org/2000/svg">
    <path d="M14.1034 1.59745C14.4678 1.2297 14.4652 0.636116 14.0974 0.271636C13.7297 -0.092843 13.1361 -0.0901947 12.7716 0.277552L10.5875 2.48126C9.70108 3.37563 9.09103 3.98913 8.57412 4.40426C8.072 4.80751 7.74948 4.94584 7.46063 4.98266C7.27926 5.00578 7.09574 5.00578 6.91437 4.98266C6.62552 4.94585 6.303 4.80751 5.80088 4.40426C5.28397 3.98913 4.67392 3.37563 3.7875 2.48126L1.60336 0.277553C1.23888 -0.0901938 0.645298 -0.092842 0.277552 0.271637C-0.0901947 0.636117 -0.092843 1.2297 0.271637 1.59745L2.49512 3.84086C3.33255 4.68583 4.01698 5.37642 4.62683 5.86618C5.26098 6.37547 5.90466 6.74413 6.6773 6.84261C7.01608 6.8858 7.35892 6.8858 7.6977 6.84261C8.47034 6.74413 9.11402 6.37547 9.74818 5.86618C10.358 5.37642 11.0424 4.68583 11.8799 3.84087L14.1034 1.59745Z" fill="#808080" />
</svg>
    